<?xml version="1.0" encoding="utf-8"?>
<!-- Generator: Adobe Illustrator 24.0.3, SVG Export Plug-In . SVG Version: 6.00 Build 0)  -->
<svg version="1.1" id="Layer_1" xmlns="http://www.w3.org/2000/svg" xmlns:xlink="http://www.w3.org/1999/xlink" x="0px" y="0px"
	 viewBox="0 0 1920 4400" style="enable-background:new 0 0 1920 4400;" xml:space="preserve">
<style type="text/css">
	.st0{fill:#F0F9FF;}
	.st1{fill:#FFF6E3;}
</style>
<title>background</title>
<path class="st0" d="M538,2913c85.6,118.6,138.7,192.2,135,300c-4.6,134.9-96.3,269.8-226.5,322.1c-127.1,51.1-260.8-6.2-367.1-49.7
	c-33.3-13.6-60.2-27.4-79.4-37.8c0-239.1,0-478.2,0-717.3c39.6-30.5,127.8-88.9,234.2-77.1C364.9,2667.7,442.1,2780.1,538,2913z"/>
<path class="st1" d="M1407.4,1661.5c106.4,71.5,185.2,170.7,182.5,265.5c-3.4,95.4-88.9,185.7-169.5,258.3
	c-80.8,72-157.3,125.8-254.4,170.7c-96.3,44.4-213.6,79.8-312.7,57.7c-98.3-22.1-178.4-102.5-246.2-191.8
	c-67.8-89.2-124.1-187.9-103.1-273.3c21-85.3,119.4-158,220.4-230c101-72,205.5-143.6,324.3-157.4
	C1168,1546.8,1301,1589.9,1407.4,1661.5z"/>
<path class="st1" d="M1225.5,4400c-24.8-56.7-71.4-187-14.4-301.7c23.5-47.3,108.6-96.1,277.7-191.9
	c181.9-103,244.3-126.4,318.1-112.9c50.4,9.2,88.7,32.5,113.1,50.7c0,185.3,0,370.5,0,555.8C1688.5,4400,1457,4400,1225.5,4400z"/>
<path class="st0" d="M0,0c194.7,0,389.4,0,584.1,0c11.2,35.6,29.3,110.1,8.9,199.5c-20.3,88.5-67.5,144.3-100.5,182.3
	c-54.7,63.1-107.1,123.5-187.8,134.5c-64.7,8.9-128.4-17.8-255.7-71c-20.6-8.6-37.5-16.3-49-21.7C0,282.4,0,141.2,0,0z"/>
<path class="st1" d="M1667.8,858c-10.2,78-194,130.5-339.7,117.3c-76.9-7-213.9-38.8-227.2-107.6c-8.6-44.9,38.7-89.2,78-126
	c30.2-28.2,70.8-66.1,135.8-79.1c90.1-17.9,165.9,24.2,211.2,49.3C1569.4,735.9,1676.1,795.2,1667.8,858z"/>
</svg>
