<svg xmlns="http://www.w3.org/2000/svg" xmlns:xlink="http://www.w3.org/1999/xlink" viewBox="0 0 643.35 541.28"><defs><style>.a{fill:none;}.b{isolation:isolate;}.c{clip-path:url(#a);}.d{fill:#fef1a6;}.e{fill:#abdffc;}.f{fill:#fbd6d5;}.g{fill:#cdefc6;}.h{fill:#dfdfdf;}.i{fill:#fff;}.j{fill:#4575ae;}.k{fill:#86ccff;}.l{fill:#cfe9ff;}.m{fill:#f0f9ff;}.n{fill:#bcbcbc;}.o{fill:#e1f3ff;}</style><clipPath id="a" transform="translate(-38.74 -16.93)"><polygon class="a" points="-39.69 359.6 359.22 127.78 760.68 359.56 361.77 591.38 -39.69 359.6"/></clipPath></defs><g class="b"><g class="c"><path class="d" d="M649.45,295.34c-20.08-11.59-47.77-18.76-78.3-18.76-61.07,0-110.42,28.68-110.22,64.06.1,17.68,12.56,33.7,32.64,45.29s47.76,18.76,78.3,18.76c61.07,0,110.41-28.68,110.22-64.05-.1-17.69-12.57-33.7-32.64-45.3" transform="translate(-38.74 -16.93)"/><path class="e" d="M227.25,295.35c-20.07-11.59-47.76-18.76-78.29-18.76-61.07,0-110.42,28.68-110.22,64.05.1,17.69,12.57,33.7,32.64,45.29s47.76,18.76,78.3,18.76c61.07,0,110.42-28.68,110.22-64.05-.1-17.69-12.57-33.7-32.65-45.29" transform="translate(-38.74 -16.93)"/><path class="f" d="M423.09,197.59c-16.31-9.42-38.81-15.24-63.62-15.24-49.62,0-89.71,23.29-89.55,52,.08,14.37,10.21,27.38,26.52,36.8s38.8,15.24,63.62,15.24c49.62,0,89.71-23.3,89.55-52-.08-14.37-10.21-27.38-26.52-36.8" transform="translate(-38.74 -16.93)"/><path class="g" d="M458.56,421.54c-25.1-14.49-59.7-23.45-97.87-23.45-76.35,0-138,35.84-137.78,80.06.13,22.11,15.71,42.13,40.81,56.62s59.7,23.45,97.87,23.45c76.34,0,138-35.85,137.77-80.07-.12-22.11-15.71-42.13-40.8-56.61" transform="translate(-38.74 -16.93)"/></g></g><path class="h" d="M464.34,16.93H256.65a5.38,5.38,0,0,0-5.37,5.37V159.75a5.38,5.38,0,0,0,5.37,5.37H464.34a5.38,5.38,0,0,0,5.37-5.37V22.3A5.38,5.38,0,0,0,464.34,16.93Zm-185,4.44a2.68,2.68,0,1,1-2.69,2.68A2.68,2.68,0,0,1,279.29,21.37Zm-10.15,0a2.68,2.68,0,1,1-2.69,2.68A2.68,2.68,0,0,1,269.14,21.37Zm-10.16,0a2.68,2.68,0,1,1-2.68,2.68A2.68,2.68,0,0,1,259,21.37ZM465.9,157.71a3.26,3.26,0,0,1-3.25,3.25H258.46a3.25,3.25,0,0,1-3.24-3.25V34.32a3.25,3.25,0,0,1,3.24-3.25H462.65a3.26,3.26,0,0,1,3.25,3.25Z" transform="translate(-38.74 -16.93)"/><path class="i" d="M462.65,31.07H258.46a3.25,3.25,0,0,0-3.24,3.25V157.71a3.25,3.25,0,0,0,3.24,3.25H462.65a3.26,3.26,0,0,0,3.25-3.25V34.32A3.26,3.26,0,0,0,462.65,31.07Zm-155.9,119.1a3.11,3.11,0,0,1-3.1,3.1H266.27a3.1,3.1,0,0,1-3.1-3.1V58.42a3.1,3.1,0,0,1,3.1-3.1h37.38a3.11,3.11,0,0,1,3.1,3.1Zm0-104.79a2.15,2.15,0,0,1-2.14,2.14h-39.3a2.15,2.15,0,0,1-2.14-2.14V41.07a2.14,2.14,0,0,1,2.14-2.13h39.3a2.14,2.14,0,0,1,2.14,2.13ZM382,150.16a3.12,3.12,0,0,1-3.11,3.11H318.34a3.12,3.12,0,0,1-3.11-3.11V111.21a3.12,3.12,0,0,1,3.11-3.1h60.51a3.12,3.12,0,0,1,3.11,3.1Zm0-52.59a3.12,3.12,0,0,1-3.11,3.1H318.34a3.12,3.12,0,0,1-3.11-3.1V58.62a3.12,3.12,0,0,1,3.11-3.11h60.51A3.12,3.12,0,0,1,382,58.62Zm75.55,52.59a3.12,3.12,0,0,1-3.11,3.11H393.89a3.12,3.12,0,0,1-3.1-3.11V111.21a3.12,3.12,0,0,1,3.1-3.1H454.4a3.12,3.12,0,0,1,3.11,3.1Zm0-52.59a3.12,3.12,0,0,1-3.11,3.1H393.89a3.12,3.12,0,0,1-3.1-3.1V58.62a3.12,3.12,0,0,1,3.1-3.11H454.4a3.12,3.12,0,0,1,3.11,3.11Zm0-52.19a2.15,2.15,0,0,1-2.14,2.14H429.3a2.15,2.15,0,0,1-2.13-2.14V41.07a2.14,2.14,0,0,1,2.13-2.13h26.11a2.14,2.14,0,0,1,2.14,2.13Z" transform="translate(-38.74 -16.93)"/><rect class="h" x="224.43" y="22" width="43.58" height="8.58" rx="2.14"/><path class="h" d="M303.65,55.32H266.27a3.1,3.1,0,0,0-3.1,3.1v91.75a3.1,3.1,0,0,0,3.1,3.1h37.38a3.11,3.11,0,0,0,3.1-3.1V58.42A3.11,3.11,0,0,0,303.65,55.32ZM301.15,65a1.26,1.26,0,0,1-1.25,1.25h-15A1.26,1.26,0,0,1,283.65,65V62.44a1.25,1.25,0,0,1,1.25-1.25h15a1.25,1.25,0,0,1,1.25,1.25Z" transform="translate(-38.74 -16.93)"/><rect class="j" x="244.91" y="44.26" width="17.5" height="5" rx="1.25"/><rect class="j" x="388.43" y="22" width="30.39" height="8.58" rx="2.14"/><path class="d" d="M378.85,55.51H318.34a3.12,3.12,0,0,0-3.11,3.11V97.57a3.12,3.12,0,0,0,3.11,3.1h60.51a3.12,3.12,0,0,0,3.11-3.1V58.62A3.12,3.12,0,0,0,378.85,55.51Zm-.14,38.36a3.32,3.32,0,0,1-3.31,3.31h-54a3.32,3.32,0,0,1-3.31-3.31V87.2a3.32,3.32,0,0,1,3.31-3.31h54a3.32,3.32,0,0,1,3.31,3.31Z" transform="translate(-38.74 -16.93)"/><path class="i" d="M375.4,83.89h-54a3.32,3.32,0,0,0-3.31,3.31v6.67a3.32,3.32,0,0,0,3.31,3.31h54a3.32,3.32,0,0,0,3.31-3.31V87.2A3.32,3.32,0,0,0,375.4,83.89ZM347,94.25a.9.9,0,0,1-.9.9H321.88a.9.9,0,0,1-.9-.9V92.44a.91.91,0,0,1,.9-.91h24.24a.91.91,0,0,1,.9.91Zm0-5.55a.91.91,0,0,1-.9.9H321.88a.91.91,0,0,1-.9-.9V86.88a.91.91,0,0,1,.9-.9h24.24a.91.91,0,0,1,.9.9Zm28.61,0a.9.9,0,0,1-.9.9H350.5a.9.9,0,0,1-.91-.9V86.92a.9.9,0,0,1,.91-.9h24.23a.9.9,0,0,1,.9.9Z" transform="translate(-38.74 -16.93)"/><rect class="g" x="282.25" y="69.05" width="26.04" height="3.62" rx="0.9"/><rect class="f" x="282.25" y="74.6" width="26.04" height="3.62" rx="0.9"/><rect class="h" x="310.86" y="69.08" width="26.04" height="3.62" rx="0.9"/><path class="e" d="M454.4,55.51H393.89a3.12,3.12,0,0,0-3.1,3.11V97.57a3.12,3.12,0,0,0,3.1,3.1H454.4a3.12,3.12,0,0,0,3.11-3.1V58.62A3.12,3.12,0,0,0,454.4,55.51Zm-.13,38.36A3.32,3.32,0,0,1,451,97.18h-54a3.32,3.32,0,0,1-3.31-3.31V87.2a3.32,3.32,0,0,1,3.31-3.31h54a3.32,3.32,0,0,1,3.31,3.31Z" transform="translate(-38.74 -16.93)"/><path class="i" d="M451,83.89h-54a3.32,3.32,0,0,0-3.31,3.31v6.67a3.32,3.32,0,0,0,3.31,3.31h54a3.32,3.32,0,0,0,3.31-3.31V87.2A3.32,3.32,0,0,0,451,83.89ZM422.57,88.7a.9.9,0,0,1-.9.9H397.44a.9.9,0,0,1-.9-.9V86.88a.9.9,0,0,1,.9-.9h24.23a.9.9,0,0,1,.9.9Zm28.62,0a.9.9,0,0,1-.9.9H426.05a.9.9,0,0,1-.9-.9V86.92a.9.9,0,0,1,.9-.9h24.24a.9.9,0,0,1,.9.9Z" transform="translate(-38.74 -16.93)"/><rect class="h" x="357.8" y="69.05" width="26.04" height="3.62" rx="0.9"/><rect class="d" x="386.41" y="69.08" width="26.04" height="3.62" rx="0.9"/><path class="f" d="M378.85,108.11H318.34a3.12,3.12,0,0,0-3.11,3.1v39a3.12,3.12,0,0,0,3.11,3.11h60.51a3.12,3.12,0,0,0,3.11-3.11V111.21A3.12,3.12,0,0,0,378.85,108.11Zm-.14,38.36a3.32,3.32,0,0,1-3.31,3.31h-54a3.32,3.32,0,0,1-3.31-3.31V139.8a3.32,3.32,0,0,1,3.31-3.31h54a3.32,3.32,0,0,1,3.31,3.31Z" transform="translate(-38.74 -16.93)"/><path class="i" d="M375.4,136.49h-54a3.32,3.32,0,0,0-3.31,3.31v6.67a3.32,3.32,0,0,0,3.31,3.31h54a3.32,3.32,0,0,0,3.31-3.31V139.8A3.32,3.32,0,0,0,375.4,136.49ZM347,146.85a.9.9,0,0,1-.9.9H321.88a.9.9,0,0,1-.9-.9V145a.91.91,0,0,1,.9-.9h24.24a.91.91,0,0,1,.9.9Zm0-5.55a.91.91,0,0,1-.9.9H321.88a.91.91,0,0,1-.9-.9v-1.82a.91.91,0,0,1,.9-.9h24.24a.91.91,0,0,1,.9.9Zm28.61,0a.9.9,0,0,1-.9.9H350.5a.9.9,0,0,1-.91-.9v-1.81a.91.91,0,0,1,.91-.91h24.23a.9.9,0,0,1,.9.91Z" transform="translate(-38.74 -16.93)"/><rect class="h" x="282.25" y="121.65" width="26.04" height="3.62" rx="0.9"/><rect class="d" x="282.25" y="127.2" width="26.04" height="3.62" rx="0.9"/><rect class="g" x="310.86" y="121.68" width="26.04" height="3.62" rx="0.9"/><path class="g" d="M454.4,108.11H393.89a3.12,3.12,0,0,0-3.1,3.1v39a3.12,3.12,0,0,0,3.1,3.11H454.4a3.12,3.12,0,0,0,3.11-3.11V111.21A3.12,3.12,0,0,0,454.4,108.11Zm-.13,38.36a3.32,3.32,0,0,1-3.31,3.31h-54a3.32,3.32,0,0,1-3.31-3.31V139.8a3.32,3.32,0,0,1,3.31-3.31h54a3.32,3.32,0,0,1,3.31,3.31Z" transform="translate(-38.74 -16.93)"/><path class="i" d="M451,136.49h-54a3.32,3.32,0,0,0-3.31,3.31v6.67a3.32,3.32,0,0,0,3.31,3.31h54a3.32,3.32,0,0,0,3.31-3.31V139.8A3.32,3.32,0,0,0,451,136.49Zm-28.39,10.36a.9.9,0,0,1-.9.9H397.44a.9.9,0,0,1-.9-.9V145a.9.9,0,0,1,.9-.9h24.23a.9.9,0,0,1,.9.9Zm0-5.55a.9.9,0,0,1-.9.9H397.44a.9.9,0,0,1-.9-.9v-1.82a.9.9,0,0,1,.9-.9h24.23a.9.9,0,0,1,.9.9Zm28.62,0a.9.9,0,0,1-.9.9H426.05a.9.9,0,0,1-.9-.9v-1.81a.91.91,0,0,1,.9-.91h24.24a.91.91,0,0,1,.9.91Z" transform="translate(-38.74 -16.93)"/><rect class="h" x="357.8" y="121.65" width="26.04" height="3.62" rx="0.9"/><rect class="d" x="357.8" y="127.2" width="26.04" height="3.62" rx="0.9"/><rect class="e" x="386.41" y="121.68" width="26.04" height="3.62" rx="0.9"/><path class="k" d="M402.13,115.36a9.23,9.23,0,0,1,8-3.8,8.18,8.18,0,0,1,7.62,10.4,3.09,3.09,0,0,1-.38,1.12c-.91,1.1-.56,2.15-.12,3.3a172.33,172.33,0,0,1,9.1,33.82c.89,5.42,1.57,10.88,1.92,16.35.44,7,.54,14,.61,21,0,3.48-.32,7-.55,10.44a1.67,1.67,0,0,0,1,1.94,8.23,8.23,0,0,1,4.65,8,8.94,8.94,0,0,1-6.84,7.56c-1,.25-1.34.62-1.32,1.63A46.92,46.92,0,0,1,423,244.64a23.2,23.2,0,0,1-4.15,7.1c-2.86,3.31-6.68,4.31-11,4s-8.51-.75-12.77-1.15a16.48,16.48,0,0,1-2.21-.39c-3.33-.81-4.75-2.56-4.73-5.88,0-2.8.25-5.6.13-8.39-.14-3.15-.55-6.29-.89-9.42a1.11,1.11,0,0,0-.66-.79c-2.87-.36-5.75-.66-8.7-1,.29,1.78.7,3.44.8,5.12.31,5.08.32,10.15-2,14.9a8.3,8.3,0,0,1-7.31,5c-5.94.32-11.9.56-17.85.61-4,0-6-1.9-6.49-5.6a26,26,0,0,1-.21-3.84c.15-6.88.16-13.76.5-20.63.19-3.83.36-9.37.17-16.2a6.23,6.23,0,0,1-4.56,2.59,6.31,6.31,0,0,1-4.67-2.13c-1.11-1.09-2-2.65-2.55-5.58a25.65,25.65,0,0,1,.75-10.95c2.31-8.92,6.69-16.93,11.88-24.57.26-.38.5-.77.8-1.24a18.84,18.84,0,0,1-7.32-3.58c-8.68-7.08-7.28-20,2.75-25.18,1-.49,2-.81,3-1.29a1.69,1.69,0,0,0,.83-.94,33.34,33.34,0,0,1,18-23.37c1.29-.67,2.69-1.15,4-1.79a2.32,2.32,0,0,0,1-1c1.52-3,3.89-5,7.45-5.32a8.74,8.74,0,0,1,8.59,4.32,2,2,0,0,0,1.7,1,26.31,26.31,0,0,1,13.48,5.3Zm-58.23,73.8c.17,1.88.4,4.2.6,6.53.07.73.4,1.24,1.19,1.21s1-.66,1-1.34c-.08-1-.19-2-.31-3.05a50.11,50.11,0,0,1,.63-14.92c.46-2.48,1.26-4.91,1.83-7.37a1.83,1.83,0,0,0-.3-1.49c-.6-.63-1.46-.16-1.82.92A60.78,60.78,0,0,0,343.9,189.16Zm84.6,23.43-.13,0c0-.26,0-.52,0-.79,0-.74-.32-1.3-1.2-1.28s-1,.58-1.09,1.28c-.18,1.89-.41,3.77-.63,5.65-.08.67-.08,1.31.78,1.47s1.26-.31,1.39-1.07C427.91,216.08,428.21,214.34,428.5,212.59Zm-1.57,9,0-.45c-.37-.28-.71-.72-1.13-.81a.85.85,0,0,0-1.1.94,1.44,1.44,0,0,0,.93,1C426,222.38,426.5,221.89,426.93,221.64Z" transform="translate(-38.74 -16.93)"/><path class="j" d="M343.9,189.16a60.78,60.78,0,0,1,2.81-19.51c.36-1.08,1.22-1.55,1.82-.92a1.83,1.83,0,0,1,.3,1.49c-.57,2.46-1.37,4.89-1.83,7.37a50.11,50.11,0,0,0-.63,14.92c.12,1,.23,2,.31,3.05.05.68-.15,1.31-1,1.34s-1.12-.48-1.19-1.21C344.3,193.36,344.07,191,343.9,189.16Z" transform="translate(-38.74 -16.93)"/><path class="j" d="M360.5,154.6c-.47-.09-1.35-.2-2.2-.42a1.44,1.44,0,0,1-1.11-1.82,1.53,1.53,0,0,1,1.9-1.08,7.5,7.5,0,0,0,8.31-3.21,1.61,1.61,0,0,1,2.37-.55,1.55,1.55,0,0,1,.22,2.36C367.81,153,364.75,154.46,360.5,154.6Z" transform="translate(-38.74 -16.93)"/><path class="j" d="M384.23,124.8a8.19,8.19,0,0,1,5.64,2.4c.92.91,1,1.91.3,2.62s-1.75.69-2.76-.24a5,5,0,0,0-3.29-1.4c-1.44-.05-2.09-.65-2-1.78S382.9,124.78,384.23,124.8Z" transform="translate(-38.74 -16.93)"/><path class="j" d="M354.06,126.32c-.72.24-1.18.48-1.65.25a1.58,1.58,0,0,1-.66-.75c-.49-1-.13-1.73,1.15-2.34a10.87,10.87,0,0,1,6.29-.85,1.63,1.63,0,0,1,1.4,1.69,1.66,1.66,0,0,1-.26.85,1.76,1.76,0,0,1-1.17.58,5.37,5.37,0,0,1-1.67,0A8.62,8.62,0,0,0,354.06,126.32Z" transform="translate(-38.74 -16.93)"/><path class="j" d="M354.39,141.37l-3.27-.22a1.71,1.71,0,0,1-1.64-1.28,1.56,1.56,0,0,1,.7-1.81,2.74,2.74,0,0,1,2.46-.6c1.16.27,2.36.37,3.53.6a1.69,1.69,0,0,1,1.49,1.82,1.78,1.78,0,0,1-1.94,1.52c-.44,0-.88,0-1.33-.07Z" transform="translate(-38.74 -16.93)"/><path class="j" d="M428.5,212.59c-.29,1.75-.59,3.49-.88,5.24-.13.76-.53,1.24-1.39,1.07s-.86-.8-.78-1.47c.22-1.88.45-3.76.63-5.65.07-.7.25-1.26,1.09-1.28s1.18.54,1.2,1.28c0,.27,0,.53,0,.79Z" transform="translate(-38.74 -16.93)"/><path class="j" d="M355.94,131.89a2.29,2.29,0,0,1-2.28,2.3,2.4,2.4,0,0,1-2.31-2.21,2.2,2.2,0,0,1,2.26-2.18A2.15,2.15,0,0,1,355.94,131.89Z" transform="translate(-38.74 -16.93)"/><path class="j" d="M381.63,138.24a2.12,2.12,0,1,1-.08-4.24,2.12,2.12,0,1,1,.08,4.24Z" transform="translate(-38.74 -16.93)"/><path class="j" d="M426.93,221.64c-.43.25-.89.74-1.28.69a1.44,1.44,0,0,1-.93-1,.85.85,0,0,1,1.1-.94c.42.09.76.53,1.13.81Z" transform="translate(-38.74 -16.93)"/><path class="j" d="M400.62,179.17c-4.29-1.82-7.4-5-10.38-8.48-2.23-2.58-4.39-5.25-6.85-7.61a16.45,16.45,0,0,0-4.89-2.9c-2.45-1.07-5.29.32-6.52,2.94a14.45,14.45,0,0,0-.59,10.32,19.88,19.88,0,0,0,9.16,11.9c.34.21.78.49.87.82a1.73,1.73,0,0,1-.16,1.37,1.32,1.32,0,0,1-1.26.13,27.53,27.53,0,0,1-4.78-3.51c-2.9-4-8.1-11.1-6.48-18.84a10.14,10.14,0,0,1,3.17-6,8.36,8.36,0,0,1,2.63-1.47,8.11,8.11,0,0,1,6.36.7,23.59,23.59,0,0,1,7.37,6.18c2.28,2.65,4.57,5.29,6.93,7.87a17.46,17.46,0,0,0,8.35,5.09c.92.26,1.43,1,1.16,1.73s-1,.8-1.76.57S401.4,179.45,400.62,179.17Z" transform="translate(-38.74 -16.93)"/><path class="j" d="M374.28,229.54a1.05,1.05,0,0,0,1-.92,1,1,0,0,0-.91-1.17,31.72,31.72,0,0,1-10.08-3.09,27.39,27.39,0,0,1-8.64-6.4,26.73,26.73,0,0,1-6-11.63,1.05,1.05,0,1,0-2.05.49,28.89,28.89,0,0,0,6.5,12.54,29.37,29.37,0,0,0,9.27,6.88,33.63,33.63,0,0,0,10.75,3.29Z" transform="translate(-38.74 -16.93)"/><path class="j" d="M345.92,200.82a1,1,0,1,1,2-.67.85.85,0,0,1,.16.48,1.09,1.09,0,0,1-1,1A1.12,1.12,0,0,1,345.92,200.82Zm1.17.26h0Z" transform="translate(-38.74 -16.93)"/><path class="j" d="M379.46,108.43a13.65,13.65,0,0,0-7.69,1.1c-.69.31-.09,1.34.6,1a12.22,12.22,0,0,1,6.77-1C379.89,109.68,380.21,108.54,379.46,108.43Z" transform="translate(-38.74 -16.93)"/><path class="j" d="M383.25,108.7h-1a.6.6,0,0,0,0,1.19h1a.6.6,0,0,0,0-1.19Z" transform="translate(-38.74 -16.93)"/><path class="j" d="M413.68,119.08a6.9,6.9,0,0,0-7.13.37c-.63.43,0,1.45.6,1a5.75,5.75,0,0,1,5.93-.37C413.76,120.46,414.36,119.44,413.68,119.08Z" transform="translate(-38.74 -16.93)"/><path class="l" d="M459.72,396.36a45.67,45.67,0,0,1-9.87,8.53,44.75,44.75,0,0,1-17,6.22,65.65,65.65,0,0,1-12.45.59,47.1,47.1,0,0,1-6.8-.72c-1.2-.22-1.2.25-1.2,1.09,0,1.19.28,2.4.25,3.56-.1,4.1-.32,8.2-.71,12.28a85.88,85.88,0,0,1-2.57,13,23.87,23.87,0,0,0-.35,4.65c-.63,11.56-.57,23.15-.27,34.72.17,6.92.59,13.84.51,20.76a13.79,13.79,0,0,1-1.5,6.16c-1.9,3.68-5.32,4.62-9,4.79a80.66,80.66,0,0,1-9.71,0c-6.46-.5-13-.29-19.39-1.47-4.28-.78-6.89-3.53-8.84-7-2.14-3.81-2.82-8.07-3.26-12.4-.3-2.81-.18-5.61-.26-8.42a38.72,38.72,0,0,1,1.12-9.88c.26-1.12.2-1.58-1.26-1.37-3.49.51-7,.84-10.52,1.06a2,2,0,0,0-2.2,2A115.84,115.84,0,0,0,343.16,496c.07,2.12.42,4.24.28,6.38a13.09,13.09,0,0,1-1,4.83c-1.63,3.42-4.9,4.16-8.13,4.77-3.71.69-7.5.9-11.26,1.34s-7.54.71-11.32.86c-8.14.34-14-3.53-18.12-10.31-3.86-6.33-5.64-13.37-6.88-20.57a125.83,125.83,0,0,1-1.24-15.51c0-1-.46-1.29-1.34-1.54a14.67,14.67,0,0,1-9.35-7.23c-2.95-5.43-1.65-10.92,2.3-15.23A10.29,10.29,0,0,1,281,440.9a1.39,1.39,0,0,0,1-1.7,73.42,73.42,0,0,1-.82-16.49,62.46,62.46,0,0,1,1.06-8.15c.34-2,.12-2.48-1.85-2.18A36,36,0,0,1,265.28,411a25.59,25.59,0,0,1-15.11-10.65c-.34-.51-.86-1-.43-1.68,1,.94,2,1.82,2.91,2.82.65.72,1,.71,1.72,0,2.18-2.24,4.43-4.4,6.65-6.59a7.08,7.08,0,0,0,5.34,2.82,6.52,6.52,0,0,0,6.79-4.81c.74-2.84-.56-5.38-3.42-6.69,2-2.07,4-4.14,6.09-6.2,1.8-1.82,1.81-1.81.17-3.7a43.22,43.22,0,0,0,8.76-1.24c.91-.19,1.06-.54,1.07-1.33a154.08,154.08,0,0,1,1.3-16.9c.75-6.53,2-13,3.37-19.43a224.88,224.88,0,0,1,6.29-23c.83-2.57,1.82-5.09,2.76-7.63a2.27,2.27,0,0,0-.17-2.05,13.41,13.41,0,0,1-.63-11.71c3.35-8.92,15.7-11,22.47-3,.82,1,1.19.88,2.11.11a37.25,37.25,0,0,1,18.91-8.58,8,8,0,0,0,6.22-4,11.92,11.92,0,0,1,9.61-5.25,13.21,13.21,0,0,1,12.15,5.95,4.15,4.15,0,0,1,.93,1.61c.3,2.14,1.78,2.86,3.56,3.57a53.09,53.09,0,0,1,31.47,36.5c.63,2.64,1.48,4.14,4.19,5.24a23.54,23.54,0,0,1,14.36,16.06,22.83,22.83,0,0,1-2.26,18.22,25.14,25.14,0,0,1-15,12,5.8,5.8,0,0,0-.73.28c-.08,0-.11.15-.25.38,10.08,2.95,20.09,3.56,30.13.11,2.74,1.8,5.37,3.75,7.95,5.76-2.5.59-4.25,2-4.7,4.6a5.75,5.75,0,0,0,2.25,5.82c4.09,3.17,10.37,1,11-4.19l.42.3.2.31v0c0,.18.1.34.32.34l0,0c0,.63.38,1.07.64,1.57C456.34,389.9,458,393.13,459.72,396.36ZM369,350.14c-7.26,0-11.48,5-10.47,11.37.77,4.79,4.88,9,10.17,10.07,7.95,1.65,15.11-.51,21.55-5.09a9,9,0,0,0,3.9-9.41,2.28,2.28,0,0,0-2.08-2.21c-3.81-.83-7.6-1.8-11.44-2.55C376.46,351.51,372.39,350.33,369,350.14Zm.43,120.17c.24-.05.54-.13.85-.18a41.87,41.87,0,0,0,10.94-3.68,45.06,45.06,0,0,0,16.75-14c.52-.7.76-1.45,0-2.06a1.59,1.59,0,0,0-2.37.16c-.28.31-.53.65-.78,1a42.1,42.1,0,0,1-12.69,11A42.78,42.78,0,0,1,369,467.16c-.9.18-1.63.54-1.51,1.62S368.31,470.27,369.39,470.31ZM391.1,341.25a42,42,0,0,0,6-1.46,6.91,6.91,0,0,0,2.82-1.29c1.7-1.42,1.85-2.95.51-5.62-.69-1.37-1.65-1.66-3.76-1.17-1.57.37-3.15.71-4.72,1.09a9.58,9.58,0,0,0-3.35,1.22,4,4,0,0,0-1.8,4.45C387.28,340.09,388.88,341.22,391.1,341.25Zm17.34,56.23c-.06,1.3-.11,2.6-.18,3.9-.07,1.13.24,2.08,1.51,2.1s1.58-.81,1.65-1.89a48.74,48.74,0,0,0-.61-12.59,54.79,54.79,0,0,0-2.9-9.55c-.39-1-1-1.64-2.13-1.26s-1.18,1.4-.79,2.43c.08.19.15.39.23.58A41.55,41.55,0,0,1,408.44,397.48Zm-115.7,11.19-2.19-.1c-1.07-.07-1.94.25-2,1.42s.78,1.6,1.81,1.7a40.5,40.5,0,0,0,11.21-.41,55.33,55.33,0,0,0,6.35-1.65c1.06-.31,1.63-1,1.3-2.1s-1.17-1.2-2.14-.88c-.6.2-1.21.34-1.8.52A37.5,37.5,0,0,1,292.74,408.67Zm-7.82,37.79c0-.52.07-1,.1-1.56.06-1.06-.25-1.9-1.46-2s-1.6.81-1.69,1.81a27.67,27.67,0,0,0-.12,3.28,26.63,26.63,0,0,0,3.08,11.5,1.45,1.45,0,0,0,2.07.79,1.48,1.48,0,0,0,.72-2.11c-.33-.82-.7-1.62-1-2.44A22.73,22.73,0,0,1,284.92,446.46Zm109.64-129a4,4,0,0,0,.18,8.09,4.16,4.16,0,0,0,4-4.13A4.22,4.22,0,0,0,394.56,317.48Zm-49.81,13.24a4.17,4.17,0,0,0,4,3.87,4.44,4.44,0,0,0,4.09-4.35,3.88,3.88,0,0,0-3.87-3.72A4.32,4.32,0,0,0,344.75,330.72ZM324.94,311a2.24,2.24,0,0,0,1.75,2.34c1.28.31,2.58,0,3-1.3a5.14,5.14,0,0,1,2.58-3.08,2.1,2.1,0,0,0,.91-2.85,2.44,2.44,0,0,0-2.7-1.65C327.84,304.85,325,308.12,324.94,311Zm59.88-18.92a2.63,2.63,0,0,0-2.7,2.25,2.55,2.55,0,0,0,2.28,2.85,3.63,3.63,0,0,1,2.34,1.06,2.43,2.43,0,0,0,3.49.37,2.57,2.57,0,0,0,.34-3.64C389.21,293.14,387.26,292.37,384.82,292.11ZM402,447.46a1.5,1.5,0,0,0,1.32-1.67,1.39,1.39,0,0,0-1.51-1.43,1.38,1.38,0,0,0-1.45,1.49C400.32,446.83,400.86,447.38,402,447.46ZM288.12,463.38a1.54,1.54,0,1,0,1.63,1.51C289.73,464.05,289.29,463.42,288.12,463.38Z" transform="translate(-38.74 -16.93)"/><path class="f" d="M453.55,384.48l-.42-.3c-2.75-2.21-5.61-4.27-8.54-6.23-2.58-2-5.21-4-7.95-5.76-1.24-.94-2.45-1.95-3.75-2.8-1-.65-1.11-1.13-.36-2.14q11.52-15.71,23-31.48l.09-.13c1-1.25,1.69-3.47,3-3.56s2.63,1.61,3.94,2.55q9,6.45,17.88,12.91c1.58,1.18,3.13,2.41,4.75,3.53.78.54.87.91.29,1.7q-12.71,17.34-25.31,34.73c-.68.94-1.12.84-2,.26-1.34-.93-2.45-2.23-4.11-2.68l0,0c.06-.26-.1-.33-.32-.34v0Z" transform="translate(-38.74 -16.93)"/><path class="e" d="M454,385.08c1.66.45,2.77,1.75,4.11,2.68.85.58,1.29.68,2-.26q12.61-17.4,25.31-34.73c.58-.79.49-1.16-.29-1.7-1.62-1.12-3.17-2.35-4.75-3.53.92-.5,1.87-.94,2.74-1.52s1.37-.29,1.85.63q7.33,13.92,14.76,27.78c.53,1,.3,1.39-.63,1.87q-18.9,10-37.76,20c-.51.27-1.05.84-1.63.08-1.69-3.23-3.38-6.46-5-9.71C454.42,386.15,454,385.71,454,385.08Z" transform="translate(-38.74 -16.93)"/><path class="m" d="M249.19,398.14c.23.15.46.29.42.62C249.15,398.77,249.18,398.45,249.19,398.14Z" transform="translate(-38.74 -16.93)"/><path class="j" d="M369,350.14c3.43.19,7.5,1.37,11.63,2.18,3.84.75,7.63,1.72,11.44,2.55a2.28,2.28,0,0,1,2.08,2.21,9,9,0,0,1-3.9,9.41c-6.44,4.58-13.6,6.74-21.55,5.09-5.29-1.1-9.4-5.28-10.17-10.07C357.48,355.12,361.7,350.14,369,350.14Zm21.34,11.51c-2.88.64-5-.15-6.5-2.37-.4-.59-.66-.36-1.1-.06-3.67,2.46-7.35,1.92-10-1.58-.68-.89-.92-.72-1.56,0-2.43,2.67-5.52,3.28-8.59,1.6-1.18-.66-1.24-.09-1.15.77a9,9,0,0,0,1.46,4.23,11.4,11.4,0,0,0,9.55,4.82,26.9,26.9,0,0,0,15.35-4.51A7.4,7.4,0,0,0,390.3,361.65ZM368,353.19a7.1,7.1,0,0,0-4.06,1.21c-1,.78-1,1.38.06,2.15,1.45,1,3.81.48,5.08-1.25.38-.52,1.06-1.12.72-1.74S368.65,353.23,368,353.19Zm6.38,1.13a4.83,4.83,0,0,0,1.67,2.49,4.11,4.11,0,0,0,5-.08c.36-.36.9-.83-.13-1.05Zm16,3.41-4.33-.89C387.15,359.09,388.67,359.39,390.36,357.73Z" transform="translate(-38.74 -16.93)"/><path class="j" d="M369.39,470.31c-1.08,0-1.8-.47-1.91-1.53s.61-1.44,1.51-1.62a42.78,42.78,0,0,0,13.06-4.67,42.1,42.1,0,0,0,12.69-11c.25-.33.5-.67.78-1a1.59,1.59,0,0,1,2.37-.16c.8.61.56,1.36,0,2.06a45.06,45.06,0,0,1-16.75,14,41.87,41.87,0,0,1-10.94,3.68C369.93,470.18,369.63,470.26,369.39,470.31Z" transform="translate(-38.74 -16.93)"/><path class="j" d="M444.59,378c2.93,2,5.79,4,8.54,6.23-.62,5.15-6.9,7.36-11,4.19a5.75,5.75,0,0,1-2.25-5.82C440.34,379.92,442.09,378.54,444.59,378Z" transform="translate(-38.74 -16.93)"/><path class="j" d="M391.1,341.25c-2.22,0-3.82-1.16-4.29-2.78a4,4,0,0,1,1.8-4.45A9.58,9.58,0,0,1,392,332.8c1.57-.38,3.15-.72,4.72-1.09,2.11-.49,3.07-.2,3.76,1.17,1.34,2.67,1.19,4.2-.51,5.62a6.91,6.91,0,0,1-2.82,1.29A42,42,0,0,1,391.1,341.25Z" transform="translate(-38.74 -16.93)"/><path class="j" d="M261,395c2.79-3,5.67-5.93,8.71-8.68,2.86,1.31,4.16,3.85,3.42,6.69a6.52,6.52,0,0,1-6.79,4.81A7.08,7.08,0,0,1,261,395Z" transform="translate(-38.74 -16.93)"/><path class="j" d="M408.44,397.48a41.55,41.55,0,0,0-3.22-16.28c-.08-.19-.15-.39-.23-.58-.39-1-.49-2,.79-2.43s1.74.27,2.13,1.26a54.79,54.79,0,0,1,2.9,9.55,48.74,48.74,0,0,1,.61,12.59c-.07,1.08-.53,1.91-1.65,1.89s-1.58-1-1.51-2.1C408.33,400.08,408.38,398.78,408.44,397.48Z" transform="translate(-38.74 -16.93)"/><path class="j" d="M292.74,408.67a37.5,37.5,0,0,0,12.5-1.5c.59-.18,1.2-.32,1.8-.52,1-.32,1.82-.21,2.14.88s-.24,1.79-1.3,2.1a55.33,55.33,0,0,1-6.35,1.65,40.5,40.5,0,0,1-11.21.41c-1-.1-1.9-.5-1.81-1.7s1-1.49,2-1.42Z" transform="translate(-38.74 -16.93)"/><path class="j" d="M284.92,446.46a22.73,22.73,0,0,0,1.66,9.29c.34.82.71,1.62,1,2.44a1.48,1.48,0,0,1-.72,2.11,1.45,1.45,0,0,1-2.07-.79,26.63,26.63,0,0,1-3.08-11.5,27.67,27.67,0,0,1,.12-3.28c.09-1,.46-1.89,1.69-1.81s1.52.92,1.46,2C285,445.42,285,445.94,284.92,446.46Z" transform="translate(-38.74 -16.93)"/><path class="j" d="M394.56,317.48a4.22,4.22,0,0,1,4.22,4,4.16,4.16,0,0,1-4,4.13,4,4,0,0,1-.18-8.09Z" transform="translate(-38.74 -16.93)"/><path class="j" d="M344.75,330.72a4.32,4.32,0,0,1,4.18-4.2,3.88,3.88,0,0,1,3.87,3.72,4.44,4.44,0,0,1-4.09,4.35A4.17,4.17,0,0,1,344.75,330.72Z" transform="translate(-38.74 -16.93)"/><path class="j" d="M324.94,311c.05-2.91,2.9-6.18,5.52-6.54a2.44,2.44,0,0,1,2.7,1.65,2.1,2.1,0,0,1-.91,2.85,5.14,5.14,0,0,0-2.58,3.08c-.4,1.3-1.7,1.61-3,1.3A2.24,2.24,0,0,1,324.94,311Z" transform="translate(-38.74 -16.93)"/><path class="j" d="M384.82,292.11c2.44.26,4.39,1,5.75,2.89a2.57,2.57,0,0,1-.34,3.64,2.43,2.43,0,0,1-3.49-.37,3.63,3.63,0,0,0-2.34-1.06,2.55,2.55,0,0,1-2.28-2.85A2.63,2.63,0,0,1,384.82,292.11Z" transform="translate(-38.74 -16.93)"/><path class="j" d="M402,447.46c-1.12-.08-1.66-.63-1.64-1.61a1.38,1.38,0,0,1,1.45-1.49,1.39,1.39,0,0,1,1.51,1.43A1.5,1.5,0,0,1,402,447.46Z" transform="translate(-38.74 -16.93)"/><path class="j" d="M288.12,463.38c1.17,0,1.61.67,1.63,1.51a1.5,1.5,0,1,1-1.63-1.51Z" transform="translate(-38.74 -16.93)"/><path class="j" d="M453.55,384.48l.2.31Z" transform="translate(-38.74 -16.93)"/><path class="j" d="M453.74,384.76c.22,0,.38.08.32.34C453.84,385.1,453.78,384.94,453.74,384.76Z" transform="translate(-38.74 -16.93)"/><path class="f" d="M390.3,361.65a7.4,7.4,0,0,1-2.56,2.89,26.9,26.9,0,0,1-15.35,4.51,11.4,11.4,0,0,1-9.55-4.82,9,9,0,0,1-1.46-4.23c-.09-.86,0-1.43,1.15-.77,3.07,1.68,6.16,1.07,8.59-1.6.64-.71.88-.88,1.56,0,2.67,3.5,6.35,4,10,1.58.44-.3.7-.53,1.1.06C385.31,361.5,387.42,362.29,390.3,361.65Z" transform="translate(-38.74 -16.93)"/><path class="i" d="M368,353.19c.66,0,1.51-.16,1.8.37s-.34,1.22-.72,1.74c-1.27,1.73-3.63,2.29-5.08,1.25-1.08-.77-1.1-1.37-.06-2.15A7.1,7.1,0,0,1,368,353.19Z" transform="translate(-38.74 -16.93)"/><path class="i" d="M374.37,354.32l6.59,1.36c1,.22.49.69.13,1.05a4.11,4.11,0,0,1-5,.08A4.83,4.83,0,0,1,374.37,354.32Z" transform="translate(-38.74 -16.93)"/><path class="m" d="M390.36,357.73c-1.69,1.66-3.21,1.36-4.33-.89Z" transform="translate(-38.74 -16.93)"/><path class="j" d="M355.64,279.79a21.32,21.32,0,0,1,12,1.71c1.08.5.14,2.09-.93,1.6a19,19,0,0,0-10.55-1.53C355,281.74,354.46,280,355.64,279.79Z" transform="translate(-38.74 -16.93)"/><path class="j" d="M349.73,280.22h1.6a.93.93,0,0,1,0,1.85h-1.6a1,1,0,0,1-.93-.93A.93.93,0,0,1,349.73,280.22Z" transform="translate(-38.74 -16.93)"/><path class="j" d="M302.31,296.38a10.81,10.81,0,0,1,11.12.58c1,.67.05,2.27-.94,1.59a8.94,8.94,0,0,0-9.24-.57C302.2,298.54,301.26,296.94,302.31,296.38Z" transform="translate(-38.74 -16.93)"/><path class="d" d="M272.85,383.15l-.36.37q-3.9,3.69-7.46,7.69c-2.39,2.31-4.72,4.67-6.92,7.16-1.12,1.11-2.3,2.18-3.34,3.36-.8.92-1.29,1-2.2.07Q238.46,388,224.24,374.27l-.11-.11C223,373,220.88,372,221,370.65s2-2.41,3.12-3.59L239.6,351c1.41-1.42,2.87-2.79,4.22-4.26.65-.71,1-.74,1.74-.05q15.6,15.21,31.26,30.34c.85.82.69,1.25,0,2-1.12,1.22-2.59,2.15-3.27,3.75l0,0c-.26-.09-.34.06-.39.27h0Z" transform="translate(-38.74 -16.93)"/><path class="j" d="M153.57,300.2c14-.57,29.29,10.28,36,4.24,1-.95,3.75-4,7-3.6a6.36,6.36,0,0,1,3.65,2c5.85,5.78,4.29,19.09,4,21.64-1.09,8.26-1.94,14.71-6.93,18.45-3.49,2.61-8.61,2.26-18.71,1.45-29.25-2.34-32.9-2.73-39.3-5.17-9.51-3.63-15.64-6-16.85-11C120.05,318.54,136.61,300.9,153.57,300.2Z" transform="translate(-38.74 -16.93)"/><path class="j" d="M77.4,318.4a10.81,10.81,0,0,0-7.35,9c-.44,5.05,3.27,10.07,8.88,11.32a53.41,53.41,0,0,0,10.71,9.21c21.46,14,45.45,7.1,47.14,6.59,11.42-3.46,18.07-9.66,27.16-18.13,6.41-6,28.42-26.48,23.4-40.8-.78-2.22-1.73-2.93-7.2-14-2-4.12-3.63-7.52-4.65-9.74,9.62-1.66,16.54-9.89,16.48-19a19.43,19.43,0,0,0-13.16-17.89A40.89,40.89,0,0,0,154,201.43c-.15-.33-2.77-5.91-9-6.74a11.59,11.59,0,0,0-10.73,4.48,30.43,30.43,0,0,0-19.06,6.66A10.24,10.24,0,1,0,97.42,216c-1.75,4-3.44,8.08-5,12.34A242.69,242.69,0,0,0,77.4,318.4Z" transform="translate(-38.74 -16.93)"/><path class="l" d="M163.74,232.26a4.48,4.48,0,0,1,.11-.5.24.24,0,0,1,0-.08.14.14,0,0,0,0-.06c.07-.15.15-.31.23-.45l.07-.11c.11-.12.22-.26.34-.37a.08.08,0,0,1,0,0,3.12,3.12,0,0,1,.47-.33l.1-.06a4.93,4.93,0,0,1,.54-.19l.14,0c.2,0,.4,0,.6,0h.21l.52.11.14,0a5,5,0,0,1,.52.26,1.49,1.49,0,0,1,.27.23,2.11,2.11,0,0,1,.27.25,1.34,1.34,0,0,1,.27.44c0,.06.07.1.1.15a5.1,5.1,0,0,1,.19.55v.06a3.15,3.15,0,0,1,0,.53v.14c0,.19-.07.39-.12.58a.61.61,0,0,1-.05.12,5.2,5.2,0,0,1-.26.53l-.08.1a4,4,0,0,1-.38.44l-.1.08c-.13.1-.28.19-.42.28l-.06,0a2.31,2.31,0,0,1-.67.23h-.07a4.58,4.58,0,0,1-.53,0,2.23,2.23,0,0,1-.36,0c-.11,0-.24,0-.35-.08l-.06,0-.46-.23-.11-.07c-.13-.1-.25-.22-.38-.33l-.05,0a.39.39,0,0,1-.08-.1,4,4,0,0,1-.32-.48l-.06-.11a5.27,5.27,0,0,1-.19-.56.51.51,0,0,1,0-.13c0-.16,0-.35,0-.51v-.08S163.74,232.31,163.74,232.26Z" transform="translate(-38.74 -16.93)"/><path class="l" d="M135,235.37a3,3,0,0,1,.24-.51l.06-.09a2.32,2.32,0,0,1,.45-.49,2.72,2.72,0,0,1,.57-.35,3.11,3.11,0,0,1,.54-.18,2.09,2.09,0,0,1,.35,0,2.23,2.23,0,0,1,.36,0,3.71,3.71,0,0,1,.58.11,2.18,2.18,0,0,1,.64.29l.1.06c.13.11.26.22.38.34l0,0a1.31,1.31,0,0,1,.24.34l.09.14a1.87,1.87,0,0,1,.22.64,5.48,5.48,0,0,1,.05.57s0,.09,0,.13a2.8,2.8,0,0,1-.06.28,2.74,2.74,0,0,1-.05.28s0,.08,0,.11a2.73,2.73,0,0,1-.32.61,4.59,4.59,0,0,1-.36.41l-.1.09-.41.28,0,0-.11.05a3.25,3.25,0,0,1-.53.18,3.79,3.79,0,0,1-.58.05h-.12a4.82,4.82,0,0,1-.52-.11l-.06,0a3,3,0,0,1-.51-.25.41.41,0,0,1-.11-.07,2.57,2.57,0,0,1-.51-.48l-.28-.41,0-.05a.61.61,0,0,1-.05-.12,3.79,3.79,0,0,1-.19-.54,4.18,4.18,0,0,1,0-.59V236A2.94,2.94,0,0,1,135,235.37Z" transform="translate(-38.74 -16.93)"/><path class="l" d="M168.09,242.7a1.75,1.75,0,0,1,1.12-.75l4.35-.47a1.88,1.88,0,0,1,1.37.27,2.38,2.38,0,0,1,1.42,2.09,1.9,1.9,0,0,1-.53,1.14,1.87,1.87,0,0,1-1.37.54l-5,0a1.79,1.79,0,0,1-1.67-1.66A1.75,1.75,0,0,1,168.09,242.7Z" transform="translate(-38.74 -16.93)"/><path class="l" d="M150.56,250.86a1.82,1.82,0,0,1,2.41.8c.12.25.24.49.38.73l.21.35,0,0,0,.06a12.62,12.62,0,0,0,1.08,1.24,2.61,2.61,0,0,0,.24.22l.09.08.65.5c.23.16.46.3.7.45l.35.2.08.05h0a11.37,11.37,0,0,0,1.46.58l.8.21h.1l.4.06a11.26,11.26,0,0,0,1.64.08h.07l.35,0a8.91,8.91,0,0,0,.9-.16,1.8,1.8,0,0,1,2.12,1.39,1.83,1.83,0,0,1-1.38,2.12,12.34,12.34,0,0,1-13.53-6.56A1.83,1.83,0,0,1,150.56,250.86Z" transform="translate(-38.74 -16.93)"/><path class="j" d="M111.48,317.56c22.54,6.05,31.9,5.92,36,4.24.93-.38,4.71-2.12,8.59-.78a10,10,0,0,1,4.27,3c4.6,5.37,2.6,14.15,1.77,17.79-1.11,4.85-3,13-9.89,17.37-1.84,1.18-5.1,2.76-15.76,2.54-8.73-.19-20.41-.43-34.29-6.69A77.12,77.12,0,0,1,81,340.89" transform="translate(-38.74 -16.93)"/><path class="l" d="M78.46,323.56a14.92,14.92,0,0,0,.71,6.15c.19.55.4,1.09.58,1.64a1,1,0,1,1-1.88.75,17.58,17.58,0,0,1-1.55-7.66,17.22,17.22,0,0,1,.21-2.14c.1-.65.38-1.21,1.18-1.11s1,.66.88,1.35C78.55,322.88,78.5,323.22,78.46,323.56Z" transform="translate(-38.74 -16.93)"/><path class="l" d="M79.87,334.76c.76.08,1,.51,1,1.06a.92.92,0,0,1-1.08,1,1,1,0,0,1,.08-2Z" transform="translate(-38.74 -16.93)"/><path class="l" d="M162.45,341.6l-.27,0a1.38,1.38,0,0,1-1.1-1.63c1.53-8-.11-15.13-3.9-17a11.49,11.49,0,0,0-4.29-1,14.07,14.07,0,0,0-6.53,1.47c-.38.17-.72.32-1,.43-4.83,1.79-11-.2-18.89-6.08a1.39,1.39,0,0,1,1.66-2.23c7,5.19,12.44,7.11,16.26,5.7l.88-.37a16.52,16.52,0,0,1,7.76-1.7,14.22,14.22,0,0,1,5.43,1.29c4.95,2.5,7.16,10.74,5.37,20.05A1.39,1.39,0,0,1,162.45,341.6Z" transform="translate(-38.74 -16.93)"/><path class="l" d="M173.06,286.72a27.09,27.09,0,0,0-1.45-10.79l-.12-.39c-.22-.69-.25-1.32.61-1.55s1.13.24,1.34.91a35.48,35.48,0,0,1,1.52,6.36,32.24,32.24,0,0,1-.11,8.27c-.1.7-.43,1.22-1.16,1.17s-1-.7-.91-1.44S173,287.57,173.06,286.72Z" transform="translate(-38.74 -16.93)"/><path class="n" d="M155.69,325l-30.58-18.57.27-2.24,49.19-20,31.24,16.74-.26,2.23Z" transform="translate(-38.74 -16.93)"/><path class="n" d="M155.69,326.41a1.34,1.34,0,0,1-.72-.21l-30.58-18.57a1.41,1.41,0,0,1-.66-1.36L124,304a1.42,1.42,0,0,1,.86-1.13l49.19-20a1.36,1.36,0,0,1,1.18.06l31.25,16.74a1.4,1.4,0,0,1,.73,1.39l-.27,2.24a1.4,1.4,0,0,1-.82,1.11l-49.86,21.87A1.38,1.38,0,0,1,155.69,326.41Zm-29.09-20.7,29.19,17.74,48.47-21.26.06-.5-29.83-16-47.83,19.48Z" transform="translate(-38.74 -16.93)"/><path class="j" d="M118.93,277.71a28.86,28.86,0,0,0,5.63,5.5c6.91,5.09,11.83,3.82,18.52,9.14,2.44,1.93,5.42,4.3,5.57,7.82.18,4.11-3.61,7.18-4.88,8.2-5.57,4.5-12.65,3.72-15.18,3.27a21.91,21.91,0,0,1-12.54-7.34" transform="translate(-38.74 -16.93)"/><path class="l" d="M120,277c3,5.79,9.55,8.23,15.4,10.51,5,2,11.16,4.16,13.77,9.17,2.36,4.52-.22,9.51-4.42,12.42a23.51,23.51,0,0,1-14.67,3.83,22.66,22.66,0,0,1-14.84-6.62c-1.1-1.11.94-2.75,2-1.64,6.07,6.18,17.2,7.95,25.33,2.94a10.67,10.67,0,0,0,4.61-5c.9-2.48-.1-4.81-1.71-6.57-3.57-3.88-9.4-5.39-14.23-7.35-5.52-2.24-10.84-5.2-13.63-10.57C116.88,276.65,119.25,275.58,120,277Z" transform="translate(-38.74 -16.93)"/><path class="h" d="M220.59,261.33q-7.4,21-14.78,42.07l-49.65,22L171,281.67Z" transform="translate(-38.74 -16.93)"/><path class="h" d="M156.16,326.75a1.41,1.41,0,0,1-.94-.37,1.39,1.39,0,0,1-.37-1.47l14.83-43.69a1.4,1.4,0,0,1,.79-.84l49.59-20.33a1.41,1.41,0,0,1,1.49.27,1.37,1.37,0,0,1,.35,1.47l-14.77,42.07a1.41,1.41,0,0,1-.75.82l-49.65,21.95A1.42,1.42,0,0,1,156.16,326.75Zm16-44L158.5,322.8l46.2-20.43,13.55-38.57Z" transform="translate(-38.74 -16.93)"/><path class="l" d="M124.57,313c.76.08,1,.51,1,1.06a1,1,0,1,1-1-1.06Z" transform="translate(-38.74 -16.93)"/><path class="o" d="M141.76,199.49a14,14,0,0,1,7.89,1.13c.71.33.09,1.37-.61,1a12.59,12.59,0,0,0-6.95-1C141.32,200.78,141,199.6,141.76,199.49Z" transform="translate(-38.74 -16.93)"/><path class="o" d="M137.87,199.77h1.06a.61.61,0,1,1,0,1.22h-1.06a.61.61,0,1,1,0-1.22Z" transform="translate(-38.74 -16.93)"/><path class="o" d="M99.51,209.23a7.13,7.13,0,0,1,7.32.38c.64.44,0,1.5-.61,1a5.91,5.91,0,0,0-6.09-.38C99.44,210.65,98.82,209.6,99.51,209.23Z" transform="translate(-38.74 -16.93)"/><path class="k" d="M612.08,228.39c5-3.25,12.33-3.72,18.12-2,8.56,2.56,12.91,9.68,16.29,15.19,1.85,3,15.66,26.33,4.88,43.35a30.4,30.4,0,0,1-9.62,9.26c-6.21,4-15.93,7.38-22.67,5.26C600.07,293.5,593.75,240.29,612.08,228.39Z" transform="translate(-38.74 -16.93)"/><path class="j" d="M641.45,298.31c5.48,3.54,6.37,10.28,6.55,11.68,1.45,11-10.19,24.5-23.81,28.74-18.94,5.9-35.15-8.24-36.15-9.14l-10.83-.68a39.93,39.93,0,0,0-10.3,16.16c-3.39,10.51.3,15.75-3.81,20.58-5.58,6.55-21.13,7.18-28.84-1-4.77-5.08-4.63-11.93-4.51-19a57.61,57.61,0,0,1,8.06-27.91,68.32,68.32,0,0,1-3.24-26.7,17.14,17.14,0,0,1-12.07,3.37c-6-.76-11.15-5-12.43-9-2.64-8.11,8.23-21.27,28.05-31.31-10-1.49-17.2-10-17-19.23.12-7.85,5.51-15.06,13.45-17.76A41.66,41.66,0,0,1,544,195.41a41.23,41.23,0,0,1,16-11.54c.16-.33,2.87-5.89,9.12-6.64a11.64,11.64,0,0,1,10.71,4.65,31,31,0,0,1,11.17,2.26,30.44,30.44,0,0,1,7.85,4.68,10.27,10.27,0,1,1,17.67,10.46c1.67,3.94,3.31,8.09,4.88,12.46a228.84,228.84,0,0,1,7.1,23.67,142.26,142.26,0,0,1,17.86,13.48c10,8.87,11.09,12.36,11.46,13.85,2.11,8.55-2.64,20.83-10.93,22.12-6,.92-11.14-4.24-12.26-5.41a28,28,0,0,1,1.54,7.12,28.59,28.59,0,0,1-.84,9.7A13.39,13.39,0,0,1,641.45,298.31Z" transform="translate(-38.74 -16.93)"/><path class="o" d="M548.4,216.19l0-.05a.36.36,0,0,0,0-.11,3.88,3.88,0,0,0-.22-.46s0,0,0,0a3.29,3.29,0,0,0-.37-.43,2.1,2.1,0,0,0-.54-.4,2.14,2.14,0,0,0-.64-.23h-.06l-.52,0h-.18l-.52.1-.13,0-.06,0a4.91,4.91,0,0,0-.46.22l-.12.07a3.89,3.89,0,0,0-.43.38,2.62,2.62,0,0,0-.34.47l-.06.1a2.88,2.88,0,0,0-.2.56,1.17,1.17,0,0,0,0,.41,1.64,1.64,0,0,0,0,.22s0,.09,0,.13.06.35.1.51a.14.14,0,0,0,0,.07.14.14,0,0,1,0,.06c.07.15.14.31.22.46l.08.11c.1.13.21.26.32.38s0,0,0,0l.11.09a2.9,2.9,0,0,0,.58.38,5,5,0,0,0,.55.19,3.92,3.92,0,0,0,.59,0,.24.24,0,0,0,.12,0l.29,0a2.65,2.65,0,0,0,.3-.06,2.8,2.8,0,0,0,.52-.24.21.21,0,0,0,.1-.06,1.92,1.92,0,0,0,.22-.18,1.62,1.62,0,0,0,.2-.18.34.34,0,0,0,.08-.09,2.55,2.55,0,0,0,.36-.56,2.42,2.42,0,0,0,.21-.66,2.64,2.64,0,0,0,0-.7Z" transform="translate(-38.74 -16.93)"/><path class="o" d="M577.36,220.86c0-.17-.06-.35-.1-.51s0,0,0,0l0,0v0c-.06-.14-.13-.31-.2-.44l0-.07c-.05-.07-.12-.14-.17-.2l-.18-.21-.06-.05-.4-.28s0,0,0,0l-.07,0,0,0-.47-.17-.09,0h0l-.52,0h-.13l-.51.09a2.3,2.3,0,0,0-.57.26l-.08,0-.2.17-.21.18a.18.18,0,0,0,0,.07,2.86,2.86,0,0,0-.28.4l0,0,0,.07a4.43,4.43,0,0,0-.17.47l0,0s0,.06,0,.1,0,.34,0,.51v.06a.28.28,0,0,0,0,.09,4.17,4.17,0,0,0,.09.51s0,0,0,.05l0,.1c.07.15.14.3.22.45l0,0a3.54,3.54,0,0,0,.35.42l.08.07a1.29,1.29,0,0,0,.6.34,1.21,1.21,0,0,0,.37.11,1.71,1.71,0,0,0,.74.14h0a4.8,4.8,0,0,0,.5-.09l.1,0,.45-.21,0,0,.08-.06.38-.32,0,0,.06-.07a3.71,3.71,0,0,0,.28-.41l0,0a.36.36,0,0,0,0-.09c.07-.15.12-.31.18-.47s0,0,0,0a.36.36,0,0,0,0-.1,4.38,4.38,0,0,0,0-.51s0,0,0,0A.38.38,0,0,1,577.36,220.86Z" transform="translate(-38.74 -16.93)"/><path class="o" d="M545,226.23c-.17-.15-.52-.5-2.5-.7a14.84,14.84,0,0,0-4.89.16c-1.68.34-2.52.52-2.92,1.25a2.55,2.55,0,0,0,.65,3,4,4,0,0,0,2.64.67l2.45-.08c1.52-.05,3.54.2,4.67-1.06A2.32,2.32,0,0,0,545,226.23Z" transform="translate(-38.74 -16.93)"/><path class="o" d="M564.91,236.22a7.94,7.94,0,0,1-5.49,4.06,8,8,0,0,1-6.69-2,1.8,1.8,0,0,0-2.42,2.66,11.37,11.37,0,0,0,17.79-3.06C569.2,235.85,566,234.19,564.91,236.22Z" transform="translate(-38.74 -16.93)"/><path class="k" d="M638.59,288.14c.63-2.31-1.5-4.33-4.05-8.69,0,0,0-.05-2.69-5.4-4.09-8.21-4.53-18.21-4.7-21.92a71,71,0,0,1,1.26-16.72c.82-2.47.21-4.5-.87-4.93a2.1,2.1,0,0,0-1.88.37,73.51,73.51,0,0,0-2.53,16.87,71.05,71.05,0,0,0,2.19,20.19,55.47,55.47,0,0,0,3.09,9,53.77,53.77,0,0,0,8.56,13.4A4.19,4.19,0,0,0,638.59,288.14Z" transform="translate(-38.74 -16.93)"/><path class="o" d="M628.06,320.63a1,1,0,0,1-.59-.21.92.92,0,0,1-.13-1.31,31.18,31.18,0,0,0,7.08-18.85.9.9,0,0,1,1-.9.94.94,0,0,1,.9,1,33.1,33.1,0,0,1-7.5,20A.91.91,0,0,1,628.06,320.63Z" transform="translate(-38.74 -16.93)"/><path class="k" d="M531.3,293a1.79,1.79,0,0,0,1.63,1c1-.07,1.47-1.34,1.54-1.56a2.76,2.76,0,0,0,.1-1.41,101.77,101.77,0,0,1-.11-14,104,104,0,0,1,3.27-20.44c.06-.19.13-.46.21-.8.22-.95.33-1.43.18-1.74a1.74,1.74,0,0,0-2-.62c-.92.3-1.29,1.45-1.49,2.1-1.76,5.78-1.79,7.56-1.79,7.56a93.46,93.46,0,0,0-2.12,22.76C530.84,289,531.11,291.48,531.3,293Z" transform="translate(-38.74 -16.93)"/><path class="j" d="M637.31,291.16a4.21,4.21,0,0,1-3.54-2.27.7.7,0,1,1,1.21-.7c.78,1.36,2.18,1.85,2.95,1.44a1.74,1.74,0,0,0,.8-1.4c0-.35-.12-.61-.49-1.32a7.89,7.89,0,0,0-1-1.53.69.69,0,0,1,.06-1,.71.71,0,0,1,1,.07,9.92,9.92,0,0,1,1.22,1.79,4,4,0,0,1,.65,2,3.16,3.16,0,0,1-1.54,2.6A2.69,2.69,0,0,1,637.31,291.16Z" transform="translate(-38.74 -16.93)"/><path class="j" d="M636.38,283.79a.69.69,0,0,1-.6-.34l-.12-.2a.7.7,0,0,1,1.19-.73l.13.21a.71.71,0,0,1-.24,1A.68.68,0,0,1,636.38,283.79Z" transform="translate(-38.74 -16.93)"/><path class="j" d="M623.38,236.37h0a.69.69,0,0,1-.67-.72,8,8,0,0,1,1.33-4.36,3.53,3.53,0,0,1,1.56-1.36,3.15,3.15,0,0,1,2.66.15,3.36,3.36,0,0,1,1,4.2.7.7,0,1,1-1.28-.55,2,2,0,0,0-.48-2.46,1.84,1.84,0,0,0-1.41-.05,2.1,2.1,0,0,0-.93.87,6.77,6.77,0,0,0-1.09,3.61A.7.7,0,0,1,623.38,236.37Z" transform="translate(-38.74 -16.93)"/><path class="o" d="M571.42,181.48a14.66,14.66,0,0,0-8.23,1.18c-.74.34-.1,1.43.64,1.1a13,13,0,0,1,7.26-1C571.89,182.82,572.23,181.6,571.42,181.48Z" transform="translate(-38.74 -16.93)"/><path class="o" d="M575.49,181.77h-1.11a.65.65,0,0,0-.63.64.64.64,0,0,0,.63.63h1.11a.64.64,0,0,0,0-1.27Z" transform="translate(-38.74 -16.93)"/><path class="o" d="M615.52,191.65a7.41,7.41,0,0,0-7.64.39c-.67.46,0,1.56.64,1.1a6.17,6.17,0,0,1,6.36-.4C615.6,193.13,616.24,192,615.52,191.65Z" transform="translate(-38.74 -16.93)"/><path class="l" d="M564.77,328h-.13a38.3,38.3,0,0,1-9-2.45,37.35,37.35,0,0,1-7.43-4.09,1,1,0,0,1-.23-1.34,1,1,0,0,1,1.34-.23,35.63,35.63,0,0,0,15.57,6.21,1,1,0,0,1,.81,1.08A1,1,0,0,1,564.77,328Z" transform="translate(-38.74 -16.93)"/><path class="l" d="M569.27,329.1l-.19,0-.51-.1a1,1,0,0,1-.75-1.13.94.94,0,0,1,1.12-.75l.51.1a1,1,0,0,1-.18,1.9Z" transform="translate(-38.74 -16.93)"/></svg>