<?xml version="1.0" encoding="utf-8"?>
<!-- Generator: Adobe Illustrator 24.0.3, SVG Export Plug-In . SVG Version: 6.00 Build 0)  -->
<svg version="1.1" id="Layer_1" xmlns="http://www.w3.org/2000/svg" xmlns:xlink="http://www.w3.org/1999/xlink" x="0px" y="0px"
	 viewBox="0 0 1048 937" style="enable-background:new 0 0 1048 937;" xml:space="preserve">
<style type="text/css">
	.st0{fill:#FFFFFF;stroke:#2B2B2B;stroke-width:10;stroke-linecap:round;stroke-linejoin:round;}
	.st1{fill:#FB635E;}
	.st2{fill:#FFFFFF;}
	.st3{fill:#2B2B2B;}
	.st4{fill:#2B2B2B;stroke:#2B2B2B;stroke-width:7;stroke-miterlimit:10;}
</style>
<title>formbear</title>
<path class="st0" d="M997.1,901.3l-666,3c-14.2-51.4-19.6-104.8-15.9-157.9c-24.7,4.4-143.4,22.8-224-51.9
	c-14.2-13.1-72.8-67.5-57-124c6.2-22.1,24.1-45.6,49-54c36.7-12.4,64.7,15.8,114,31c33.4,10.2,83.4,16.6,153-4.1
	c-64.7-15.3-108.3-74.1-104.1-136c3.6-53.5,42.5-100.5,97-116c4.4-25.6,18.6-87.9,70.9-144c30.9-33,69.3-58.1,112-73
	c1.2-2.2,21.3-39,64-42c28.2-1.9,55.3,11.4,71,35c47.1,2.8,91.7,21.6,126.7,53.2C811,86.1,858.3,78.8,889,102.2
	c28,21.3,35.6,63.2,15,95c10.3,27.7,19.9,56.4,29,86C1001.9,508.4,1011.6,721.1,997.1,901.3z"/>
<path class="st1" d="M532.1,430c-2.1-3.4-8.2-3.2-9.1,1.2c-1.1,5.8-2.3,11.5-3.5,17.3c-1.5,0.9-3,1.9-4.5,3
	c-1.6-1.9-4.3-2.5-6.5-1.5l-6.7,3.3c-0.7-0.4-1.4-0.7-2.2-0.9c-2.4-0.6-5,0.2-6.6,2.2l-0.9-2.7c-1.5-4.5-8.4-5-9.6,0
	c-1.4,5.9-2.9,11.8-4.3,17.6c-1.5-0.8-3.3-0.7-4.6,0.4c-1.5,0.1-2.9,0.3-4.3,0.5c-1.9,0.1-3.5,1.6-3.6,3.5c-1.5-1-3-2.1-4.6-3.2
	c-2.1-1.5-4.4-2.7-6.8-3.5c-0.8-3-3.9-5.2-7-2.9l-4.9,3.5c-1,0.7-1.6,1.7-1.9,2.9l-15.1-3.9c-2.2-0.7-4.6,0.4-5.6,2.6
	c-3.3-3.8-5.3-8.6-5.8-13.6c-0.5-6.4-10.5-6.4-10,0c1,13.1,9.3,24.3,20.9,30.3c2.8,1.5,5.8,2.6,8.8,3.5c15,15.5,39.2,16,55.4,1.9
	c3.6,0,7.1-0.7,10.5-1.9c0.4-0.2,0.8-0.4,1.2-0.5c1.7,0.7,3.8,0.3,5-1.2c1-1.2,2.1-2.4,3.1-3.5c10.3-1.9,19.2-8.2,24.4-17.2
	C539.8,455.6,539.1,441.1,532.1,430z M525.3,459.5l0.2-0.1c-0.8,1.9-1.9,3.7-3.1,5.4C523.4,463.1,524.4,461.3,525.3,459.5
	L525.3,459.5z"/>
<path class="st2" d="M445.7,450.9l-3.7-3.5c-1.9-1.9-5-1.9-6.9,0c-0.3,0.3-0.6,0.7-0.9,1.2c-1.8-1.5-3.8-2.9-5.9-4.1
	c-2.1-1.3-4.8-0.8-6.2,1.2c-4.2-1.1-8.7,4.5-4.8,8.4l10.1,10c0.2,0.2,0.4,0.3,0.6,0.5c0.3,3.5,3.9,6.7,7.3,4.1l5.1-3.9
	c1.1-0.3,2-1,2.5-2c1.2-0.9,1.9-2.3,1.9-3.8l0.9-0.9C447.6,455.9,447.6,452.8,445.7,450.9z"/>
<path class="st2" d="M471.8,441.7c-1.5,1.4-2.4,3.4-2.4,5.5c-2.5-3.8-8.8-2.5-9.3,1.7c-4.2-3.4-10.2,3.2-6.3,7.8l9.8,11.5
	c2.1,2.5,5.1,1.8,6.9-0.1c1.2,0.4,2.5,0.5,3.6,0.1c3.6-1.1,4.6-4.5,4.8-7.9c0.1-2.2,0.1-4.5,0.2-6.7l0.1-3v-0.1
	c0.1-0.1,0.3-0.2,0.4-0.4C485.2,445,477.4,436.9,471.8,441.7z"/>
<path class="st1" d="M427.8,473.4c-3-2.5-5.7-5.3-8.1-8.4c-1.7-2.1-5.3-1.7-7.1,0c-2.1,2.1-1.7,4.9,0,7.1c2.4,3.1,5.1,5.8,8.1,8.4
	c2.1,1.7,5,2,7.1,0C429.6,478.7,429.9,475.1,427.8,473.4z"/>
<path class="st1" d="M524.9,446.1c-1.9-1.5-3.8-1.8-6.1-0.8c-4.8,2.3-9.1,5.2-13.1,8.8c-4.8,4.3,2.3,11.4,7.1,7.1
	c2.3-2,4.7-3.7,7.3-5.2c3.1,7.2-10.9,17.3-23,24.1c2.9-9,2.2-19.1-2.1-27.9c-2.8-5.8-11.5-0.7-8.6,5c5.2,10.5,2.4,23.3-6,31.2
	c-3.6,3.3,0.1,10,4.9,8.4c13.1-4.5,25.8-12.6,36.2-21.7C529.5,468.1,535.1,454.1,524.9,446.1z"/>
<path class="st2" d="M519,433.5c-1.4-7.7-12.5-5.3-17.6-3.5c-0.6,0.2-1.1,0.5-1.6,0.9c-2.5,0.2-5,0.6-7.4,1.3
	c-0.8,0.2-1.6,0.7-2.2,1.4c-4.5,1.2-3.8,9.2,1.9,9.9c2,0.2,4,0.6,6,1.2c0.3,3.3,4.5,5.3,7.6,3.7C510.6,445.9,520.2,440.3,519,433.5z
	"/>
<path class="st3" d="M599,320c-0.6-7.4-6.8-12.5-14.2-12.4c-7.1,0.1-13.3,5.4-13.7,12.6c-0.4,6.8,4.3,13.6,11.1,15.1
	c1,0.2,2.1,0.1,3.1-0.3c1,0.4,2.2,0.5,3.2,0.1C595.1,333.2,599.5,326.9,599,320z"/>
<path class="st3" d="M415.1,277.9c-2.9-6.4-10-9.7-16.7-7.9c-1.6,1.1-3.3,2.1-5,2.9c-4.6,4.7-5.4,11.9-2,17.5
	c3.7,6,11.2,7.6,17.4,4.5S418,284.4,415.1,277.9z"/>
<path class="st3" d="M427.7,355.1c-2.3-4.2-5.8-7.3-9.6-9.8c-4.4-4.6-10.5-7.9-16.6-10.5c-0.5-0.5-1.1-0.9-1.8-1.1
	c-8.7-3.2-17.8-5.3-27.1-6.3c-8.2-0.9-17.5-1.5-25.5,1.2c-7.1,2.4-13.5,7.7-15,15.3c-1.4,7.1,2.1,13.9,7.1,18.7
	c6,5.8,14,9.6,21.6,12.8c8.3,3.6,17,6.3,25.8,8c12.5,2.4,30.4,5.2,39.9-5.8C431.9,371.2,431.7,362.2,427.7,355.1z"/>
<path class="st3" d="M538.5,428.8c-8.8-8.9-22.2-9.8-33.7-6.9c-15.1,3.8-29.6,11.8-43.8,17.9c-0.8,0.6-1.7,1-2.6,1.4
	c-3.8,2.4-8.6,2.9-12.9,1.2c-0.6-0.2-1.2-0.3-1.8-0.3c-11.2-3.5-23.2-6.1-34.2-0.9c-9.8,4.6-16,14.7-13.3,25.6
	c2.7,11.1,12.5,19.2,21.7,25c31.8,19.9,72.7,17.9,102.4-5.2C536,474.6,557,447.5,538.5,428.8z M517.8,430.4c-2,6-4.9,12.5-11.1,14.5
	c-6.6,2-12.9-2-18-6.2c2.6-1.1,5.3-2.3,8-3.4C503.4,432.5,510.6,430,517.8,430.4L517.8,430.4z M463.4,449.8c0.4-0.3,0.8-0.6,1.1-1
	c0.5-0.1,1-0.2,1.5-0.4c4-1.7,7.9-3.5,11.9-5.2c0.8,7.1,1.3,16.1-4.9,20.6c-7.9,5.6-14.5-4.4-17.4-10.9
	C458.4,452.3,461,451.3,463.4,449.8z M443.9,452.6c0.5,0.2,1,0.2,1.5,0.2c0,0.1,0,0.1,0,0.2c-0.8,6.2-7.4,11.5-13.6,10.6
	c-6.6-1-10.6-7.7-10.2-14c0-0.5,0-0.9-0.1-1.4C428.9,447.6,437,450.4,443.9,452.6L443.9,452.6z M534.6,451.9
	c-2.4,9.1-8.7,16.5-15.5,22.8c-28.3,26-75.9,28.5-104.9,1.9c-7.2-6.6-13.2-17.7-3.2-24.8c0.1-0.1,0.3-0.2,0.5-0.3
	c0.2,11,9,21.2,20.2,22.1c7.6,0.5,14.9-3,19.2-9.3c5.5,7.9,13.5,13.7,23.7,9.9s13.3-13.9,13.6-23.9c6.4,4,13.6,6.4,21.2,4.1
	c10.1-3,14.8-12.3,18.1-21.5C534.2,436.7,536.7,444.1,534.6,451.9L534.6,451.9z"/>
<path class="st4" d="M426.5,202.9h-18.9c-6.4,0-6.5,10,0,10h18.9C432.9,212.9,432.9,202.9,426.5,202.9z"/>
<path class="st3" d="M604.8,60.5c-22-3.2-44.5,0-64.8,9.3c-5.8,2.7-0.8,11.3,5,8.6c17.8-8.1,37.6-11,57.1-8.3
	C608.4,71.1,611.1,61.4,604.8,60.5z"/>
<path class="st3" d="M629.8,61.8h-8.7c-2.8,0-5,2.2-5,5s2.2,5,5,5h8.7c2.8,0,5-2.2,5-5S632.5,61.8,629.8,61.8z"/>
<path class="st3" d="M898.6,147c-18.9-10.1-42.4-9.1-60.1,3.1c-5.3,3.6-0.3,12.3,5,8.6c14.8-10.3,34.1-11.5,50-3.1
	C899.2,158.6,904.3,150,898.6,147z"/>
<path class="st4" d="M614.2,235l-19.5-6.8c-6.1-2.1-8.7,7.5-2.7,9.6l19.5,6.8C617.7,246.8,620.3,237.1,614.2,235z"/>
<path class="st3" d="M129.8,566.2c-9.8-3.7-22.5-6.7-33.4-4.4c-4.6,0-9.5,1.8-12.4,4.5c-0.1,0.1-0.2,0.2-0.2,0.3
	c-0.5,0.4-1,1-1.3,1.7c-7.2,15.1-14.9,34.2-3.9,49.6c8.2,11.4,21.1,12.3,32.9,8.5c1.8-0.3,3.5-0.8,5.2-1.4c6.9-2.6,12.8-7,18.3-11.8
	c5.2-4.5,10.3-9.7,12.8-16.3C153,582.7,142.2,570.9,129.8,566.2z"/>
<path class="st3" d="M149.9,544c-2.4-5.6-9.3-8.9-14.9-5.8c-3,1.8-4.8,5.2-4.6,8.7c0,0.2,0,0.4-0.1,0.6l0,0c0,0.1,0,0.1,0,0.2
	c-0.2,2.2,0.2,4.3,1.1,6.3c0.6,1.5,1.5,2.7,2.8,3.7c0.5,0.5,1,1,1.6,1.5c1.3,1.1,2.9,1.6,4.6,1.3c1.7,0.4,3.4,0.2,5-0.5
	C151.2,557.3,152.2,549.3,149.9,544z"/>
<path class="st3" d="M107.5,530.6c-0.3-0.6-0.7-1.1-1.3-1.5c-0.9-1.5-2.5-2.3-4.2-2.3c-1.8,0.1-3.5,1.1-4.4,2.7
	c-2.6,1.5-4.5,3.9-5.4,6.8c-1.3,4.2,0.7,8.7,4.7,10.6c4,1.8,8.3-0.3,10.5-3.9C109.7,539,109.3,534.4,107.5,530.6z"/>
<path class="st3" d="M68.4,547.6c-1.9-2.2-5.1-2.9-7.8-1.8c-1.8,0.8-3.2,2.3-3.9,4.2c-0.7,0.9-1.1,1.9-1.1,3.1v0.8
	c-0.2,0.6-0.4,1.2-0.4,1.9c-0.1,0.9,0,1.9,0.2,2.8c0,0.2,0,0.4-0.1,0.7c-0.3,2.7,2.5,5,5,5c0.3,0,0.5,0,0.8-0.1
	c2,0.3,4.1-0.2,5.7-1.5c2.2-1.7,3.1-4.2,3.5-6.9C70.6,552.9,70.5,549.9,68.4,547.6z"/>
<path class="st3" d="M59.3,582.9c0-2.5-1.4-4.7-3.6-5.9c-2.3-1.1-5-1-7.2,0.4c-1.8,1.1-3.1,3-3.5,5.1c-1.8,3-0.9,6.8,2,8.8
	c1.2,1.4,3.1,2,4.9,1.4c0.7-0.2,1.3-0.6,1.9-1.1C57,589.9,59.1,586.6,59.3,582.9z"/>
<path class="st3" d="M771.3,673.3v159.1c0,6.4,10,6.5,10,0V673.3C781.3,666.9,771.3,666.9,771.3,673.3z"/>
<path class="st3" d="M780.2,598.7c-6.4,0-6.5,10,0,10S786.7,598.7,780.2,598.7z"/>
<path class="st3" d="M351.6,561.5c-11.9,25-19.2,52-21.7,79.5c-0.6,6.4,9.4,6.4,10,0c2.4-25.8,9.3-51.1,20.4-74.5
	C362.9,560.7,354.3,555.6,351.6,561.5z"/>
<path class="st3" d="M322.8,719c-6.4,0-6.5,10,0,10S329.2,719,322.8,719z"/>
<path class="st3" d="M333.1,655.5c-2.4-0.7-5.7,0.8-6.1,3.5l-1.6,10.2c-0.4,2.7,0.7,5.4,3.5,6.2c2.4,0.7,5.7-0.8,6.1-3.5
	c0.5-3.4,1-6.8,1.6-10.2C337,659,336,656.3,333.1,655.5z"/>
</svg>
