<svg id="Layer_1" data-name="Layer 1" xmlns="http://www.w3.org/2000/svg" viewBox="0 0 1200 710"><defs><style>.cls-1{fill:#33536d;}.cls-2{fill:#fff;}.cls-3{fill:#e1f4ff;}.cls-4{fill:#2b2b2b;}.cls-5{fill:#fb635e;}.cls-6{fill:#367bc6;}.cls-7{fill:#fdbc40;}</style></defs><title>formbears</title><path class="cls-1" d="M1164.8,406.25a33.34,33.34,0,0,1,21.2,29.14,33.93,33.93,0,0,1-29.69,33.29c1.11,55.72-16.15,101.78-44.4,111-11,3.65-25.44,2.25-48.09,0s-34.56-3.48-40.71-11.07c-7.8-9.67-2.29-20.27-3.69-51.82a256.42,256.42,0,0,0-3.69-33.29l-33.29-3.69a120,120,0,0,1,3.69,37c-.89,15.56-2.29,39.48-18.49,51.82-7.59,5.77-18.75,6.36-40.71,7.38-32.06,1.49-48.09,2.21-55.47-3.69-14.51-11.62-8-33.93-7.43-92.49.26-27.57-.89-49.87-1.86-63.62-15.9-.89-24.6-6.14-29.69-11.06-24.59-24.3-10.51-89.44,38.17-161.62A58.78,58.78,0,0,1,867.43,129a126.46,126.46,0,0,1,83.25-98.77,37.59,37.59,0,0,1,29.09-19.12A35.77,35.77,0,0,1,1012.08,27,95.41,95.41,0,0,1,1046,35.47,94.39,94.39,0,0,1,1069.55,51a31.72,31.72,0,0,1,54.24,32.9c-.41.68-.85,1.35-1.32,2q7,18.91,13.19,39.1A752.57,752.57,0,0,1,1164.8,406.25Z"/><path class="cls-2" d="M914.29,123.43a3.42,3.42,0,0,0-.26-1.61h0s-.38-1-.59-1.44l-.21-.34-.93-1.23h0a14.37,14.37,0,0,0-1.4-1.1h-.3A11.51,11.51,0,0,0,909,117h-.43a14,14,0,0,0-1.82-.25h-2.29a1.55,1.55,0,0,0-.43,0,11.26,11.26,0,0,0-1.69.68,6.68,6.68,0,0,0-.85.63,5.47,5.47,0,0,0-.89.77,4.17,4.17,0,0,0-.93,1.31,3.37,3.37,0,0,0-.34.43c-.22.55-.51,1.1-.68,1.65h0v2a14,14,0,0,0,.25,1.82v.38a12.74,12.74,0,0,0,.72,1.7,1.93,1.93,0,0,0,0,.34,11.37,11.37,0,0,0,1.11,1.4l.25.25,1.27,1h0a7.14,7.14,0,0,0,2,.84H907a5.15,5.15,0,0,0,1.11,0h0l1.48-.63h.34l1.23-.93h0l.3-.26a11.61,11.61,0,0,0,1.06-1.44,1.94,1.94,0,0,0,.21-.34,11.37,11.37,0,0,0,.68-1.7v-.38a4.36,4.36,0,0,1,.21-1.61v-.59Z"/><path class="cls-2" d="M1002.58,138.49a9.37,9.37,0,0,0-.63-1.62v-.33a7.64,7.64,0,0,0-1.32-1.57,6.88,6.88,0,0,0-1.69-1.19,10.47,10.47,0,0,0-1.62-.68,5.06,5.06,0,0,0-1.1,0,5.06,5.06,0,0,0-1.1,0,13.82,13.82,0,0,0-1.82,0,7,7,0,0,0-2,.76H991l-1.23,1h0a3.49,3.49,0,0,0-.76,1l-.34.38a8.12,8.12,0,0,0-.81,1.95,4.12,4.12,0,0,1-.25,1.74v2.5a8.19,8.19,0,0,0,.89,1.95c.32.47.66.92,1,1.36l.3.25,1.18,1h.3a11.68,11.68,0,0,0,1.61.63,8.23,8.23,0,0,0,1.78.26h2.21a10.78,10.78,0,0,0,1.61-.68h.38a12.63,12.63,0,0,0,1.66-1.36l.93-1.23h0l.21-.34a14,14,0,0,0,.68-1.65,15.92,15.92,0,0,0,.25-1.82v-.34A8,8,0,0,0,1002.58,138.49Z"/><path class="cls-2" d="M898.85,154.86a5.48,5.48,0,0,0-3.31-2.55l-13.4-2.25a6,6,0,0,0-4.24.55,6.88,6.88,0,0,0-1.23,1,5.56,5.56,0,0,0,2,10.77l15.44.85a5.47,5.47,0,0,0,5.43-4.79A5.26,5.26,0,0,0,898.85,154.86Z"/><path class="cls-2" d="M951.48,183.44a5.65,5.65,0,0,0-7.59,2c-.42.77-.85,1.49-1.31,2.21l-.73,1h0a37.06,37.06,0,0,1-3.56,3.64l-.76.64c.72-.64,0,0-.3.21s-1.4,1-2.12,1.44l-2.25,1.23-1.14.55h-.26a32.31,32.31,0,0,1-4.62,1.49,13.88,13.88,0,0,0-2.5.51h-1.53a39.3,39.3,0,0,1-5.09,0h-1.1a10.36,10.36,0,0,1-2.71-.68,5.55,5.55,0,1,0-3.6,10.51,5.79,5.79,0,0,0,.63.18A38.17,38.17,0,0,0,954,190.69,5.63,5.63,0,0,0,951.48,183.44Z"/><path class="cls-2" d="M1069,259.05c-19.51,3.65-37.78-6.4-54.41-15.22-14.33-7.64-31.21-17.22-48.09-14.08-15.27,2.88-22.14,17.39-21.2,31.8a64.37,64.37,0,0,0,19,39.15,71.09,71.09,0,0,0,44.1,20.95c4.75.42,4.71-7,0-7.38-26.29-2.42-51.78-23.79-55.47-50.6a28.25,28.25,0,0,1,3.18-19.12,19.88,19.88,0,0,1,18.83-7.89c16.07,1,30.79,11.11,44.7,18.28,15.86,8.18,33.08,14.63,51.19,11.28C1075.61,265.33,1073.62,258.21,1069,259.05Z"/><path class="cls-3" d="M157.93,516.39a33.38,33.38,0,0,0-21,29.18,33.94,33.94,0,0,0,29.69,33.29c-1.11,55.72,16.11,101.78,44.4,111,11,3.6,25.44,2.2,48.09,0s34.52-3.52,40.67-11.11c7.84-9.67,2.33-20.27,3.69-51.78a246.44,246.44,0,0,1,3.73-33.29l33.29-3.74a118.81,118.81,0,0,0-3.69,37c.89,15.52,2.29,39.44,18.49,51.78,7.55,5.77,18.7,6.4,40.67,7.42,32.11,1.44,48.14,2.2,55.51-3.73,14.93-12,8.49-35.75,7.38-92.5-.46-30.49.89-55.51,2.17-72.09a208.71,208.71,0,0,0,6.82-37.28,212.15,212.15,0,0,0,.43-34.56c11.24,2,65.22,10.39,101.78-23.62,6.44-6,33.16-30.71,26-56.41a36.87,36.87,0,0,0-22.26-24.59c-16.67-5.64-29.43,7.21-51.87,14.08-15.22,4.66-37.95,7.55-69.63-1.83a58.78,58.78,0,0,0,3.22-114.5,126.71,126.71,0,0,0-83.2-98.77,37.92,37.92,0,0,0-29.14-19.12,35.94,35.94,0,0,0-32.31,15.9,94.9,94.9,0,0,0-57.64,24.21,31.72,31.72,0,1,0-54.24,32.91c.41.68.85,1.35,1.32,2-4.71,12.25-9.16,25.44-13.24,39.14A520.52,520.52,0,0,0,166.5,360.83a147.8,147.8,0,0,1-22.22,3.69c-31.89,2.76-43.9-7-55.47,0-13.11,7.93-16.58,31.77-11.11,48.1,8.48,25.44,41.77,42.4,81.38,37a184.21,184.21,0,0,0-3.69,40.71A179.66,179.66,0,0,0,157.93,516.39Z"/><path class="cls-1" d="M326.13,253v-1.44a11.13,11.13,0,0,0-.81-2h0a14.07,14.07,0,0,0-1.19-1.57l-.25-.26-1.53-1.14h0a12.93,12.93,0,0,0-2-.85h-.34a10.34,10.34,0,0,0-2.54-.26l-1.95.26H315l-1.82.72h0l-.34.21A17.19,17.19,0,0,0,311.2,248l-.34.26-.3.34-1.19,1.53h0a11.82,11.82,0,0,0-1,2.37h0a14.85,14.85,0,0,0-.26,2,1.27,1.27,0,0,0,0,.39,15.44,15.44,0,0,0,.26,2h0c.24.69.53,1.37.84,2a5.1,5.1,0,0,0,1.79,1.9h0a6.43,6.43,0,0,0,1.86,1.74c.68.26,1.32.6,2,.81a10,10,0,0,0,2.17.3h.34a12.08,12.08,0,0,0,2.16-.3h.38c.55-.21,1.19-.47,1.78-.76h0a11.18,11.18,0,0,0,2-1.49l.25-.25h0l1.19-1.53.38-.68.76-1.78h0v-.42a18.31,18.31,0,0,1,.3-2.12V254C326.13,253.75,326.13,253.37,326.13,253Z"/><path class="cls-1" d="M435.79,233.18a5,5,0,0,0-.25-1.9v-.55a4.89,4.89,0,0,0-.72-1.7v-.26l-.3-.46a10.08,10.08,0,0,0-3.14-3.06,2.17,2.17,0,0,0-.55-.33,12.44,12.44,0,0,0-2-.85,10.74,10.74,0,0,0-2.25-.34H426A16.25,16.25,0,0,0,424,224h-.63l-1.78.77h0l-.47.29a12.32,12.32,0,0,0-1.61,1.27,8.48,8.48,0,0,0-1.53,2.13,9.36,9.36,0,0,0-1,2.41,11.84,11.84,0,0,0-.26,2.72,18.88,18.88,0,0,0,.26,2.12v.51a9,9,0,0,0,1.1,2.37A9.11,9.11,0,0,0,421,241.5l.46.25,1.66.72h.5a14.75,14.75,0,0,0,1.87.26h.55l2.16-.26h.56a14.41,14.41,0,0,0,1.9-.8,1.53,1.53,0,0,0,.51-.3,8.55,8.55,0,0,0,2-1.7,14.28,14.28,0,0,0,1.27-1.61,11.28,11.28,0,0,0,.85-1.95,8.38,8.38,0,0,0,.47-2.67Z"/><path class="cls-1" d="M443.77,269.15v-.39a5.69,5.69,0,0,0-5.56-5.55H428.8c-3,0-6.07-.26-9,0a11.42,11.42,0,0,0-9.88,5.64,8.94,8.94,0,0,0,3.22,11.7,16.22,16.22,0,0,0,10.1,1.87l9.33-.25a12.73,12.73,0,0,0,10.09-3.91A8.69,8.69,0,0,0,443.77,269.15Z"/><path class="cls-1" d="M563.19,374.91a11.36,11.36,0,0,0-10.22-5.3,12.73,12.73,0,0,0-10.22-1.27,13.08,13.08,0,0,0-8.48,8.23,14.59,14.59,0,0,0,1.06,11.53,15.19,15.19,0,0,0,9,7.21,16.4,16.4,0,0,0,19.8-8.48A12.72,12.72,0,0,0,563.19,374.91Z"/><path class="cls-4" d="M556.23,353.16a4.15,4.15,0,0,0-1-1.87,4,4,0,0,0-1.57-1.44l-1.32-.55a2.17,2.17,0,0,0-.72,0,.37.37,0,0,0-.29-.34,4.32,4.32,0,0,0-1.87-1,3.92,3.92,0,0,0-2.2,0,4.38,4.38,0,0,0-2.08.68l-1.15.85a5.87,5.87,0,0,0-1.4,2.46,3.67,3.67,0,0,1-.21,1.49,5.37,5.37,0,0,0,.76,2.79L545,359.9a5.55,5.55,0,0,0,4.8,2.76,5.48,5.48,0,0,0,2.79-.77,5.86,5.86,0,0,0,2-2l1.14-2.25a4.14,4.14,0,0,0,.68-2.07A3.93,3.93,0,0,0,556.23,353.16Z"/><path class="cls-4" d="M585.5,359a4.34,4.34,0,0,0-.68-2l-.85-1.14a5.42,5.42,0,0,0-2.12-1.27h0a5.44,5.44,0,0,0-2.8-.77l-1.48.22a5.24,5.24,0,0,0-2.42,1.4l-2.46,2.41a4.82,4.82,0,0,0-1.15,1.83,3.9,3.9,0,0,0-.46,2.12v1.48a4.25,4.25,0,0,0,1,1.87,2.93,2.93,0,0,0,1,1,4.25,4.25,0,0,0,1.87,1h1.48a5.31,5.31,0,0,0,2.8-.76l3.52-1.91a4.71,4.71,0,0,0,1.57-1.44,4.24,4.24,0,0,0,1-1.91A3.89,3.89,0,0,0,585.5,359Z"/><path class="cls-4" d="M588.25,371.73l-.89-1.1a5.34,5.34,0,0,0-2.46-1.44l-3.56-.64a4,4,0,0,0-2.21,0,4,4,0,0,0-2.07.64,4.52,4.52,0,0,0-1.57,1.44,4.27,4.27,0,0,0-1,1.87,3.62,3.62,0,0,1-.21,1.48,5.4,5.4,0,0,0,.76,2.8l.89,1.14a5.29,5.29,0,0,0,2.42,1.4L582,380a4.11,4.11,0,0,0,2.2,0,5.05,5.05,0,0,0,3.61-2.08,4.27,4.27,0,0,0,1-1.9,3.61,3.61,0,0,1,.22-1.49A6.12,6.12,0,0,0,588.25,371.73Z"/><path class="cls-5" d="M404.28,311.68l-46.65-5.38c-7.93-.89-14.8,7.46-14.8,14.8a13.66,13.66,0,0,0,3.78,9.62,14.16,14.16,0,0,0,6.7,10.48c19.55,12.72,43.55,9.8,61.36-4.24C426.08,328,415.18,312.91,404.28,311.68Z"/><path class="cls-2" d="M416.71,318.76l-4.24-3.47a3.85,3.85,0,0,0-4.5-.3,32.48,32.48,0,0,0-12.13-2.76,21.44,21.44,0,0,0-5.21.94,20.54,20.54,0,0,0-4.54-1.32c-.81-.72-1.53-1.31-1.82-1.53a26.93,26.93,0,0,0-7.38-3.26,26,26,0,0,0-16,.68,4,4,0,0,0-1.14.68,7.08,7.08,0,1,0-8.71,11.16,6.17,6.17,0,0,0,.86.58,9.13,9.13,0,0,0,8.18-.29c2.85-1.45,4.54-4.25,7.17-5.94h0a18.54,18.54,0,0,1,7,.34,3.24,3.24,0,0,0,0,3.56,11.57,11.57,0,0,0,12.93,4.24,6.12,6.12,0,0,0,6.45-.55,3.83,3.83,0,0,0,1.14-1.23,15,15,0,0,1,6.41.72c4,1.23,7.89,2.84,11.79,4.24S419.42,321.05,416.71,318.76Z"/><path class="cls-1" d="M425.06,320a3.84,3.84,0,0,0-.76-1.91,3.3,3.3,0,0,0-1.57-4.4,3.4,3.4,0,0,0-.8-.26c-17-3.69-33.93-8-50.89-11a30,30,0,0,0-20.87,2,22.46,22.46,0,0,0-9.67,12.72,27.31,27.31,0,0,0,12.38,30.62c12.39,8.1,27.95,7.12,41.52,2.92S426.72,337.81,425.06,320Zm-9.88.89h0l-.63.38-.68.39h0l-1.44.42a1.54,1.54,0,0,1-.43,0h-1.61l-1.14-.3h0l-.56-.29-.63-.43h0a14.39,14.39,0,0,1-1.15-1.19h0a4.16,4.16,0,0,1-.46-.76l-.38-.63h0l-.26-1,10.77,2.38Zm-19.55-5.47a10.48,10.48,0,0,1-3.64,3.27,9.43,9.43,0,0,1-7.38.42,13.53,13.53,0,0,1-7.34-7.72Zm-40.07-5.13a21.21,21.21,0,0,1,12-.89,14.08,14.08,0,0,1-2.8,5.26,10.13,10.13,0,0,1-5.86,3.48h-3.05l-1.53-.43h-.38l-.76-.42-.55-.38-.38-.3-.72-.76h0a10.73,10.73,0,0,1-.9-1.49,12.85,12.85,0,0,1,4.84-4.24ZM395.25,343c-11.2,3.82-24,6-35.11.6a21.21,21.21,0,0,1-12.73-21.93,14.57,14.57,0,0,0,1.95,1.57,14.84,14.84,0,0,0,10.86,2.08,17.62,17.62,0,0,0,12-8.48,18.85,18.85,0,0,0,11.49,9.5,16.6,16.6,0,0,0,15.86-4.24,13.62,13.62,0,0,0,7.64,6.87,12.71,12.71,0,0,0,9.24-.34c-4,7.29-13.48,11.53-21.29,14.2Z"/><path class="cls-1" d="M107.34,393.83a11.48,11.48,0,0,1,10.26-5.26,12.43,12.43,0,0,1,10.22-1.32,13.3,13.3,0,0,1,8.48,8.23A14.79,14.79,0,0,1,135.24,407a15.29,15.29,0,0,1-9.07,7.21,16.33,16.33,0,0,1-19.76-8.49A12.72,12.72,0,0,1,107.34,393.83Z"/><path class="cls-4" d="M114.29,372.07a4.25,4.25,0,0,1,1-1.86,4.34,4.34,0,0,1,1.53-1.45l1.36-.55h.67a.38.38,0,0,1,.3-.34,4.56,4.56,0,0,1,1.91-1,7.23,7.23,0,0,1,4.24.63l1.15.89a5.92,5.92,0,0,1,1.44,2.42v1.49a5.35,5.35,0,0,1-.77,2.8c-.55,1.23-1.14,2.41-1.69,3.64a6,6,0,0,1-2,2,5.54,5.54,0,0,1-7.59-2l-1.18-2.24a4.26,4.26,0,0,1-.64-2A4.55,4.55,0,0,1,114.29,372.07Z"/><path class="cls-4" d="M85.08,377.92a4.12,4.12,0,0,1,.63-2.07l.89-1.15a5.75,5.75,0,0,1,2.12-1.27h0a5.53,5.53,0,0,1,2.8-.76l1.49.21a5.45,5.45,0,0,1,2.46,1.44l2.41,2.42a6,6,0,0,1,1.61,3.9v1.48a3.86,3.86,0,0,1-1,1.87,2.47,2.47,0,0,1-1,1,4.56,4.56,0,0,1-1.91,1H94.15a5.31,5.31,0,0,1-2.8-.76l-3.56-1.91a4.23,4.23,0,0,1-1.53-1.44,4,4,0,0,1-1-1.87A4.3,4.3,0,0,1,85.08,377.92Z"/><path class="cls-4" d="M82.32,390.77l.85-1.14a6.25,6.25,0,0,1,2.46-1.44l3.6-.64a4.36,4.36,0,0,1,2.21,0,4.91,4.91,0,0,1,3.6,2.08,4,4,0,0,1,1,1.91V393a5.4,5.4,0,0,1-.76,2.8l-.85,1.14a5.42,5.42,0,0,1-2.46,1.4l-3.56.68a4.51,4.51,0,0,1-2.25,0,4.24,4.24,0,0,1-2-.63,4.74,4.74,0,0,1-1.57-1.45,4.21,4.21,0,0,1-1-1.9,3.48,3.48,0,0,0-.21-1.45A5.32,5.32,0,0,1,82.32,390.77Z"/><rect class="cls-6" x="556.09" y="311.16" width="108.35" height="81.38" transform="translate(-93.72 326.83) rotate(-27.93)"/><rect class="cls-5" x="524.52" y="285.05" width="108.35" height="81.38" transform="translate(-25.23 601.92) rotate(-53.95)"/><rect class="cls-7" x="39.7" y="304.6" width="81.38" height="108.35" transform="translate(-230.15 161.93) rotate(-45)"/><path class="cls-1" d="M455.81,370.33a3.69,3.69,0,0,0-6.36,3.73A100.47,100.47,0,0,1,463,424.4a3.73,3.73,0,0,0,7.42,0A108.57,108.57,0,0,0,455.81,370.33Z"/><path class="cls-1" d="M427.91,540.77a99.1,99.1,0,0,1-64,39.78c-4.67.81-2.72,7.93,1.95,7.17a106.5,106.5,0,0,0,68.45-43.21C437,540.6,430.58,537.13,427.91,540.77Z"/><path class="cls-2" d="M872.47,262.23q-1.9,34.44-3.86,68.83c-.25,4.75,7.17,4.75,7.43,0l3.81-68.83C880.15,257.48,872.73,257.48,872.47,262.23Z"/><path class="cls-2" d="M936.55,452.31a52,52,0,0,1-40.33-32.61,3.7,3.7,0,1,0-7.12,2,59.34,59.34,0,0,0,45.5,37.74,3.77,3.77,0,0,0,4.54-2.58,3.7,3.7,0,0,0-2.58-4.54Z"/></svg>