<svg xmlns="http://www.w3.org/2000/svg" viewBox="0 0 2650 2300"><defs><style>.cls-1{fill:#34c84a;}.cls-2{fill:#e0e0e0;}.cls-3{isolation:isolate;}.cls-4{fill:#a2d7f2;}.cls-5{fill:#6caad8;}.cls-6{fill:#367bc6;}.cls-7{fill:#fdbc40;}.cls-8{fill:#9a5ff9;}.cls-9{fill:#fb635e;}.cls-10{fill:#fff;}.cls-11{fill:#aee0fc;}</style></defs><title>screen1</title><g id="Layer_5" data-name="Layer 5"><ellipse class="cls-1" cx="164.52" cy="645.79" rx="17" ry="8.95" transform="translate(-501.81 657.06) rotate(-76.68)"/><polygon class="cls-2" points="316.25 942.72 316.65 949.52 307.42 955.73 307.02 948.92 316.25 942.72"/><polygon class="cls-2" points="318.11 974.27 318.51 981.07 309.28 987.28 308.88 980.47 318.11 974.27"/><polygon class="cls-2" points="408.24 945.18 408.64 951.99 391.87 963.26 391.47 956.46 408.24 945.18"/><g class="cls-3"><polygon class="cls-2" points="406.46 914.86 406.86 921.66 390.09 932.94 389.69 926.14 406.46 914.86"/><polygon class="cls-2" points="404.6 883.31 405 890.11 388.23 901.39 387.83 894.59 404.6 883.31"/><polygon class="cls-2" points="405.59 900.02 405.99 906.82 351.74 943.29 351.34 936.49 405.59 900.02"/><polygon class="cls-2" points="403.73 868.47 404.13 875.27 349.88 911.74 349.48 904.94 403.73 868.47"/><polygon class="cls-2" points="389.23 957.96 389.63 964.77 323.37 1009.33 322.97 1002.52 389.23 957.96"/><polygon class="cls-4" points="391.84 754.67 393.46 782.2 376.86 793.36 375.24 765.83 391.84 754.67"/><polygon class="cls-2" points="387.45 927.64 387.85 934.45 321.58 979 321.18 972.2 387.45 927.64"/><polygon class="cls-2" points="319.89 1004.59 320.29 1011.39 311.06 1017.6 310.66 1010.79 319.89 1004.59"/><polygon class="cls-2" points="350.05 968.87 350.45 975.68 310.19 1002.75 309.79 995.94 350.05 968.87"/><polygon class="cls-5" points="369.29 769.74 370.91 797.27 354.31 808.43 352.69 780.9 369.29 769.74"/><polygon class="cls-2" points="348.26 938.56 348.67 945.36 308.4 972.43 308 965.63 348.26 938.56"/><polygon class="cls-2" points="346.41 907.01 346.81 913.81 306.55 940.88 306.15 934.08 346.41 907.01"/><polygon class="cls-2" points="353.1 877.45 353.93 891.51 304.73 924.59 303.9 910.53 353.1 877.45"/><polygon class="cls-6" points="346.2 785.26 347.82 812.79 331.23 823.95 329.61 796.42 346.2 785.26"/><polygon class="cls-2" points="285.44 1072.79 285.94 1081.35 257.09 1100.75 256.59 1092.19 285.44 1072.79"/><polygon class="cls-2" points="280.86 994.93 281.36 1003.5 252.51 1022.9 252 1014.33 280.86 994.93"/><polygon class="cls-2" points="283.2 1034.64 283.7 1043.2 213.97 1090.08 213.47 1081.52 283.2 1034.64"/><polygon class="cls-2" points="287.02 1091.15 287.52 1099.71 194.24 1162.43 193.74 1153.88 287.02 1091.15"/><polygon class="cls-7" points="268.93 856.79 269.64 868.83 251.03 881.35 250.32 869.3 268.93 856.79"/><polygon class="cls-2" points="282.1 1015.95 282.6 1024.52 189.32 1087.24 188.81 1078.67 282.1 1015.95"/><polygon class="cls-2" points="207.7 1085.4 208.21 1093.96 137.04 1141.81 136.54 1133.25 207.7 1085.4"/><polygon class="cls-2" points="188.45 1157.43 188.96 1165.99 119.71 1212.54 119.21 1203.98 188.45 1157.43"/><polygon class="cls-2" points="133.49 1174.95 134 1183.52 118.13 1194.19 117.63 1185.62 133.49 1174.95"/><polygon class="cls-2" points="248.16 1016.92 248.66 1025.48 134.71 1102.11 134.2 1093.54 248.16 1016.92"/><polygon class="cls-8" points="210.19 917.85 210.9 929.91 165.83 960.21 165.12 948.16 210.19 917.85"/><polygon class="cls-2" points="131.25 1136.81 131.75 1145.37 115.89 1156.03 115.38 1147.47 131.25 1136.81"/><polygon class="cls-9" points="188.71 910.72 189.42 922.77 164.6 939.45 163.9 927.41 188.71 910.72"/><polygon class="cls-2" points="183.52 1082.23 184.03 1090.8 114.79 1137.35 114.28 1128.79 183.52 1082.23"/><polygon class="cls-2" points="128.91 1097.1 129.41 1105.66 113.55 1116.33 113.04 1107.76 128.91 1097.1"/><polygon class="cls-2" points="266.64 817.95 268.26 845.4 163.23 916.02 161.61 888.57 266.64 817.95"/><polygon class="cls-2" points="202.38 978.08 204.26 1010.01 110.98 1072.73 109.1 1040.81 202.38 978.08"/><polygon class="cls-1" points="145.07 899.69 149.29 971.33 105.04 1001.08 100.83 929.44 145.07 899.69"/><path class="cls-10" d="M100.88,1278.29,79.35,912.56,419.46,683.88,441,1049.61Zm-.06-348.85,4.22,71.64,44.25-29.75-4.22-71.64-44.25,29.75M111,1072.73,204.26,1010l-1.87-31.93L109.1,1040.8l1.88,31.93m50.63-184.16L163.22,916l105-70.62L266.64,818l-105,70.62m8.79,251,114.45-76.95-.51-8.56-114.44,77,.5,8.56m82.34-44.84-114,76.62.51,8.57,114-76.62-.5-8.57m-4.08-69.29-.5-8.57-114,76.63.5,8.56,114-76.62M282.1,1016l-93.29,62.72.51,8.57,93.28-62.72-.5-8.57m5.42,83.76-.5-8.56-93.28,62.73.5,8.55,93.28-62.72M280.26,984.8l-.5-8.55L186.48,1039l.5,8.56,93.28-62.73m23.64-74.27.83,14.06,49.2-33.08-.83-14.06-49.2,33.08M137,1141.81,208.21,1094l-.51-8.56-71.16,47.85.5,8.56M214,1090.08l69.73-46.88-.5-8.56-69.73,46.88.5,8.56m-30.45-7.85-69.24,46.56.51,8.56L184,1090.79l-.51-8.56M189,1166l-.5-8.56L119.21,1204l.5,8.55L189,1166m-7.77-123.46-69.24,46.55.51,8.56,69.24-46.56-.51-8.55m60.75-155.07-.71-12.05L195.73,906l.71,12,45.49-30.59m-76.81,60.7.71,12.05,45.07-30.3-.71-12.06-45.07,30.31M375.24,765.83l1.62,27.53,16.6-11.16-1.62-27.53-16.6,11.16M329.6,796.42,331.23,824l16.59-11.16-1.62-27.53-16.6,11.16m23.09-15.52,1.62,27.52,16.6-11.15-1.62-27.53-16.6,11.16m34.76,146.74L321.18,972.2l.4,6.8,66.27-44.55-.4-6.81m-1.86-31.55-66.27,44.56.4,6.8L386,902.9l-.4-6.81m4,68.68-.4-6.81L323,1002.52l.41,6.81,66.26-44.56M159.8,1137.84l-43.27,29.1.5,8.56,43.28-29.1-.51-8.56m248-200.71-.4-6.8L353.12,966.8l.4,6.81,54.25-36.48M406,906.82l-.4-6.81-54.25,36.48.4,6.8L406,906.82m-1.86-31.55-.4-6.81-54.25,36.48.4,6.8,54.25-36.47M163.9,927.41l.7,12,24.82-16.68-.71-12L163.9,927.41m186.15,41.46-40.26,27.07.4,6.81,40.26-27.07-.4-6.81m-1.79-30.31L308,965.63l.4,6.8,40.27-27.07-.41-6.8m-1.45-24.75-.4-6.8-40.26,27.07.4,6.8,40.26-27.07m-61.37,159-28.85,19.4.5,8.56,28.86-19.4-.51-8.56m-32.93-49.89,28.85-19.41-.5-8.56L252,1014.33l.51,8.57M251,881.35l18.61-12.52-.71-12L250.32,869.3l.71,12.05M133.49,1175l-15.86,10.67.5,8.57L134,1183.52l-.51-8.57m-4.58-77.86L113,1107.76l.51,8.57,15.87-10.67-.51-8.57m2.34,39.72-15.87,10.66.51,8.56,15.86-10.67-.5-8.55M406.86,921.67l-.4-6.81-16.77,11.28.4,6.8,16.77-11.27M408.64,952l-.4-6.81-16.77,11.28.4,6.8L408.64,952M405,890.11l-.4-6.8-16.77,11.27.4,6.81L405,890.11m-84.71,121.28-.4-6.8-9.23,6.2.4,6.81,9.23-6.21m-2.19-37.12-9.22,6.2.4,6.81,9.23-6.21-.41-6.8m-1.85-31.56L307,948.92l.4,6.8,9.23-6.2-.4-6.81"/><polygon class="cls-2" points="407.37 930.33 407.77 937.13 353.53 973.61 353.13 966.8 407.37 930.33"/><polygon class="cls-2" points="385.59 896.09 385.99 902.9 319.72 947.45 319.32 940.65 385.59 896.09"/><polygon class="cls-2" points="284.34 1054.1 284.85 1062.66 170.41 1139.61 169.9 1131.05 284.34 1054.1"/><polygon class="cls-2" points="279.76 976.25 280.26 984.81 186.98 1047.53 186.48 1038.97 279.76 976.25"/><polygon class="cls-2" points="252.74 1094.77 253.25 1103.34 139.29 1179.96 138.78 1171.39 252.74 1094.77"/><polygon class="cls-6" points="241.22 875.41 241.93 887.46 196.44 918.05 195.74 906 241.22 875.41"/><polygon class="cls-2" points="159.8 1137.84 160.31 1146.4 117.03 1175.5 116.53 1166.94 159.8 1137.84"/><polygon class="cls-2" points="181.19 1042.53 181.69 1051.09 112.45 1097.64 111.94 1089.08 181.19 1042.53"/><path class="cls-7" d="M127.64,654.58c5.25-3.53,9.91.51,10.41,9s-3.35,18.26-8.6,21.79-9.92-.49-10.42-9S122.38,658.12,127.64,654.58Z"/><polygon class="cls-2" points="69.14 748.17 409.76 519.18 410.72 524.19 410.35 521.36 69.77 750.36 69.94 753.28 69.14 748.17"/><polygon class="cls-11" points="410.35 521.36 410.52 524.32 419.9 683.59 79.35 912.56 69.94 753.28 69.77 750.36 410.35 521.36"/><path class="cls-10" d="M65.34,674.57,405.45,445.89l4.31,73.29L69.65,747.82Zm64.11,10.81c5.25-3.53,9.1-13.29,8.6-21.8s-5.16-12.53-10.41-9-9.11,13.3-8.61,21.8,5.16,12.53,10.42,9m-36,24.19c5.26-3.54,9.11-13.29,8.61-21.8s-5.17-12.53-10.42-9-9.1,13.29-8.6,21.79,5.16,12.54,10.41,9m71.95-48.38c5.26-3.53,9.1-13.28,8.6-21.79s-5.16-12.54-10.41-9-9.1,13.29-8.6,21.79,5.16,12.53,10.41,9"/><path class="cls-9" d="M91.66,678.77c5.26-3.53,9.92.5,10.42,9s-3.35,18.26-8.61,21.8-9.91-.5-10.41-9S86.41,682.3,91.66,678.77Z"/></g><path class="cls-2" d="M405.13,440.45l3.35-2.26.32,5.44,35.54,603.73.32,5.43-3.35,2.26L101.2,1283.73,97.84,1286l-.32-5.44L62,676.82l-.32-5.43L65,669.13Zm5.39,83.87-.12-5.56-4.95-72.87L65.34,674.57l4.31,73.26-.2,5.78,9.87,159,21.56,365.71L441,1049.61,419.46,683.88l-8.94-159.56"/></g></svg>