<svg width="10" height="10" viewBox="0 0 10 10" fill="none" xmlns="http://www.w3.org/2000/svg">
<path d="M0.30454 9.70757C0.491608 9.89481 0.745292 10 1.00981 10C1.27432 10 1.528 9.89481 1.71507 9.70757L5 6.41854L8.28493 9.70757C8.47307 9.88951 8.72505 9.99018 8.9866 9.9879C9.24816 9.98563 9.49835 9.88058 9.68331 9.6954C9.86826 9.51022 9.97317 9.2597 9.97545 8.99782C9.97772 8.73594 9.87717 8.48365 9.69546 8.29527L6.41053 5.00624L9.69546 1.71721C9.79074 1.62508 9.86673 1.51487 9.91901 1.39301C9.97129 1.27115 9.99881 1.14009 9.99996 1.00747C10.0011 0.874854 9.97587 0.743333 9.92572 0.620585C9.87556 0.497837 9.80149 0.386319 9.70782 0.29254C9.61416 0.19876 9.50278 0.124597 9.38019 0.0743765C9.25759 0.0241563 9.12624 -0.00111471 8.99378 3.77115e-05C8.86133 0.00119014 8.73043 0.0287432 8.60873 0.081089C8.48702 0.133435 8.37695 0.209525 8.28493 0.30492L5 3.59395L1.71507 0.30492C1.62305 0.209525 1.51298 0.133435 1.39127 0.081089C1.26957 0.0287432 1.13867 0.00119014 1.00622 3.77115e-05C0.873763 -0.00111471 0.742406 0.0241563 0.619811 0.0743765C0.497216 0.124597 0.385837 0.19876 0.292175 0.29254C0.198512 0.386319 0.124441 0.497837 0.0742838 0.620585C0.0241261 0.743333 -0.00111332 0.874854 3.76645e-05 1.00747C0.00118865 1.14009 0.0287073 1.27115 0.0809878 1.39301C0.133268 1.51487 0.209264 1.62508 0.30454 1.71721L3.58947 5.00624L0.30454 8.29527C0.117528 8.48257 0.0124712 8.73657 0.0124712 9.00142C0.0124712 9.26626 0.117528 9.52027 0.30454 9.70757Z" fill="#747474"/>
</svg>
