<svg width="18" height="18" viewBox="0 0 18 18" fill="none" xmlns="http://www.w3.org/2000/svg">
<path d="M16.6132 11.296C16.3656 11.296 16.1649 11.4977 16.1649 11.7466V15.747C16.164 16.4933 15.5625 17.098 14.82 17.0987H2.24145C1.49897 17.098 0.897457 16.4933 0.896581 15.747V4.00596C0.897457 3.2599 1.49897 2.65517 2.24145 2.65429H6.22178C6.46939 2.65429 6.67007 2.45259 6.67007 2.20373C6.67007 1.95504 6.46939 1.75317 6.22178 1.75317H2.24145C1.0041 1.75458 0.00140091 2.76235 0 4.00596V15.7472C0.00140091 16.9908 1.0041 17.9986 2.24145 18H14.82C16.0574 17.9986 17.0601 16.9908 17.0615 15.7472V11.7466C17.0615 11.4977 16.8608 11.296 16.6132 11.296Z" fill="#747474"/>
<path d="M16.884 0.593865C16.0962 -0.197955 14.8189 -0.197955 14.031 0.593865L6.03327 8.63209C5.97846 8.68718 5.93888 8.75547 5.91822 8.83044L4.86649 12.6466C4.82323 12.8031 4.86719 12.9706 4.98136 13.0856C5.09571 13.2003 5.26242 13.2445 5.41809 13.2012L9.21508 12.144C9.28968 12.1232 9.35762 12.0834 9.41243 12.0283L17.41 3.98994C18.1966 3.19759 18.1966 1.91491 17.41 1.12257L16.884 0.593865ZM7.01005 8.92495L13.5556 2.34611L15.6666 4.46778L9.12087 11.0466L7.01005 8.92495ZM6.58838 9.77538L8.27489 11.4706L5.94203 12.1202L6.58838 9.77538ZM16.7761 3.35283L16.3007 3.83066L14.1895 1.70882L14.6651 1.23098C15.1027 0.79116 15.8123 0.79116 16.2499 1.23098L16.7761 1.75968C17.213 2.20003 17.213 2.91265 16.7761 3.35283Z" fill="#747474"/>
</svg>
