<svg width="22" height="22" viewBox="0 0 22 22" fill="none" xmlns="http://www.w3.org/2000/svg">
<path d="M11.2727 21C16.7956 21 21.2727 16.5229 21.2727 11C21.2727 5.47715 16.7956 1 11.2727 1C5.74986 1 1.27271 5.47715 1.27271 11C1.27271 16.5229 5.74986 21 11.2727 21Z" stroke="#747474"/>
<path fill-rule="evenodd" clip-rule="evenodd" d="M15.1482 8.65731C15.5528 8.40204 15.8631 7.99726 16.0088 7.51507C15.6301 7.75203 15.2115 7.92339 14.765 8.01617C14.4087 7.61434 13.8994 7.3638 13.3357 7.3638C12.2544 7.3638 11.3781 8.28858 11.3781 9.42905C11.3781 9.59096 11.3944 9.74873 11.428 9.89942C9.80094 9.81314 8.35822 8.99177 7.39174 7.74139C7.2231 8.04749 7.12673 8.40204 7.12673 8.78022C7.12673 9.49641 7.47242 10.1287 7.99796 10.4998C7.67692 10.4892 7.37493 10.3952 7.11048 10.2416V10.267C7.11048 11.268 7.78505 12.1029 8.68206 12.292C8.51734 12.3405 8.34477 12.3647 8.16548 12.3647C8.03942 12.3647 7.91616 12.3523 7.79738 12.3281C8.04614 13.1483 8.76946 13.7463 9.62669 13.7622C8.95604 14.3165 8.1117 14.6462 7.19452 14.6462C7.03652 14.6462 6.88021 14.6374 6.72725 14.6179C7.594 15.2035 8.62323 15.5456 9.72922 15.5456C13.3318 15.5456 15.3006 12.3984 15.3006 9.66896C15.3006 9.57914 15.2995 9.48991 15.2956 9.40187C15.6783 9.11054 16.0111 8.74654 16.2727 8.33231C15.9214 8.49658 15.5438 8.60767 15.1482 8.65731Z" fill="#747474"/>
</svg>
