<svg width="22" height="22" viewBox="0 0 22 22" fill="none" xmlns="http://www.w3.org/2000/svg">
<path d="M11.3635 21C16.8864 21 21.3635 16.5229 21.3635 11C21.3635 5.47715 16.8864 1 11.3635 1C5.84068 1 1.36353 5.47715 1.36353 11C1.36353 16.5229 5.84068 21 11.3635 21Z" stroke="#747474"/>
<path fill-rule="evenodd" clip-rule="evenodd" d="M7.04737 9.3696H8.81927V15.5449H7.04737V9.3696ZM7.88815 8.59718H7.87533C7.23392 8.59718 6.81807 8.12511 6.81807 7.52732C6.81807 6.9173 7.24621 6.45454 7.90045 6.45454C8.55415 6.45454 8.9561 6.91613 8.96893 7.52557C8.96893 8.12337 8.55415 8.59718 7.88815 8.59718ZM15.909 15.5455H13.8998V12.3493C13.8998 11.5128 13.5855 10.9424 12.8944 10.9424C12.3657 10.9424 12.0717 11.3271 11.9349 11.6991C11.8836 11.8318 11.8916 12.0175 11.8916 12.2037V15.5455H9.90111C9.90111 15.5455 9.92677 9.88415 9.90111 9.3696H11.8916V10.3388C12.0092 9.91501 12.6453 9.31023 13.6603 9.31023C14.9196 9.31023 15.909 10.1991 15.909 12.1112V15.5455Z" fill="#747474"/>
</svg>
