<svg width="22" height="22" viewBox="0 0 22 22" fill="none" xmlns="http://www.w3.org/2000/svg">
<path d="M11 21C16.5229 21 21 16.5229 21 11C21 5.47715 16.5229 1 11 1C5.47715 1 1 5.47715 1 11C1 16.5229 5.47715 21 11 21Z" stroke="#747474"/>
<path fill-rule="evenodd" clip-rule="evenodd" d="M15.751 14.8777C16.513 14.3083 17 13.4668 17 12.531C17 10.8171 15.3815 9.42729 13.3855 9.42729C11.3895 9.42729 9.771 10.8171 9.771 12.531C9.771 14.2454 11.3895 15.6352 13.3855 15.6352C13.798 15.6352 14.196 15.5749 14.5655 15.4651L14.6715 15.4486C14.741 15.4486 14.804 15.4708 14.8635 15.5058L15.655 15.9768L15.7245 16C15.791 16 15.845 15.9443 15.845 15.8758L15.8255 15.7851L15.6625 15.159L15.65 15.0797C15.65 14.9962 15.69 14.9225 15.751 14.8777ZM9.3375 6C6.942 6 5 7.66753 5 9.72514C5 10.8475 5.584 11.858 6.4985 12.5408C6.572 12.5944 6.62 12.683 6.62 12.7835L6.605 12.8783L6.4095 13.6296L6.386 13.7383C6.386 13.8208 6.451 13.8878 6.5305 13.8878L6.6145 13.8599L7.564 13.2947C7.635 13.2524 7.7105 13.2261 7.794 13.2261L7.9215 13.2457C8.3645 13.3771 8.8425 13.4503 9.3375 13.4503L9.5755 13.4441C9.4815 13.1535 9.43 12.8474 9.43 12.5315C9.43 10.6553 11.201 9.13408 13.3855 9.13408L13.621 9.14027C13.2945 7.36092 11.501 6 9.3375 6ZM12.1805 12.0347C11.9145 12.0347 11.699 11.8121 11.699 11.538C11.699 11.2633 11.9145 11.0412 12.1805 11.0412C12.447 11.0412 12.6625 11.2633 12.6625 11.538C12.6625 11.8121 12.447 12.0347 12.1805 12.0347ZM14.5905 12.0347C14.324 12.0347 14.1085 11.8121 14.1085 11.538C14.1085 11.2633 14.324 11.0412 14.5905 11.0412C14.8565 11.0412 15.072 11.2633 15.072 11.538C15.072 11.8121 14.8565 12.0347 14.5905 12.0347ZM7.8915 9.12893C7.572 9.12893 7.3135 8.862 7.3135 8.53324C7.3135 8.20396 7.572 7.93703 7.8915 7.93703C8.211 7.93703 8.47 8.20396 8.47 8.53324C8.47 8.862 8.211 9.12893 7.8915 9.12893ZM10.783 9.12893C10.4635 9.12893 10.205 8.862 10.205 8.53324C10.205 8.20396 10.4635 7.93703 10.783 7.93703C11.1025 7.93703 11.3615 8.20396 11.3615 8.53324C11.3615 8.862 11.1025 9.12893 10.783 9.12893Z" fill="#747474"/>
</svg>
