<svg width="22" height="22" viewBox="0 0 22 22" fill="none" xmlns="http://www.w3.org/2000/svg">
<path d="M13.2725 7.81802H7.81797C7.3159 7.81802 6.90888 8.22504 6.90888 8.72712V14.1817C6.90888 14.6837 7.3159 15.0908 7.81797 15.0908H13.2725C13.7746 15.0908 14.1816 14.6837 14.1816 14.1817V8.72712C14.1816 8.22504 13.7746 7.81802 13.2725 7.81802Z" stroke="#ABDFFC" stroke-linecap="round" stroke-linejoin="round"/>
<path d="M12.3634 6.90894V8.72712" stroke="#ABDFFC" stroke-linecap="round" stroke-linejoin="round"/>
<path d="M8.72707 6.90894V8.72712" stroke="#ABDFFC" stroke-linecap="round" stroke-linejoin="round"/>
<path d="M6.90888 10.5453H14.1816" stroke="#ABDFFC" stroke-linecap="round" stroke-linejoin="round"/>
<path d="M9.63616 12.3635H8.72707V13.2726H9.63616V12.3635Z" stroke="#ABDFFC" stroke-linecap="round" stroke-linejoin="round"/>
<path d="M10.5454 21C16.0683 21 20.5454 16.5229 20.5454 11C20.5454 5.47715 16.0683 1 10.5454 1C5.02256 1 0.54541 5.47715 0.54541 11C0.54541 16.5229 5.02256 21 10.5454 21Z" stroke="#ABDFFC"/>
</svg>
