<svg width="22" height="22" viewBox="0 0 22 22" fill="none" xmlns="http://www.w3.org/2000/svg">
<path d="M11 21C16.5229 21 21 16.5229 21 11C21 5.47715 16.5229 1 11 1C5.47715 1 1 5.47715 1 11C1 16.5229 5.47715 21 11 21Z" stroke="#747474"/>
<path d="M13.2245 9.58323L13.2244 9.58323V9.58751V13.6791L6.91075 13.6791L6.9098 13.6791C6.55574 13.6798 6.21912 13.5444 5.97311 13.3077C5.72784 13.0718 5.59269 12.7551 5.5915 12.4281V12.4206V12.4123V12.4039V12.3956V12.3872V12.3789V12.3705V12.3622V12.3538V12.3455V12.3371V12.3288V12.3204V12.3121V12.3037V12.2954V12.287V12.2787V12.2703V12.262V12.2536V12.2453V12.2369V12.2286V12.2202V12.2119V12.2035V12.1952V12.1868V12.1785V12.1701V12.1618V12.1534V12.1451V12.1367V12.1284V12.12V12.1117V12.1033V12.095V12.0866V12.0783V12.0699V12.0616V12.0532V12.0449V12.0365V12.0282V12.0198V12.0115V12.0031V11.9948V11.9864V11.9781V11.9698V11.9614V11.9531V11.9447V11.9364V11.928V11.9197V11.9113V11.903V11.8946V11.8863V11.8779V11.8696V11.8612V11.8529V11.8445V11.8362V11.8278V11.8195V11.8111V11.8028V11.7944V11.7861V11.7777V11.7694V11.761V11.7527V11.7444V11.736V11.7277V11.7193V11.711V11.7026V11.6943V11.6859V11.6776V11.6692V11.6609V11.6525V11.6442V11.6358V11.6275V11.6191V11.6108V11.6024V11.5941V11.5858V11.5774V11.5691V11.5607V11.5524V11.544V11.5357V11.5273V11.519V11.5106V11.5023V11.4939V11.4856V11.4772V11.4689V11.4605V11.4522V11.4439V11.4355V11.4272V11.4188V11.4105V11.4021V11.3938V11.3854V11.3771V11.3687V11.3604V11.352V11.3437V11.3353V11.327V11.3187V11.3103V11.302V11.2936V11.2853V11.2769V11.2686V11.2602V11.2519V11.2435V11.2352V11.2268V11.2185V11.2102V11.2018V11.1935V11.1851V11.1768V11.1684V11.1601V11.1517V11.1434V11.135V11.1267V11.1183V11.11V11.1017V11.0933V11.085V11.0766V11.0683V11.0599V11.0516V11.0432V11.0349V11.0265V11.0182V11.0099V11.0015V10.9932V10.9848V10.9765V10.9681V10.9598V10.9514V10.9431V10.9347V10.9264V10.9181V10.9097V10.9014V10.893V10.8847V10.8763V10.868V10.8596V10.8513V10.843V10.8346V10.8263V10.8179V10.8096V10.8012V10.7929V10.7845V10.7762V10.7679V10.7595V10.7512V10.7428V10.7345V10.7261V10.7178V10.7094V10.7011V10.6927V10.6844V10.6761V10.6677V10.6594V10.651V10.6427V10.6343V10.626V10.6177V10.6093V10.601V10.5926V10.5843V10.5759V10.5676V10.5592V10.5509V10.5426V10.5342V10.5259V10.5175V10.5092V10.5008V10.4925V10.4841V10.4758V10.4675V10.4591V10.4508V10.4424V10.4341V10.4257V10.4174V10.4091V10.4007V10.3924V10.384V10.3757V10.3673V10.359V10.3507V10.3423V10.334V10.3256V10.3173V10.3089V10.3006V10.2922V10.2839V10.2756V10.2672V10.2589V10.2505V10.2422V10.2338V10.2255V10.2172V10.2088V10.2005V10.1921V10.1838V10.1754V10.1671V10.1588V10.1504V10.1421V10.1337V10.1254V10.117V10.1087V10.1004V10.092V10.0837V10.0753V10.067V10.0587V10.0503V10.042V10.0336V10.0253V10.0169V10.0086V10.0003V9.99191V9.98357V9.97523V9.96689V9.95854V9.9502V9.94186V9.93352V9.92518V9.91683V9.90849V9.90015V9.89181V9.88347V9.87512V9.86678V9.85844V9.8501V9.84176V9.83342V9.82507V9.81673V9.80839V9.80005V9.79171V9.78337V9.77502V9.76668V9.75834V9.75V9.74166V9.73332V9.72498V9.71663V9.70829V9.69995V9.69161V9.68327V9.67493V9.66659V9.65825V9.64991V9.64156V9.63322V9.62488V9.61654V9.6082V9.59986V9.59152V9.58318V9.57484V9.5665V9.55815V9.54981V9.54147V9.53313V9.52479V9.51645V9.50811V9.49977V9.49143V9.48309V9.47475V9.46641V9.45807V9.44973V9.44139V9.43305V9.4247V9.41636V9.40802V9.39968V9.39134V9.383V9.37466V9.36632V9.35798V9.34964V9.3413V9.33296V9.32462V9.31628V9.30794V9.2996V9.29126V9.28292V9.27458V9.26624V9.2579V9.24956V9.24122V9.23288V9.22454V9.2162V9.20786V9.19952V9.19118V9.18284V9.1745V9.16617V9.15783V9.14949V9.14115V9.13281V9.12447V9.11613V9.10779V9.09945V9.09111V9.08277V9.07443V9.06609V9.05775V9.04941V9.04107V9.03274V9.0244V9.01606V9.00772V8.99938V8.99104V8.9827V8.97436V8.96602V8.95768V8.94935V8.94101V8.93267V8.92433V8.91599V8.90765V8.89931V8.89097V8.88264V8.8743V8.86596V8.85762V8.84928V8.84094V8.8326V8.82427V8.81593V8.80759V8.79925V8.79091V8.78257V8.77423V8.7659V8.75756V8.74922V8.74088V8.73254V8.7242V8.71587V8.70753V8.69919V8.69085V8.68251V8.67418V8.66584V8.6575V8.64916V8.64082V8.63249V8.62415V8.61581V8.60747V8.59914V8.5908V8.58246V8.57412V8.56578V8.55745V8.54911V8.54077V8.53243V8.5241V8.51576V8.50742V8.49908V8.49075V8.48241V8.47407V8.46573V8.4574V8.44906V8.44072V8.43238V8.42405V8.41571V8.40737V8.39904V8.3907V8.38236V8.37402V8.36569V8.35735V8.34901V8.34068V8.33234V8.324V8.32003H8.72822H9.22822V8.3183H9.23133H9.23762H9.24391H9.25019H9.25648H9.26277H9.26906H9.27535H9.28164H9.28793H9.29422H9.30051H9.30679H9.31308H9.31937H9.32566H9.33195H9.33824H9.34453H9.35082H9.35711H9.36339H9.36968H9.37597H9.38226H9.38855H9.39484H9.40113H9.40742H9.41371H9.41999H9.42628H9.43257H9.43886H9.44515H9.45144H9.45773H9.46402H9.47031H9.47659H9.48288H9.48917H9.49546H9.50175H9.50804H9.51433H9.52062H9.52691H9.53319H9.53948H9.54577H9.55206H9.55835H9.56464H9.57093H9.57722H9.58351H9.58979H9.59608H9.60237H9.60866H9.61495H9.62124H9.62753H9.63382H9.64011H9.64639H9.65268H9.65897H9.66526H9.67155H9.67784H9.68413H9.69042H9.69671H9.70299H9.70928H9.71557H9.72186H9.72815H9.73444H9.74073H9.74702H9.75331H9.75959H9.76588H9.77217H9.77846H9.78475H9.79104H9.79733H9.80362H9.80991H9.81619H9.82248H9.82877H9.83506H9.84135H9.84764H9.85393H9.86022H9.86651H9.87279H9.87908H9.88537H9.89166H9.89795H9.90424H9.91053H9.91682H9.92311H9.92939H9.93568H9.94197H9.94826H9.95455H9.96084H9.96713H9.97342H9.97971H9.98599H9.99228H9.99857H10.0049H10.0112H10.0174H10.0237H10.03H10.0363H10.0426H10.0489H10.0552H10.0615H10.0677H10.074H10.0803H10.0866H10.0929H10.0992H10.1055H10.1118H10.1181H10.1244H10.1306H10.1369H10.1432H10.1495H10.1558H10.1621H10.1684H10.1747H10.181H10.1872H10.1935H10.1998H10.2061H10.2124H10.2187H10.225H10.2313H10.2376H10.2438H10.2501H10.2564H10.2627H10.269H10.2753H10.2816H10.2879H10.2942H10.3004H10.3067H10.313H10.3193H10.3256H10.3319H10.3382H10.3445H10.3508H10.357H10.3633H10.3696H10.3759H10.3822H10.3885H10.3948H10.4011H10.4074H10.4136H10.4199H10.4262H10.4325H10.4388H10.4451H10.4514H10.4577H10.464H10.4702H10.4765H10.4828H10.4891H10.4954H10.5017H10.508H10.5143H10.5206H10.5268H10.5331H10.5394H10.5457H10.552H10.5583H10.5646H10.5709H10.5772H10.5834H10.5897H10.596H10.6023H10.6086H10.6149H10.6212H10.6275H10.6338H10.64H10.6463H10.6526H10.6589H10.6652H10.6715H10.6778H10.6841H10.6904H10.6966H10.7029H10.7092H10.7155H10.7218H10.7281H10.7344H10.7407H10.747H10.7532H10.7595H10.7658H10.7721H10.7784H10.7847H10.791H10.7973H10.8036H10.8098H10.8161H10.8224H10.8287H10.835H10.8413H10.8476H10.8539H10.8602H10.8664H10.8727H10.879H10.8853H10.8916H10.8979H10.9042H10.9105H10.9168H10.923H10.9293H10.9356H10.9419H10.9482H10.9545H10.9608H10.9671H10.9734H10.9796H10.9859H10.9922H10.9985H11.0048H11.0111H11.0174H11.0237H11.03H11.0362H11.0425H11.0488H11.0551H11.0614H11.0677H11.074H11.0803H11.0866H11.0928H11.0991H11.1054H11.1117H11.118H11.1243H11.1306H11.1369H11.1432H11.1494H11.1557H11.162H11.1683H11.1746H11.1809H11.1872H11.1935H11.1998H11.206H11.2123H11.2186H11.2249H11.2312H11.2375H11.2438H11.2501H11.2564H11.2626H11.2689H11.2752H11.2815H11.2878H11.2941H11.3004H11.3067H11.313H11.3192H11.3255H11.3318H11.3381H11.3444H11.3507H11.357H11.3633H11.3696H11.3758H11.3821H11.3884H11.3947H11.401H11.4073H11.4136H11.4199H11.4262H11.4324H11.4387H11.445H11.4513H11.4576H11.4639H11.4702H11.4765H11.4828H11.489H11.4953H11.5016H11.5079H11.5142H11.5205H11.5268H11.5331H11.5394H11.5456H11.5519H11.5582H11.5645H11.5708H11.5771H11.5834H11.5897H11.596H11.6022H11.6085H11.6148H11.6211H11.6274H11.6337H11.64H11.6463H11.6526H11.6588H11.6651H11.6714H11.6777H11.684H11.6903H11.6966H11.7029H11.7092H11.7154H11.7217H11.728H11.7343H11.7406H11.7469H11.7532H11.7595H11.7658H11.772H11.7783H11.7846H11.7909H11.7972H11.8035H11.8098H11.8161H11.8224H11.8286H11.8349H11.8412H11.8475H11.8538H11.8601H11.8664H11.8727H11.879H11.8852H11.8915H11.8978H11.9041H11.9104H11.9167H11.923H11.9293H11.9356H11.9418H11.9432C12.2504 8.3248 12.5436 8.43403 12.7731 8.62419C13.0032 8.81478 13.1545 9.07398 13.2054 9.35562C13.2188 9.43084 13.2251 9.507 13.2245 9.58323Z" stroke="#747474"/>
<path d="M16.4087 11.0025V13.4294L14.2275 11.9351V11.9323V11.9278V11.9234V11.919V11.9145V11.9101V11.9056V11.9012V11.8968V11.8923V11.8879V11.8834V11.879V11.8746V11.8701V11.8657V11.8612V11.8568V11.8524V11.8479V11.8435V11.839V11.8346V11.8302V11.8257V11.8213V11.8168V11.8124V11.808V11.8035V11.7991V11.7946V11.7902V11.7858V11.7813V11.7769V11.7724V11.768V11.7636V11.7591V11.7547V11.7502V11.7458V11.7414V11.7369V11.7325V11.728V11.7236V11.7192V11.7147V11.7103V11.7059V11.7014V11.697V11.6925V11.6881V11.6837V11.6792V11.6748V11.6703V11.6659V11.6615V11.657V11.6526V11.6481V11.6437V11.6393V11.6348V11.6304V11.6259V11.6215V11.6171V11.6126V11.6082V11.6038V11.5993V11.5949V11.5904V11.586V11.5816V11.5771V11.5727V11.5682V11.5638V11.5594V11.5549V11.5505V11.546V11.5416V11.5372V11.5327V11.5283V11.5239V11.5194V11.515V11.5105V11.5061V11.5017V11.4972V11.4928V11.4883V11.4839V11.4795V11.475V11.4706V11.4662V11.4617V11.4573V11.4528V11.4484V11.444V11.4395V11.4351V11.4306V11.4262V11.4218V11.4173V11.4129V11.4085V11.404V11.3996V11.3951V11.3907V11.3863V11.3818V11.3774V11.3729V11.3685V11.3641V11.3596V11.3552V11.3508V11.3463V11.3419V11.3374V11.333V11.3286V11.3241V11.3197V11.3153V11.3108V11.3064V11.3019V11.2975V11.2931V11.2886V11.2842V11.2797V11.2753V11.2709V11.2664V11.262V11.2576V11.2531V11.2487V11.2442V11.2398V11.2354V11.2309V11.2265V11.2221V11.2176V11.2132V11.2087V11.2043V11.1999V11.1954V11.191V11.1866V11.1821V11.1777V11.1732V11.1688V11.1644V11.1599V11.1555V11.1511V11.1466V11.1422V11.1377V11.1333V11.1289V11.1244V11.12V11.1155V11.1111V11.1067V11.1022V11.0978V11.0934V11.0889V11.0845V11.0801V11.0756V11.0712V11.0667V11.0623V11.0579V11.0534V11.049V11.0446V11.0401V11.0357V11.0312V11.0268V11.0224V11.0179V11.0135V11.0091V11.0046V11.0002V10.9957V10.9913V10.9869V10.9824V10.978V10.9736V10.9691V10.9647V10.9602V10.9558V10.9514V10.9469V10.9425V10.9381V10.9336V10.9292V10.9248V10.9203V10.9159V10.9114V10.907V10.9026V10.8981V10.8937V10.8893V10.8848V10.8804V10.8759V10.8715V10.8671V10.8626V10.8582V10.8538V10.8493V10.8449V10.8405V10.836V10.8316V10.8271V10.8227V10.8183V10.8138V10.8094V10.805V10.8005V10.7961V10.7916V10.7872V10.7828V10.7783V10.7739V10.7695V10.765V10.7606V10.7562V10.7517V10.7473V10.7428V10.7384V10.734V10.7295V10.7251V10.7207V10.7162V10.7118V10.7074V10.7029V10.6985V10.694V10.6896V10.6852V10.6807V10.6763V10.6719V10.6674V10.663V10.6586V10.6541V10.6497V10.6453V10.6408V10.6364V10.6319V10.6275V10.6231V10.6186V10.6142V10.6098V10.6053V10.6009V10.5965V10.592V10.5876V10.5831V10.5787V10.5743V10.5698V10.5654V10.561V10.5565V10.5521V10.5477V10.5432V10.5388V10.5344V10.5299V10.5255V10.521V10.5166V10.5122V10.5077V10.5033V10.4989V10.4944V10.49V10.4856V10.4811V10.4767V10.4723V10.4678V10.4634V10.4589V10.4545V10.4501V10.4456V10.4412V10.4368V10.4323V10.4279V10.4235V10.419V10.4146V10.4102V10.4057V10.4013V10.3968V10.3924V10.388V10.3835V10.3791V10.3747V10.3702V10.3658V10.3614V10.3569V10.3525V10.3481V10.3436V10.3392V10.3348V10.3303V10.3259V10.3215V10.317V10.3126V10.3081V10.3037V10.2993V10.2948V10.2904V10.286V10.2815V10.2771V10.2727V10.2682V10.2638V10.2594V10.2549V10.2505V10.2461V10.2416V10.2372V10.2328V10.2283V10.2239V10.2194V10.215V10.2106V10.2061V10.2017V10.1973V10.1928V10.1884V10.184V10.1795V10.1751V10.1707V10.1662V10.1618V10.1574V10.1529V10.1485V10.1441V10.1396V10.1352V10.1308V10.1263V10.1219V10.1174V10.113V10.1086V10.1041V10.0997V10.0953V10.0908V10.0864V10.082V10.0775V10.076L16.4087 8.5786V11.0025Z" stroke="#747474"/>
</svg>
