<svg width="18" height="16" viewBox="0 0 18 16" fill="none" xmlns="http://www.w3.org/2000/svg">
<path d="M2.00332 2.46979L2.00329 2.46977L2.00049 2.47298C1.13778 3.46471 0.692404 4.73963 0.755977 6.04049C0.819524 7.34082 1.38674 8.56793 2.34119 9.47481L7.80279 14.7914C8.11613 15.1673 8.56679 15.4075 9.0577 15.4626L9.0732 15.4643L9.08881 15.4641C9.23009 15.4623 9.3697 15.4325 9.49921 15.3764C9.62719 15.321 9.74287 15.2409 9.83922 15.1407L15.6538 9.47491C16.6102 8.56938 17.1792 7.34249 17.2438 6.04181C17.3085 4.74049 16.8632 3.46483 15.9999 2.47294L15.9999 2.47292L15.9979 2.47065C15.548 1.96622 14.9991 1.55522 14.384 1.26166C13.7694 0.96828 13.1008 0.798042 12.418 0.760797C11.1907 0.681844 9.97703 1.03801 8.99933 1.76104C7.98479 1.01921 6.72471 0.665316 5.45804 0.7697C4.12557 0.879506 2.88713 1.48811 2.00332 2.46979Z" fill="#E95F5F" stroke="#E95F5F" stroke-width="0.5"/>
</svg>
