<svg width="30" height="28" viewBox="0 0 30 28" fill="none" xmlns="http://www.w3.org/2000/svg">
<path d="M27.3513 2.73474C25.6432 0.981142 23.3708 0.012459 20.9557 0.012459C18.747 0.012459 16.6535 0.82229 15.0061 2.30179C13.3525 0.816061 11.253 0 9.04126 0C6.63228 0 4.36286 0.962453 2.6517 2.71605C0.943568 4.46965 0 6.8057 0 9.28814C0 11.7644 0.943568 14.0973 2.65777 15.854L13.2949 26.768C13.753 27.2415 14.3659 27.5 15.0121 27.5C15.6523 27.5 16.2773 27.2321 16.7294 26.768L27.3453 15.8696C29.0504 14.1191 29.9939 11.7862 30 9.30372C30 6.82439 29.0595 4.49145 27.3513 2.73474ZM27.5243 9.30372C27.5243 11.1009 26.8386 12.7953 25.5977 14.0693L15.0121 24.9366L4.41444 14.0568C3.17051 12.7798 2.48786 11.0885 2.48786 9.29126C2.48786 7.50028 3.16748 5.80898 4.40231 4.53194L4.41141 4.5226C5.64927 3.25178 7.29672 2.55097 9.04733 2.55097C10.801 2.55097 12.4545 3.2549 13.6954 4.52883L14.1323 4.97735C14.3659 5.21718 14.6784 5.35112 15.0121 5.35112C15.3398 5.35112 15.6614 5.21407 15.892 4.97735L16.3167 4.54128C17.5607 3.26424 19.2112 2.56343 20.9648 2.56343C22.7154 2.56343 24.3629 3.26424 25.6007 4.53506C26.8416 5.80898 27.5243 7.5034 27.5243 9.30372Z" fill="#5E6266" fill-opacity="0.6"/>
</svg>
