<svg width="22" height="22" viewBox="0 0 22 22" fill="none" xmlns="http://www.w3.org/2000/svg">
<path fill-rule="evenodd" clip-rule="evenodd" d="M6.95958 9.60558C7.08609 9.68819 7.46739 9.9336 8.10355 10.3416C8.73972 10.7497 9.22705 11.0639 9.56561 11.2842C9.6028 11.3083 9.68184 11.3608 9.80273 11.4417C9.92362 11.5227 10.0241 11.5882 10.104 11.6381C10.184 11.688 10.2807 11.744 10.3942 11.8059C10.5077 11.8678 10.6147 11.9144 10.7151 11.9452C10.8156 11.9763 10.9086 11.9917 10.9942 11.9917H10.9998H11.0054C11.091 11.9917 11.184 11.9763 11.2844 11.9452C11.3849 11.9144 11.4919 11.8678 11.6053 11.8059C11.7188 11.7439 11.8155 11.688 11.8955 11.6381C11.9755 11.5882 12.0759 11.5227 12.1968 11.4417C12.3177 11.3608 12.3968 11.3083 12.434 11.2842C12.7762 11.0638 13.6468 10.5043 15.0455 9.60545C15.3171 9.4299 15.544 9.21808 15.7263 8.97013C15.9087 8.72231 15.9998 8.46231 15.9998 8.19026C15.9998 7.96298 15.9114 7.76841 15.7347 7.60655C15.5579 7.44469 15.3486 7.3638 15.1069 7.3638H6.8926C6.60616 7.3638 6.38575 7.45332 6.23136 7.63235C6.07698 7.81146 5.99979 8.03532 5.99979 8.30387C5.99979 8.52082 6.10212 8.75591 6.3067 9.009C6.51129 9.26208 6.72896 9.46097 6.95958 9.60558ZM15.4417 10.1582C14.2216 10.9226 13.2951 11.5167 12.6628 11.9402C12.4507 12.0849 12.2787 12.1977 12.1466 12.2785C12.0145 12.3595 11.8388 12.4421 11.6192 12.5265C11.3998 12.6109 11.1952 12.653 11.0055 12.653H10.9998H10.9942C10.8044 12.653 10.5998 12.6109 10.3803 12.5265C10.1609 12.4421 9.98506 12.3595 9.85301 12.2785C9.72095 12.1977 9.5489 12.0849 9.33684 11.9402C8.83458 11.5993 7.91013 11.0053 6.56342 10.1582C6.35136 10.0274 6.16349 9.87756 5.99979 9.70885V13.81C5.99979 14.0373 6.08718 14.2319 6.26205 14.3937C6.43691 14.5556 6.64712 14.6365 6.89266 14.6365H15.107C15.3525 14.6365 15.5627 14.5556 15.7375 14.3937C15.9125 14.2318 15.9998 14.0373 15.9998 13.81V9.70885C15.8398 9.87407 15.6538 10.0239 15.4417 10.1582Z" fill="#747474"/>
<path d="M11 21C16.5229 21 21 16.5229 21 11C21 5.47715 16.5229 1 11 1C5.47715 1 1 5.47715 1 11C1 16.5229 5.47715 21 11 21Z" stroke="#747474"/>
</svg>
