<svg width="22" height="22" viewBox="0 0 22 22" fill="none" xmlns="http://www.w3.org/2000/svg">
<path d="M11.0911 21C16.6139 21 21.0911 16.5229 21.0911 11C21.0911 5.47715 16.6139 1 11.0911 1C5.56822 1 1.09106 5.47715 1.09106 11C1.09106 16.5229 5.56822 21 11.0911 21Z" stroke="#ABDFFC"/>
<path fill-rule="evenodd" clip-rule="evenodd" d="M15.6365 12.6202V9.38004C15.6365 9.38004 15.6365 7.8183 14.0699 7.8183H8.11172C8.11172 7.8183 6.54561 7.8183 6.54561 9.38004V12.6202C6.54561 12.6202 6.54561 14.1819 8.11172 14.1819H14.0699C14.0699 14.1819 15.6365 14.1819 15.6365 12.6202ZM12.856 11.0046L9.87987 12.747V9.26175L12.856 11.0046Z" fill="#ABDFFC"/>
</svg>
