<svg width="22" height="22" viewBox="0 0 22 22" fill="none" xmlns="http://www.w3.org/2000/svg">
<path d="M10.8184 21C16.3412 21 20.8184 16.5229 20.8184 11C20.8184 5.47715 16.3412 1 10.8184 1C5.29551 1 0.818359 5.47715 0.818359 11C0.818359 16.5229 5.29551 21 10.8184 21Z" stroke="#747474"/>
<path fill-rule="evenodd" clip-rule="evenodd" d="M10.8182 6.90072C12.1532 6.90072 12.3113 6.9058 12.8386 6.92985C13.3261 6.9521 13.5908 7.03356 13.767 7.10201C14.0004 7.19271 14.167 7.30108 14.3419 7.47604C14.5169 7.65099 14.6252 7.81757 14.7159 8.05094C14.7844 8.22715 14.8659 8.49189 14.8881 8.97937C14.9122 9.50662 14.9172 9.66475 14.9172 10.9998C14.9172 12.3349 14.9122 12.493 14.8881 13.0202C14.8659 13.5077 14.7844 13.7725 14.7159 13.9487C14.6252 14.182 14.5169 14.3486 14.3419 14.5236C14.167 14.6985 14.0004 14.8069 13.767 14.8976C13.5908 14.9661 13.3261 15.0475 12.8386 15.0698C12.3114 15.0938 12.1533 15.0989 10.8182 15.0989C9.48301 15.0989 9.32488 15.0938 8.79773 15.0698C8.31024 15.0475 8.04549 14.9661 7.86931 14.8976C7.63592 14.8069 7.46934 14.6985 7.29438 14.5236C7.11943 14.3486 7.01106 14.182 6.92037 13.9487C6.8519 13.7725 6.77045 13.5077 6.7482 13.0203C6.72414 12.493 6.71906 12.3349 6.71906 10.9998C6.71906 9.66475 6.72414 9.50662 6.7482 8.97939C6.77045 8.49189 6.8519 8.22715 6.92037 8.05094C7.01106 7.81757 7.11943 7.65099 7.29438 7.47604C7.46934 7.30108 7.63592 7.19271 7.86931 7.10201C8.04549 7.03356 8.31024 6.9521 8.79771 6.92985C9.32496 6.9058 9.48309 6.90072 10.8182 6.90072ZM10.8182 5.9998C9.46022 5.9998 9.28997 6.00555 8.75667 6.02989C8.22446 6.05418 7.86101 6.13869 7.54295 6.2623C7.21416 6.39008 6.93532 6.56105 6.65735 6.83901C6.37939 7.11698 6.20842 7.39581 6.08064 7.72461C5.95703 8.04267 5.87252 8.40611 5.84823 8.93833C5.8239 9.47161 5.81816 9.64188 5.81816 10.9998C5.81816 12.3577 5.8239 12.528 5.84823 13.0613C5.87252 13.5935 5.95703 13.957 6.08064 14.275C6.20842 14.6038 6.37939 14.8826 6.65735 15.1606C6.93532 15.4386 7.21416 15.6095 7.54295 15.7373C7.86101 15.8609 8.22446 15.9454 8.75667 15.9697C9.28997 15.9941 9.46022 15.9998 10.8182 15.9998C12.1761 15.9998 12.3464 15.9941 12.8796 15.9697C13.4118 15.9454 13.7753 15.8609 14.0934 15.7373C14.4221 15.6095 14.701 15.4386 14.979 15.1606C15.2569 14.8826 15.4279 14.6038 15.5557 14.275C15.6793 13.957 15.7638 13.5935 15.7881 13.0613C15.8124 12.528 15.8182 12.3577 15.8182 10.9998C15.8182 9.64188 15.8124 9.47161 15.7881 8.93833C15.7638 8.40611 15.6793 8.04267 15.5557 7.72461C15.4279 7.39581 15.2569 7.11698 14.979 6.83901C14.701 6.56105 14.4221 6.39008 14.0934 6.2623C13.7753 6.13869 13.4118 6.05418 12.8796 6.02989C12.3464 6.00555 12.1761 5.9998 10.8182 5.9998ZM10.8281 8.44027C9.40902 8.44027 8.25864 9.59066 8.25864 11.0097C8.25864 12.4288 9.40902 13.5792 10.8281 13.5792C12.2471 13.5792 13.3975 12.4288 13.3975 11.0097C13.3975 9.59066 12.2471 8.44027 10.8281 8.44027ZM10.8281 12.6776C9.90694 12.6776 9.16019 11.9309 9.16019 11.0097C9.16019 10.0886 9.90694 9.34183 10.8281 9.34183C11.7492 9.34183 12.496 10.0886 12.496 11.0097C12.496 11.9309 11.7492 12.6776 10.8281 12.6776ZM14.0721 8.32122C14.0721 8.64996 13.8056 8.91647 13.4769 8.91647C13.1482 8.91647 12.8817 8.64996 12.8817 8.32122C12.8817 7.99247 13.1482 7.72599 13.4769 7.72599C13.8056 7.72599 14.0721 7.99247 14.0721 8.32122Z" fill="#747474"/>
</svg>
