<svg width="22" height="22" viewBox="0 0 22 22" fill="none" xmlns="http://www.w3.org/2000/svg">
<path d="M11.4546 21C16.9774 21 21.4546 16.5229 21.4546 11C21.4546 5.47715 16.9774 1 11.4546 1C5.93174 1 1.45459 5.47715 1.45459 11C1.45459 16.5229 5.93174 21 11.4546 21Z" stroke="#747474"/>
<path d="M11.4546 16.1136C14.2787 16.1136 16.5682 13.8241 16.5682 11C16.5682 8.17578 14.2787 5.88632 11.4546 5.88632C8.63037 5.88632 6.34091 8.17578 6.34091 11C6.34091 13.8241 8.63037 16.1136 11.4546 16.1136Z" stroke="#747474" stroke-width="1.5" stroke-linecap="round" stroke-linejoin="round"/>
<path d="M6.68182 9.29542H16.2273" stroke="#747474" stroke-width="1.5" stroke-linecap="round" stroke-linejoin="round"/>
<path d="M6.68182 12.7045H16.2273" stroke="#747474" stroke-width="1.5" stroke-linecap="round" stroke-linejoin="round"/>
<path d="M11.1704 5.88632C10.2132 7.42019 9.70576 9.19193 9.70576 11C9.70576 12.808 10.2132 14.5797 11.1704 16.1136" stroke="#747474" stroke-width="1.5" stroke-linecap="round" stroke-linejoin="round"/>
<path d="M11.7386 5.88632C12.6958 7.42019 13.2033 9.19193 13.2033 11C13.2033 12.808 12.6958 14.5797 11.7386 16.1136" stroke="#747474" stroke-width="1.5" stroke-linecap="round" stroke-linejoin="round"/>
</svg>
