<svg width="22" height="22" viewBox="0 0 22 22" fill="none" xmlns="http://www.w3.org/2000/svg">
<path d="M10.6365 21C16.1593 21 20.6365 16.5229 20.6365 11C20.6365 5.47715 16.1593 1 10.6365 1C5.11363 1 0.636475 5.47715 0.636475 11C0.636475 16.5229 5.11363 21 10.6365 21Z" stroke="#ABDFFC"/>
<path fill-rule="evenodd" clip-rule="evenodd" d="M15.6057 8.45792C15.6038 8.45639 15.6023 8.45439 15.5999 8.45324L15.5964 8.45152L12.5798 6.94322C12.5595 6.93299 12.5381 6.92611 12.5164 6.92057C12.4891 6.91359 12.4613 6.90929 12.4334 6.90929C12.3179 6.90929 12.203 6.96729 12.1407 7.06839L10.404 9.89064L12.5835 13.4322L15.615 8.50608C15.625 8.48965 15.6202 8.46939 15.6057 8.45792ZM9.4474 9.24776V12.4604L12.3029 13.8881L9.4474 9.24776ZM12.7319 14.1026L15.0825 15.2778C15.3883 15.4308 15.6363 15.3237 15.6363 15.0388V9.38307L12.7319 14.1026ZM8.95168 8.46251L6.00549 6.98937C5.95227 6.9628 5.90162 6.95019 5.85576 6.95019C5.72676 6.95019 5.63627 7.05004 5.63627 7.21755V13.5785C5.63627 13.7488 5.76087 13.9504 5.91318 14.0266L8.50812 15.324C8.57462 15.3572 8.63797 15.373 8.69521 15.373C8.8565 15.373 8.96964 15.2482 8.96964 15.0388V8.49146C8.96964 8.47923 8.96266 8.46795 8.95168 8.46251Z" fill="#ABDFFC"/>
</svg>
