<svg width="22" height="22" viewBox="0 0 22 22" fill="none" xmlns="http://www.w3.org/2000/svg">
<path d="M10.7273 21C16.2501 21 20.7273 16.5229 20.7273 11C20.7273 5.47715 16.2501 1 10.7273 1C5.20445 1 0.727295 5.47715 0.727295 11C0.727295 16.5229 5.20445 21 10.7273 21Z" stroke="#ABDFFC"/>
<path fill-rule="evenodd" clip-rule="evenodd" d="M5.27259 11.1382C5.27259 13.6089 6.83534 15.7053 9.00283 16.4448C9.27573 16.4963 9.37518 16.3236 9.37518 16.1753C9.37518 16.0424 9.37049 15.6908 9.36781 15.2243C7.85061 15.5621 7.53049 14.4744 7.53049 14.4744C7.28236 13.8283 6.92474 13.6562 6.92474 13.6562C6.4295 13.3091 6.96225 13.3163 6.96225 13.3163C7.50973 13.3558 7.7977 13.8928 7.7977 13.8928C8.28457 14.7474 9.07448 14.5005 9.38523 14.3573C9.43478 13.9958 9.57575 13.7496 9.73146 13.6095C8.52031 13.4684 7.24687 12.9888 7.24687 10.8457C7.24687 10.2349 7.4595 9.7357 7.80841 9.34464C7.75249 9.20319 7.56531 8.63462 7.86199 7.86487C7.86199 7.86487 8.32007 7.71414 9.36179 8.43789C9.79709 8.31395 10.2635 8.25181 10.7273 8.24975C11.1907 8.25181 11.6572 8.31395 12.0932 8.43789C13.1342 7.71414 13.5916 7.86487 13.5916 7.86487C13.889 8.63462 13.7018 9.20319 13.6459 9.34464C13.9954 9.7357 14.2064 10.2349 14.2064 10.8457C14.2064 12.9939 12.9313 13.4667 11.7161 13.6054C11.912 13.7781 12.0861 14.1194 12.0861 14.6409C12.0861 15.3887 12.0798 15.992 12.0798 16.1753C12.0798 16.325 12.1779 16.4987 12.4548 16.4441C14.6203 15.7032 16.1817 13.6085 16.1817 11.1382C16.1817 8.04924 13.7393 5.5453 10.7266 5.5453C7.71499 5.5453 5.27259 8.04924 5.27259 11.1382Z" fill="#ABDFFC"/>
</svg>
