<svg width="22" height="22" viewBox="0 0 22 22" fill="none" xmlns="http://www.w3.org/2000/svg">
<path d="M11.1816 21C16.7045 21 21.1817 16.5229 21.1817 11C21.1817 5.47715 16.7045 1 11.1816 1C5.6588 1 1.18164 5.47715 1.18164 11C1.18164 16.5229 5.6588 21 11.1816 21Z" stroke="#747474"/>
<path fill-rule="evenodd" clip-rule="evenodd" d="M11.0162 8.47993C11.1959 8.74446 11.2862 9.05952 11.2862 9.42749C11.2862 9.80616 11.1959 10.1111 11.0139 10.3412C10.9111 10.4702 10.7614 10.5885 10.5631 10.6949C10.8642 10.8108 11.0908 10.9933 11.245 11.243C11.3981 11.492 11.4744 11.7958 11.4744 12.1525C11.4744 12.5198 11.3874 12.8504 11.2117 13.1416C11.1004 13.3348 10.9608 13.4983 10.7942 13.6303C10.606 13.7819 10.3846 13.8853 10.1281 13.9418C9.87162 13.9983 9.59423 14.0256 9.29425 14.0256H6.63618V7.8183H9.48689C10.2066 7.83019 10.7156 8.05014 11.0162 8.47993ZM7.8124 8.89664V10.2663H9.24679C9.50215 10.2663 9.71061 10.2145 9.87106 10.1117C10.0298 10.0095 10.1106 9.82756 10.1106 9.56719C10.1106 9.27769 10.0049 9.08687 9.79366 8.99354C9.61118 8.92934 9.37899 8.89664 9.09652 8.89664H7.8124ZM7.8124 11.2929V12.9479H9.24453C9.50045 12.9479 9.69988 12.9116 9.84224 12.8391C10.101 12.7035 10.2298 12.4455 10.2298 12.0645C10.2298 11.7405 10.1055 11.5194 9.85467 11.3981C9.714 11.3309 9.5174 11.2953 9.26487 11.2929H7.8124ZM15.0409 9.52914C15.3459 9.67241 15.5968 9.89889 15.7939 10.208C15.9742 10.4809 16.09 10.7971 16.1425 11.1568C16.173 11.3678 16.186 11.6716 16.1804 12.0681H13.0025C13.0212 12.5288 13.172 12.8516 13.459 13.0364C13.6336 13.1518 13.8432 13.2088 14.0884 13.2088C14.3471 13.2088 14.559 13.1393 14.7211 12.999C14.8104 12.9229 14.8883 12.8177 14.9561 12.6827H16.1205C16.09 12.955 15.9487 13.2314 15.6979 13.5132C15.3075 13.959 14.7601 14.1819 14.0573 14.1819C13.4765 14.1819 12.9636 13.9941 12.5212 13.6172C12.076 13.2409 11.8551 12.628 11.8551 11.7803C11.8551 10.9844 12.0551 10.3751 12.4551 9.95002C12.8562 9.52677 13.376 9.31395 14.0149 9.31395C14.3946 9.31395 14.7369 9.38529 15.0409 9.52914ZM13.3347 10.5659C13.1737 10.7406 13.072 10.9778 13.0308 11.2762H14.9962C14.9759 10.9576 14.8736 10.7163 14.6929 10.551C14.5098 10.3863 14.2844 10.3037 14.0155 10.3037C13.7234 10.3037 13.4957 10.3911 13.3347 10.5659ZM12.7359 8.88059H15.2635V8.1084H12.7359V8.88059Z" fill="#747474"/>
</svg>
