<svg width="46" height="64" viewBox="0 0 46 64" fill="none" xmlns="http://www.w3.org/2000/svg">
<path d="M22.9991 0C10.7528 0 0.789978 9.96431 0.789978 22.2109C0.789978 33.9992 20.9407 61.541 21.7987 62.7073L22.5994 63.797C22.6931 63.9251 22.8422 64 22.9991 64C23.1584 64 23.3065 63.9251 23.4011 63.797L24.2014 62.7073C25.0599 61.541 45.2101 33.9992 45.2101 22.2109C45.2101 9.96431 35.2456 0 22.9991 0ZM22.9991 14.255C27.3869 14.255 30.9549 17.8232 30.9549 22.2109C30.9549 26.5963 27.3867 30.1667 22.9991 30.1667C18.6138 30.1667 15.0432 26.5963 15.0432 22.2109C15.0432 17.8232 18.6136 14.255 22.9991 14.255Z" fill="#5E6266" fill-opacity="0.6" stroke="#5E6266" stroke-width="0.161735"/>
</svg>
