<svg width="18" height="16" viewBox="0 0 18 16" fill="none" xmlns="http://www.w3.org/2000/svg">
<path d="M2.00332 2.46979L2.00329 2.46977L2.00049 2.47298C1.13778 3.46471 0.692404 4.73963 0.755977 6.04049C0.819524 7.34082 1.38674 8.56793 2.34119 9.47481L7.80279 14.7914C8.11613 15.1673 8.56679 15.4075 9.0577 15.4626L9.0732 15.4643L9.08881 15.4641C9.23009 15.4623 9.3697 15.4325 9.49921 15.3764C9.62719 15.321 9.74287 15.2409 9.83922 15.1407L15.6538 9.47491C16.6102 8.56938 17.1792 7.34249 17.2438 6.04181C17.3085 4.74049 16.8632 3.46483 15.9999 2.47294L15.9999 2.47292L15.9979 2.47065C15.548 1.96622 14.9991 1.55522 14.384 1.26166C13.7694 0.96828 13.1008 0.798042 12.418 0.760797C11.1907 0.681844 9.97703 1.03801 8.99933 1.76104C7.98479 1.01921 6.72471 0.665316 5.45804 0.7697C4.12557 0.879506 2.88713 1.48811 2.00332 2.46979ZM14.5567 8.38027L14.5567 8.38026L14.5545 8.38242L8.97971 13.7942C8.95139 13.7693 8.92417 13.7432 8.89812 13.716L8.89822 13.7159L8.89236 13.7102L3.44667 8.38309L3.4467 8.38306L3.44336 8.37992C2.7716 7.74647 2.37208 6.88997 2.32315 5.98313C2.27426 5.07714 2.57878 4.18572 3.1772 3.48786C3.48994 3.13867 3.87111 2.85311 4.29878 2.64808C4.72507 2.44372 5.1889 2.32352 5.66349 2.29459L5.89602 2.29459L5.89735 2.29459C6.77815 2.28991 7.62848 2.60215 8.28576 3.16951C8.28807 3.17403 8.29119 3.1805 8.29505 3.18928C8.30953 3.2223 8.3267 3.26977 8.34653 3.33175C8.37497 3.4206 8.40403 3.52347 8.43528 3.63408C8.44801 3.67915 8.46111 3.7255 8.47468 3.77273C8.51957 3.929 8.56984 4.09543 8.6239 4.22459C8.65039 4.28788 8.68358 4.35661 8.72554 4.41348C8.75733 4.45657 8.84716 4.56663 9 4.56663C9.15281 4.56663 9.24265 4.45661 9.27444 4.41353C9.31641 4.35667 9.34963 4.28795 9.37614 4.22466C9.43025 4.09551 9.48057 3.92908 9.52553 3.77281C9.53912 3.72556 9.55224 3.67917 9.565 3.63408C9.59628 3.52349 9.62537 3.42066 9.65383 3.33182C9.67368 3.26984 9.69087 3.22236 9.70537 3.18934C9.70931 3.18036 9.71248 3.17381 9.7148 3.16926C10.0639 2.8649 10.4717 2.6305 10.915 2.47994C11.365 2.3271 11.8421 2.26386 12.3179 2.29409L12.3191 2.29416C12.7962 2.3223 13.2626 2.44268 13.691 2.64808C14.1188 2.85315 14.5 3.13877 14.8128 3.48805C15.4126 4.18475 15.7188 5.07555 15.6718 5.98158C15.6247 6.8884 15.227 7.74556 14.5567 8.38027Z" fill="#E95F5F" stroke="#E95F5F" stroke-width="0.5"/>
</svg>
