<svg xmlns="http://www.w3.org/2000/svg" viewBox="0 0 2568 1537"><defs><style>.cls-1{fill:#33536d;}.cls-2{fill:#fff;}.cls-3{fill:#e1f4ff;}.cls-4{fill:#2b2b2b;}.cls-5{fill:#fb635e;}.cls-6{fill:#367bc6;}.cls-7{fill:#fdbc40;}</style></defs><title>formbears</title><g id="Layer_5" data-name="Layer 5"><path class="cls-1" d="M2490.14,894.26c26.5,11.22,44.23,35.82,44.92,62.39.87,33.63-25.7,65.31-63.35,71.26,2.34,119.26-34.55,217.69-95,237.55-23.56,7.73-54.32,4.73-102.94,0-49.12-4.79-74-7.52-87.1-23.76-16.77-20.71-5-43.39-7.92-110.85a535.42,535.42,0,0,0-7.92-71.27l-71.26-7.92a255.3,255.3,0,0,1,7.92,79.19c-1.94,33.26-4.93,84.47-39.6,110.85-16.2,12.33-40.05,13.67-87.1,15.84-68.65,3.16-103,4.74-118.77-7.92-31-24.83-17-72.93-15.84-198,.57-59-1.93-106.72-4-136.4-34.1-1.91-52.63-13.18-63.34-23.75-52.68-52-22.59-191.39,81.23-345.83-63-14.89-105.44-72.21-101.33-132.41,3.55-52.08,41.36-97.84,94.42-113,4.26-24.95,18.12-85.55,69.08-140.27a273,273,0,0,1,109-71.13C2040,62.6,2062.47,43.5,2089,40c30.26-4,60.5,13,73.78,42a202.4,202.4,0,0,1,123.4,51.82c22.74-33.52,68.76-40.57,98.65-17.82,27.32,20.79,34.67,61.55,14.64,92.51q15,40.52,28.28,83.74C2494.81,511.56,2504.24,718.72,2490.14,894.26Z"/><path class="cls-2" d="M1927,290.91c-.14-1.12-.25-2.29-.47-3.4a3.74,3.74,0,0,0-.12-.48c0-.14-.1-.28-.15-.42-.4-1-.83-2.13-1.33-3.11a4.53,4.53,0,0,0-.43-.7c-.63-.88-1.33-1.82-2-2.63a2.52,2.52,0,0,0-.27-.3,25.57,25.57,0,0,0-3-2.35c-.21-.14-.42-.28-.64-.41a30.37,30.37,0,0,0-3.52-1.52,7.69,7.69,0,0,0-.9-.27,30.55,30.55,0,0,0-3.92-.55,5.91,5.91,0,0,0-.94,0c-.16,0-.31,0-.47,0-1.16.12-2.36.28-3.51.48a6,6,0,0,0-.9.23,25.69,25.69,0,0,0-3.58,1.53,14.8,14.8,0,0,0-1.88,1.37,11.76,11.76,0,0,0-1.87,1.58,8.84,8.84,0,0,0-2,2.81c-.23.33-.52.6-.72,1a24.46,24.46,0,0,0-1.45,3.55c0,.13-.05.25-.08.37-.21,1.15-.37,2.37-.47,3.53a5.17,5.17,0,0,0,0,.88,30.23,30.23,0,0,0,.54,3.9,6.36,6.36,0,0,0,.25.85,31.52,31.52,0,0,0,1.54,3.59c.14.24.28.48.44.7a30.55,30.55,0,0,0,2.39,3.05,8,8,0,0,0,.6.56c.84.7,1.76,1.42,2.66,2.05.13.1.27.19.41.28a15.42,15.42,0,0,0,4.34,1.81l.43.07c1.14.18,2.32.39,3.48.46a12.77,12.77,0,0,0,2.4-.24,15.17,15.17,0,0,0,2.37-.38l.41-.14c1.06-.41,2.15-.85,3.18-1.35a7,7,0,0,0,.69-.41c.91-.63,1.79-1.35,2.65-2l.39-.32a5.21,5.21,0,0,0,.56-.59,28.92,28.92,0,0,0,2.34-3.07,5.57,5.57,0,0,0,.4-.71,30.69,30.69,0,0,0,1.5-3.6,6.21,6.21,0,0,0,.21-.85c.19-1.1.34-2.29.46-3.4,0-.17,0-.33,0-.5A8.27,8.27,0,0,0,1927,290.91Z"/><path class="cls-2" d="M2143,321.23a21.47,21.47,0,0,0-1.4-3.46,5.93,5.93,0,0,0-.36-.65,15.39,15.39,0,0,0-2.78-3.41,17.28,17.28,0,0,0-3.59-2.56,26.5,26.5,0,0,0-3.5-1.43,15.89,15.89,0,0,0-2.36-.38,18.63,18.63,0,0,0-2.38-.27,26.12,26.12,0,0,0-3.85.47,15.55,15.55,0,0,0-4.35,1.64,5.23,5.23,0,0,0-.67.41c-.89.64-1.84,1.34-2.67,2.07-.11.1-.21.21-.32.32a9.48,9.48,0,0,0-1.68,2.18c-.21.29-.47.53-.66.85a13.79,13.79,0,0,0-1.75,4.17,29.57,29.57,0,0,0-.52,3.76,5.61,5.61,0,0,0,0,.82c.05.63.17,1.28.25,1.88s.14,1.27.26,1.89c.06.25.13.51.21.75a18.72,18.72,0,0,0,1.85,4.14,35,35,0,0,0,2.24,2.9,5.39,5.39,0,0,0,.58.59c.83.7,1.73,1.37,2.61,2l.29.2a4.32,4.32,0,0,0,.67.36,15.52,15.52,0,0,0,7.3,1.95,4.07,4.07,0,0,0,.78,0c1.14-.11,2.36-.25,3.49-.47l.43-.11a26.71,26.71,0,0,0,3.45-1.44,6,6,0,0,0,.77-.45,17.85,17.85,0,0,0,3.54-2.94c.68-.83,1.4-1.74,2-2.63a2.27,2.27,0,0,0,.22-.32,5.4,5.4,0,0,0,.4-.75,24.82,24.82,0,0,0,1.43-3.52,22.75,22.75,0,0,0,.56-3.86,5,5,0,0,0,0-.77A20.77,20.77,0,0,0,2143,321.23Z"/><path class="cls-2" d="M1938.56,348c-1.77-2.74-4.58-5.53-7.93-6.1l-31.94-5.42c-3.6-.61-6.94-.57-10.21,1.34a13.54,13.54,0,0,0-2.85,2.36c-5,1.95-8.86,7.14-8.62,12.45a13.55,13.55,0,0,0,13.26,13.25l36.84,2.06c6.58.37,12.19-5.32,13-11.49A12.66,12.66,0,0,0,1938.56,348Z"/><path class="cls-2" d="M2033.6,417.4c-5.46-3.19-13.13-1.37-16.25,4.26-.89,1.59-1.82,3.16-2.83,4.68-.51.76-1,1.5-1.56,2.24l-.18.25-.31.36a77.72,77.72,0,0,1-7.63,7.77c-.54.48-1.11.94-1.67,1.4,1.6-1.33-.29.22-.63.47-1.48,1.07-3,2.08-4.55,3s-3.15,1.84-4.77,2.67c-.82.42-1.64.8-2.46,1.21l-.54.27-.15.05a71.24,71.24,0,0,1-9.89,3.19c-1.77.42-3.56.75-5.36,1.08l-.34.07-.29,0c-.91.08-1.81.18-2.72.24a73.2,73.2,0,0,1-10.88-.16l-.45-.05c-.78-.12-1.56-.25-2.33-.4-2-.39-3.91-.89-5.84-1.45-6-1.74-13.2,2.11-14.61,8.29a12.11,12.11,0,0,0,8.29,14.61c34.72,10.14,74.65-6.21,92.21-37.85A12.11,12.11,0,0,0,2033.6,417.4Z"/><path class="cls-2" d="M2285.05,579.26c-41.77,7.8-80.92-13.71-116.5-32.65-30.64-16.32-66.81-36.81-102.92-30.07-32.67,6.1-47.41,37.22-45,68.07,2.46,31.56,18.67,61.45,40.66,83.76a152.07,152.07,0,0,0,94.4,44.84c10.15.93,10.09-14.92,0-15.84-56.28-5.13-110.8-50.87-118.72-108.26-1.89-13.69-.92-29,6.78-40.9,8.88-13.72,24.79-17.86,40.32-16.92,34.37,2.08,65.92,23.81,95.66,39.12,34,17.5,70.83,31.35,109.54,24.12C2299.27,592.66,2295,577.4,2285.05,579.26Z"/><path class="cls-3" d="M335.15,1130c-26.5,11.22-44.23,35.82-44.92,62.39-.87,33.64,25.7,65.32,63.34,71.26-2.33,119.26,34.56,217.69,95,237.55,23.56,7.74,54.32,4.74,102.94,0,49.12-4.79,74-7.51,87.1-23.75,16.77-20.71,5-43.4,7.92-110.86a535.44,535.44,0,0,1,7.92-71.26l71.26-7.92a255.19,255.19,0,0,0-7.92,79.18c1.94,33.26,4.93,84.47,39.59,110.86,16.21,12.33,40.06,13.66,87.11,15.83,68.65,3.17,103,4.75,118.77-7.92,32-25.62,17.84-76.5,15.84-197.95-1.08-65.29,1.87-118.85,4.62-154.49a459.27,459.27,0,0,0,15.47-153.79c24,4.25,139.61,22.23,218.16-50.56,13.81-12.79,70.92-65.71,55.56-120.73-6-21.57-23.45-44.41-47.7-52.61-35.71-12.07-63,15.41-111,30.15-32.53,10-81.18,16.15-149-4,63-14.89,105.44-72.2,101.33-132.4-3.55-52.08-41.36-97.84-94.42-113C967.85,511.08,954,450.47,903,395.76a273,273,0,0,0-109-71.14C786.49,297,763.42,276.49,736,273c-30.89-3.93-61.54,14.4-73.49,44.76a202.32,202.32,0,0,0-123.4,51.81C516.34,336,470.24,329,440.46,351.75,413.34,372.49,406,413.1,426,444c-10.11,26.29-19.72,54.3-28.46,84a1109.87,1109.87,0,0,0-44,268.49,307.78,307.78,0,0,1-47.5,7.92c-68.31,5.94-93.94-15-118.78,0-28,17-35.49,68-23.75,102.93,18.15,54,89.38,90.82,174.2,79.19A390.2,390.2,0,0,0,335.15,1130Z"/><path class="cls-1" d="M695.12,566.4c-.1-.69-.17-1.55-.32-2.3a5.53,5.53,0,0,0-.24-.79,27.55,27.55,0,0,0-1.78-4.12c-.07-.12-.15-.23-.22-.34-.78-1.09-1.67-2.26-2.55-3.28a4.26,4.26,0,0,0-.61-.59c-1-.81-2.15-1.74-3.2-2.48l-.39-.24a28.41,28.41,0,0,0-4.17-1.78,4,4,0,0,0-.75-.2,20.75,20.75,0,0,0-5.41-.57c-1.39.14-2.86.34-4.24.57l-.39.08a6.82,6.82,0,0,0-.77.23c-1.3.47-2.57,1.06-3.84,1.61l-.37.17a7.37,7.37,0,0,0-.78.43c-1.25.8-2.39,1.79-3.56,2.71-.23.18-.45.37-.67.58a5.77,5.77,0,0,0-.63.68c-.87,1.06-1.73,2.18-2.54,3.29-.09.12-.18.25-.26.38a18.75,18.75,0,0,0-2.18,5.08,3.2,3.2,0,0,0-.1.42c-.25,1.37-.45,2.9-.58,4.28a5.16,5.16,0,0,0,0,.88c.11,1.38.34,2.91.58,4.28a2.16,2.16,0,0,0,.1.44,25.68,25.68,0,0,0,1.82,4.37,11.16,11.16,0,0,0,3.82,4.16c.06.06.15.09.21.15a14.66,14.66,0,0,0,4,3.67,29.43,29.43,0,0,0,4.23,1.75,26.93,26.93,0,0,0,4.63.67,5.08,5.08,0,0,0,.78,0,31.27,31.27,0,0,0,4.62-.62,6.34,6.34,0,0,0,.74-.23c1.26-.49,2.6-1,3.82-1.61l.4-.2a23.59,23.59,0,0,0,4.24-3.2c.19-.18.38-.36.55-.55l.27-.32c.87-1.07,1.73-2.18,2.54-3.29a8.65,8.65,0,0,0,.85-1.44c.56-1.24,1.12-2.57,1.61-3.83.05-.13.1-.26.14-.39a6,6,0,0,0,.23-.83,44.35,44.35,0,0,0,.61-4.59,4.61,4.61,0,0,0,0-.83C695.36,567.92,695.21,567.06,695.12,566.4Z"/><path class="cls-1" d="M929.85,523.85c-.09-1.34-.32-2.74-.53-4.07a7.57,7.57,0,0,0-.29-1.16c-.44-1.24-1-2.48-1.54-3.67-.08-.18-.17-.36-.26-.54a10.93,10.93,0,0,0-.66-1,29.32,29.32,0,0,0-3-3.65,33.33,33.33,0,0,0-3.7-2.91,9.43,9.43,0,0,0-1.19-.69,30.53,30.53,0,0,0-4.39-1.82,28.5,28.5,0,0,0-4.8-.75,7.67,7.67,0,0,0-1.27-.06,41.09,41.09,0,0,0-4.14.53l-.66.13a4.88,4.88,0,0,0-.65.2c-1.28.48-2.59,1-3.82,1.62h0a5.85,5.85,0,0,0-1,.6,23.84,23.84,0,0,0-3.48,2.78,18.56,18.56,0,0,0-3.3,4.46,22.07,22.07,0,0,0-2,5.25,24.3,24.3,0,0,0-.61,5.73,40.57,40.57,0,0,0,.6,4.54,7.32,7.32,0,0,0,.29,1.14,19.08,19.08,0,0,0,2.33,5.09,27.34,27.34,0,0,0,2.71,3.44,25.36,25.36,0,0,0,3.57,2.81,6.84,6.84,0,0,0,1,.54c1.15.54,2.39,1.06,3.59,1.51a6.4,6.4,0,0,0,.62.2c.18,0,.36.08.55.12,1.29.23,2.68.41,4,.53a7.13,7.13,0,0,0,1.22,0,37.14,37.14,0,0,0,4.57-.61,8.37,8.37,0,0,0,1.19-.32,41.72,41.72,0,0,0,4.14-1.75,8.75,8.75,0,0,0,1.07-.62,21.88,21.88,0,0,0,4.37-3.6,30.88,30.88,0,0,0,2.69-3.52,26.74,26.74,0,0,0,1.83-4.14,17.14,17.14,0,0,0,1-5.75A4.16,4.16,0,0,0,929.85,523.85Z"/><path class="cls-1" d="M939.2,584.55c-.06-.28-.06-.57-.14-.85a12.1,12.1,0,0,0-14.32-8.79l-19.67,4.47c-6.23,1.42-12.74,2.44-18.8,4.45-8.08,2.67-15.61,7.91-17.71,16.67-2.42,10.09,3.11,19.13,12.52,22.82,7.18,2.82,14.84.69,21.94-1.22l19.27-5.16c7.79-2.1,15.57-5.35,19.08-13.16A18.6,18.6,0,0,0,939.2,584.55Z"/><path class="cls-1" d="M1202.55,827.19c-4.8-7.21-13.1-12-21.92-11.29-6.2-4.16-14.88-4.95-21.87-2.79a28.22,28.22,0,0,0-18.4,17.61c-3,8-1.57,17.25,2.25,24.69,3.9,7.6,11.39,12.91,19.39,15.46,16.1,5.12,35.64-2.34,42.35-18.24C1207.72,844.64,1207.46,834.58,1202.55,827.19Z"/><path class="cls-4" d="M1187.68,780.65a8.82,8.82,0,0,0-2.12-4,8.91,8.91,0,0,0-3.33-3.06l-2.84-1.2a11.48,11.48,0,0,0-1.53-.21c-.24-.19-.35-.5-.61-.67a10.65,10.65,0,0,0-8.78-2.34,8.77,8.77,0,0,0-4.41,1.41l-2.41,1.86a11.83,11.83,0,0,0-3.05,5.24c-.14,1.05-.28,2.1-.43,3.16a11.8,11.8,0,0,0,1.63,6l3.69,7.8a11.83,11.83,0,0,0,4.26,4.26,11.9,11.9,0,0,0,12,0,11.83,11.83,0,0,0,4.26-4.26l2.49-4.79a8.84,8.84,0,0,0,1.41-4.42A9,9,0,0,0,1187.68,780.65Z"/><path class="cls-4" d="M1250.26,793.1a8.91,8.91,0,0,0-1.41-4.42l-1.86-2.4a11.78,11.78,0,0,0-4.52-2.75,2.51,2.51,0,0,0-.24-.19,11.89,11.89,0,0,0-6-1.62l-3.16.43a11.83,11.83,0,0,0-5.24,3.05l-5.2,5.19a8.82,8.82,0,0,0-2.46,3.82,9,9,0,0,0-1,4.57l.42,3.16a9,9,0,0,0,2.13,4,6,6,0,0,0,2.13,2.13,9,9,0,0,0,4,2.13l3.16.42a11.89,11.89,0,0,0,6-1.62l7.56-4.11a8.91,8.91,0,0,0,3.33-3.06,8.81,8.81,0,0,0,2.12-4A9,9,0,0,0,1250.26,793.1Z"/><path class="cls-4" d="M1256.16,820.6l-1.86-2.41a11.83,11.83,0,0,0-5.24-3.05l-7.68-1.38a9,9,0,0,0-4.74-.22,8.84,8.84,0,0,0-4.42,1.41,9,9,0,0,0-3.32,3.06,8.87,8.87,0,0,0-2.13,4c-.14,1.05-.29,2.11-.43,3.16a11.89,11.89,0,0,0,1.62,6l1.86,2.4a11.76,11.76,0,0,0,5.24,3.06l7.68,1.39a9.1,9.1,0,0,0,4.74.21,8.84,8.84,0,0,0,4.42-1.41,9.08,9.08,0,0,0,3.33-3.06,9,9,0,0,0,2.12-4c.14-1,.29-2.11.43-3.16A11.89,11.89,0,0,0,1256.16,820.6Z"/><path class="cls-5" d="M862.44,691.82l-99.65-11.44c-17-2-31.68,16-31.68,31.67a29.13,29.13,0,0,0,8,20.57c1,8.4,5.33,16.56,14.33,22.43,41.86,27.33,93.27,20.94,131.35-9.16C909.07,726.74,886.08,694.54,862.44,691.82Z"/><path class="cls-2" d="M889.07,707l-9.24-7.43a8.22,8.22,0,0,0-9.55-.65c-8.48-3.27-17.24-6.05-26-5.88a42.8,42.8,0,0,0-11.16,2,45.55,45.55,0,0,0-9.73-2.86c-1.77-1.5-3.3-2.81-3.9-3.2a55.32,55.32,0,0,0-15.78-7,56.52,56.52,0,0,0-34.25,1.43,9.16,9.16,0,0,0-2.44,1.42,15.48,15.48,0,0,0-16.16-2c-11.23,5.24-11.42,21.36-.67,27.22,5.41,3,12.21,2,17.52-.66,6.11-3.07,9.71-9.09,15.35-12.69.17-.11.25-.26.41-.38a41.47,41.47,0,0,1,14.9.71,7.24,7.24,0,0,0,.07,7.67c6.79,9.89,17.28,10.84,27.68,8.71,4.21,1.93,8.71,2.24,13.77-1.21a8.87,8.87,0,0,0,2.46-2.59,32.56,32.56,0,0,1,13.73,1.51c8.52,2.69,16.86,6.09,25.24,9.19C888.59,722.93,895.18,712,889.07,707Z"/><path class="cls-1" d="M906.89,709.55a7.81,7.81,0,0,0-1.63-4.06c1.46-4,.26-8.79-5-10-36.2-7.92-72.37-17.09-108.85-23.67-14.9-2.69-31.13-3.65-44.67,4.42-10.19,6.07-17.28,16.34-20.72,27.56-7.9,25.75,4.83,51.25,26.56,65.51,26.48,17.37,59.76,15.27,88.82,6.32C871.59,766.37,910.42,747.29,906.89,709.55Zm-21.42,1.59h0l-.09,0c-.45.28-.89.59-1.35.86s-.92.52-1.4.76l-.73.34.66-.29c-.13.39-2.67.84-3.06.93l-.9.19h-.15l-.79,0c-.53,0-1.06,0-1.59,0l-.8,0a.43.43,0,0,0-.15,0c-.86-.2-2.25-.56-2.43-.62l-.34-.12c-.35-.23-1-.46-1.22-.61-.47-.27-.91-.58-1.37-.86-.08,0,0,0-.1,0l0,0a29.14,29.14,0,0,1-2.49-2.48l-.08-.1h0c-.33-.54-.71-1-1-1.6s-.5-1-.77-1.44c0-.08,0,0-.06-.09h0c-.24-.67-.42-1.36-.61-2.05L887.65,709C886.93,709.71,886.24,710.44,885.47,711.14Zm-41.8-11.78a22.67,22.67,0,0,1-7.86,7,20.58,20.58,0,0,1-15.79,1c-7.42-2.42-12.13-9.28-15.66-16.58Q824,695,843.67,699.36Zm-85.82-11c8-3.49,16.95-3.23,25.66-1.88a30.65,30.65,0,0,1-6,11.24A21.57,21.57,0,0,1,765,705.18l-1.52.26-1.42.07c-.7,0-1.41,0-2.11,0-.22,0-.78-.09-1-.12a25.44,25.44,0,0,1-3.32-.9l-.78-.33c-.56-.28-1.11-.58-1.64-.91,0,0-1.08-.75-1.19-.78-.27-.22-.53-.45-.79-.68-.56-.51-1-1-1.58-1.59l-.3-.3a.33.33,0,0,0-.08-.13,21.53,21.53,0,0,1-1.83-3.15A27.45,27.45,0,0,1,757.85,688.38Zm85,70.16c-24,8.16-51.51,12.94-75.18,1.26-17.87-8.81-31.28-26.57-27.59-46.87a34.76,34.76,0,0,0,4.12,3.34c6.84,4.65,15.29,5.79,23.31,4.49,11-1.79,19.8-8.83,25.6-17.92,5.56,9.47,13,17.4,24.55,20.31a35.57,35.57,0,0,0,34-9.38A29.3,29.3,0,0,0,868,728.47a27.86,27.86,0,0,0,19.81-.74C879.86,743.76,859.53,752.87,842.87,758.54Z"/><path class="cls-1" d="M226.93,867.69c4.8-7.21,13.1-12,21.92-11.29,6.2-4.16,14.88-4.95,21.87-2.79a28.22,28.22,0,0,1,18.4,17.61c3,8,1.57,17.25-2.25,24.69-3.9,7.61-11.39,12.92-19.39,15.46-16.1,5.12-35.64-2.34-42.35-18.23C221.76,885.14,222,875.08,226.93,867.69Z"/><path class="cls-4" d="M241.8,821.15a8.82,8.82,0,0,1,2.12-4,8.91,8.91,0,0,1,3.33-3.06l2.84-1.2a11.48,11.48,0,0,1,1.53-.21c.24-.19.35-.5.61-.67a8.91,8.91,0,0,1,4-2.12,9,9,0,0,1,4.74-.22,8.77,8.77,0,0,1,4.41,1.41l2.41,1.86a11.83,11.83,0,0,1,3.05,5.24c.15,1.05.29,2.11.43,3.16a11.8,11.8,0,0,1-1.63,6c-1.22,2.6-2.46,5.2-3.69,7.8a11.88,11.88,0,0,1-20.51,0L243,830.31a13.28,13.28,0,0,1-1.19-9.16Z"/><path class="cls-4" d="M179.22,833.6a9,9,0,0,1,1.42-4.42l1.85-2.4A11.78,11.78,0,0,1,187,824l.24-.19a11.89,11.89,0,0,1,6-1.62l3.16.43a11.83,11.83,0,0,1,5.24,3.05l5.2,5.19a8.88,8.88,0,0,1,2.46,3.82,9,9,0,0,1,1,4.58l-.42,3.15a9,9,0,0,1-2.13,4,6,6,0,0,1-2.13,2.13,9,9,0,0,1-4,2.13l-3.16.42a11.79,11.79,0,0,1-6-1.62l-7.55-4.11a11.47,11.47,0,0,1-5.68-11.83Z"/><path class="cls-4" d="M173.32,861.1l1.86-2.41a11.93,11.93,0,0,1,5.24-3.05l7.69-1.38a13.26,13.26,0,0,1,9.15,1.19,13.26,13.26,0,0,1,5.45,7.1c.15,1.05.29,2.11.43,3.16a11.89,11.89,0,0,1-1.62,6l-1.86,2.41a11.83,11.83,0,0,1-5.24,3l-7.68,1.39a9.1,9.1,0,0,1-4.74.21,8.84,8.84,0,0,1-4.42-1.41,9.08,9.08,0,0,1-3.33-3.06,9,9,0,0,1-2.12-4c-.14-1-.29-2.1-.43-3.16A11.89,11.89,0,0,1,173.32,861.1Z"/><rect class="cls-6" x="1188.09" y="690.17" width="231.88" height="174.2" transform="translate(-212.18 701.4) rotate(-27.93)"/><rect class="cls-5" x="1120.16" y="633.83" width="231.88" height="174.2" transform="translate(-74.18 1296.14) rotate(-53.95)"/><rect class="cls-7" x="53.29" y="705.51" width="231.88" height="174.2" transform="translate(-271.57 1472.74) rotate(-135)"/><path class="cls-1" d="M975.07,816.84c-4.14-9.3-18.6-2.82-14.44,6.51a215.44,215.44,0,0,1,17.52,110.18c-1.06,10.14,14.69,11.82,15.75,1.67A231.92,231.92,0,0,0,975.07,816.84Z"/><path class="cls-1" d="M912.88,1182.19c-32.26,45.3-82.32,75.92-137,85.17-10,1.69-5.78,17,4.21,15.27,58.89-10,111.91-43.91,146.48-92.45C932.48,1181.87,918.75,1174,912.88,1182.19Z"/><path class="cls-2" d="M2001.69,992.54c-38.51-6-72.77-32.93-86.31-69.74-1.48-4-5.37-6.73-9.74-5.52-3.86,1.06-7,5.7-5.53,9.74,15.34,41.7,53.21,73.9,97.36,80.79,4.23.66,8.52-1.08,9.75-5.53C2008.25,998.52,2005.94,993.2,2001.69,992.54Z"/><path class="cls-1" d="M363.58,1220.7a114.13,114.13,0,0,1-13.18-69.88c.54-4.29-4.06-8-8-8-4.77,0-7.46,3.7-8,8a128.44,128.44,0,0,0,15.36,78C354.75,1237.78,368.57,1229.72,363.58,1220.7Z"/><path class="cls-1" d="M464,957.63a195.9,195.9,0,0,1-88.33,10.2c-4.3-.48-8,4-8,8,0,4.73,3.69,7.52,8,8a206.65,206.65,0,0,0,92.58-10.77C477.88,969.62,473.74,954.15,464,957.63Z"/><path class="cls-1" d="M945.34,1150.29c-10.3,0-10.31,16,0,16S955.65,1150.29,945.34,1150.29Z"/><path class="cls-1" d="M366.66,1247.2c-10.3,0-10.32,16,0,16S377,1247.2,366.66,1247.2Z"/><path class="cls-1" d="M596,446.7c-2-6.36-9.1-11.45-16-9.08-13.06,4.49-23.83,15.3-26.26,29.23-1.16,6.68,1.78,14.33,9.08,16,6.32,1.44,14.74-1.91,16-9.08.17-1,.35-1.89.61-2.83.16-.56.42-1.26.47-1.44.31-.62.64-1.22,1-1.81.19-.31.92-1.22,1-1.35.31-.34.61-.68.94-1,0,0,1-.84,1.47-1.23s1.33-.8,1.46-.88l.41-.29c.16,0,.4-.11.74-.23C593.34,460.48,598.26,453.67,596,446.7Z"/><path class="cls-1" d="M887.52,388.11c-7.1-8.88-18.46-13.67-29.69-13.76-6.8-.06-13.31,6-13,13s5.71,12.94,13,13c.62,0,1.23,0,1.84,0l.87.17c.81.2,1.6.43,2.38.7l.33.16c.44.25,3.47,2.4,2.83,1.75a29.15,29.15,0,0,1,3.06,3.32c4.27,5.34,14,4.78,18.38,0C892.72,400.83,892.08,393.8,887.52,388.11Z"/><path class="cls-2" d="M1857.26,569.9a480,480,0,0,0-17.71,217.63c.63,4.28,6,6.64,9.84,5.59,4.58-1.26,6.22-5.55,5.59-9.84a462.07,462.07,0,0,1,17.71-209.12C1875.86,564.33,1860.42,560.13,1857.26,569.9Z"/><path class="cls-2" d="M1854.13,818.13c-10.3,0-10.32,16,0,16S1864.44,818.13,1854.13,818.13Z"/><path class="cls-2" d="M2489.13,911.53c-.34-10.27-16.34-10.32-16,0a171.43,171.43,0,0,1-5.71,50.21c-2.66,10,12.77,14.21,15.43,4.26A187.12,187.12,0,0,0,2489.13,911.53Z"/><path class="cls-2" d="M2469.5,983.44c-10.29,0-10.31,16,0,16S2479.82,983.44,2469.5,983.44Z"/><path class="cls-2" d="M2192.73,232.88a63.86,63.86,0,0,0-49.28-21.55c-16.7.39-16.76,26.39,0,26,12-.28,22.63,4.4,30.89,13.94,4.61,5.31,13.67,4.71,18.39,0C2198,246,2197.34,238.2,2192.73,232.88Z"/><path class="cls-2" d="M1953.66,193.67c-18.64-3.06-37-.34-53.54,8.94-14.6,8.16-1.51,30.63,13.13,22.45,10.25-5.74,22.33-8.15,33.5-6.32,6.92,1.14,14-1.8,16-9.08C1964.44,203.45,1960.62,194.82,1953.66,193.67Z"/></g></svg>