<?xml version="1.0" encoding="utf-8"?>
<!-- Generator: Adobe Illustrator 24.0.3, SVG Export Plug-In . SVG Version: 6.00 Build 0)  -->
<svg version="1.1" id="Layer_1" xmlns="http://www.w3.org/2000/svg" xmlns:xlink="http://www.w3.org/1999/xlink" x="0px" y="0px"
	 viewBox="0 0 996.4 896.3" style="enable-background:new 0 0 996.4 896.3;" xml:space="preserve">
<style type="text/css">
	.st0{fill:#FFFFFF;stroke:#2B2B2B;stroke-width:10;stroke-linecap:round;stroke-linejoin:round;}
	.st1{fill:#FB635E;}
	.st2{fill:#FFFFFF;}
	.st3{fill:#2B2B2B;}
	.st4{fill:#2B2B2B;stroke:#2B2B2B;stroke-width:7;stroke-miterlimit:10;}
</style>
<title>formbear</title>
<path class="st0" d="M977.1,884l-666,3c-14.2-51.4-19.6-104.8-15.9-157.9c-24.7,4.4-143.4,22.8-224-51.9
	c-14.2-13.1-72.8-67.5-57-124c6.2-22.1,24.1-45.6,49-54c36.7-12.4,64.7,15.8,114,31c33.4,10.2,83.4,16.6,153-4.1
	c-64.7-15.3-108.3-74.1-104.1-136c3.6-53.5,42.5-100.5,97-116c4.4-25.6,18.6-87.9,70.9-144c30.9-33,69.3-58.1,112-73
	c1.2-2.2,21.3-39,64-42c28.2-1.9,55.3,11.4,71,35c47.1,2.8,91.7,21.6,126.7,53.2C791,68.8,838.3,61.5,869,84.9
	c28,21.3,35.6,63.2,15,95c10.3,27.7,19.9,56.4,29,86C981.9,491.1,991.6,703.8,977.1,884z"/>
<path class="st1" d="M512.1,412.7c-2.1-3.4-8.2-3.2-9.1,1.2c-1.1,5.8-2.3,11.5-3.5,17.3c-1.5,0.9-3,1.9-4.5,3
	c-1.6-1.9-4.3-2.5-6.5-1.5l-6.7,3.3c-0.7-0.4-1.4-0.7-2.2-0.9c-2.4-0.6-5,0.2-6.6,2.2l-0.9-2.7c-1.5-4.5-8.4-5-9.6,0
	c-1.4,5.9-2.9,11.8-4.3,17.6c-1.5-0.8-3.3-0.7-4.6,0.4c-1.5,0.1-2.9,0.3-4.3,0.5c-1.9,0.1-3.5,1.6-3.6,3.5c-1.5-1-3-2.1-4.6-3.2
	c-2.1-1.5-4.4-2.7-6.8-3.5c-0.8-3-3.9-5.2-7-2.9l-4.9,3.5c-1,0.7-1.6,1.7-1.9,2.9l-15.1-3.9c-2.2-0.7-4.6,0.4-5.6,2.6
	c-3.3-3.8-5.3-8.6-5.8-13.6c-0.5-6.4-10.5-6.4-10,0c1,13.1,9.3,24.3,20.9,30.3c2.8,1.5,5.8,2.6,8.8,3.5c15,15.5,39.2,16,55.4,1.9
	c3.6,0,7.1-0.7,10.5-1.9c0.4-0.2,0.8-0.4,1.2-0.5c1.7,0.7,3.8,0.3,5-1.2c1-1.2,2.1-2.4,3.1-3.5c10.3-1.9,19.2-8.2,24.4-17.2
	C519.8,438.3,519.1,423.8,512.1,412.7z M505.3,442.2l0.2-0.1c-0.8,1.9-1.9,3.7-3.1,5.4C503.4,445.8,504.4,444,505.3,442.2
	L505.3,442.2z"/>
<path class="st2" d="M425.7,433.6l-3.7-3.5c-1.9-1.9-5-1.9-6.9,0c-0.3,0.3-0.6,0.7-0.9,1.2c-1.8-1.5-3.8-2.9-5.9-4.1
	c-2.1-1.3-4.8-0.8-6.2,1.2c-4.2-1.1-8.7,4.5-4.8,8.4l10.1,10c0.2,0.2,0.4,0.3,0.6,0.5c0.3,3.5,3.9,6.7,7.3,4.1l5.1-3.9
	c1.1-0.3,2-1,2.5-2c1.2-0.9,1.9-2.3,1.9-3.8l0.9-0.9C427.6,438.6,427.6,435.5,425.7,433.6z"/>
<path class="st2" d="M451.8,424.4c-1.5,1.4-2.4,3.4-2.4,5.5c-2.5-3.8-8.8-2.5-9.3,1.7c-4.2-3.4-10.2,3.2-6.3,7.8l9.8,11.5
	c2.1,2.5,5.1,1.8,6.9-0.1c1.2,0.4,2.5,0.5,3.6,0.1c3.6-1.1,4.6-4.5,4.8-7.9c0.1-2.2,0.1-4.5,0.2-6.7l0.1-3v-0.1
	c0.1-0.1,0.3-0.2,0.4-0.4C465.2,427.7,457.4,419.6,451.8,424.4z"/>
<path class="st1" d="M407.8,456.1c-3-2.5-5.7-5.3-8.1-8.4c-1.7-2.1-5.3-1.7-7.1,0c-2.1,2.1-1.7,4.9,0,7.1c2.4,3.1,5.1,5.8,8.1,8.4
	c2.1,1.7,5,2,7.1,0C409.6,461.4,409.9,457.8,407.8,456.1z"/>
<path class="st1" d="M504.9,428.8c-1.9-1.5-3.8-1.8-6.1-0.8c-4.8,2.3-9.1,5.2-13.1,8.8c-4.8,4.3,2.3,11.4,7.1,7.1
	c2.3-2,4.7-3.7,7.3-5.2c3.1,7.2-10.9,17.3-23,24.1c2.9-9,2.2-19.1-2.1-27.9c-2.8-5.8-11.5-0.7-8.6,5c5.2,10.5,2.4,23.3-6,31.2
	c-3.6,3.3,0.1,10,4.9,8.4c13.1-4.5,25.8-12.6,36.2-21.7C509.5,450.8,515.1,436.8,504.9,428.8z"/>
<path class="st2" d="M499,416.2c-1.4-7.7-12.5-5.3-17.6-3.5c-0.6,0.2-1.1,0.5-1.6,0.9c-2.5,0.2-5,0.6-7.4,1.3
	c-0.8,0.2-1.6,0.7-2.2,1.4c-4.5,1.2-3.8,9.2,1.9,9.9c2,0.2,4,0.6,6,1.2c0.3,3.3,4.5,5.3,7.6,3.7C490.6,428.6,500.2,423,499,416.2z"
	/>
<path class="st3" d="M564.6,286.1c-9.4,0-18.4,8.3-18,18c0.4,9.8,7.9,18,18,18c9.4,0,18.4-8.3,18-18
	C582.1,294.3,574.7,286.1,564.6,286.1z"/>
<path class="st3" d="M382.6,247.5c-9.4,0-18.4,8.3-18,18c0.4,9.8,7.9,18,18,18c9.4,0,18.4-8.3,18-18
	C400.1,255.7,392.7,247.5,382.6,247.5z"/>
<path class="st3" d="M407.7,337.8c-2.3-4.2-5.8-7.3-9.6-9.8c-4.4-4.6-10.5-7.9-16.6-10.5c-0.5-0.5-1.1-0.9-1.8-1.1
	c-8.7-3.2-17.8-5.3-27.1-6.3c-8.2-0.9-17.5-1.5-25.5,1.2c-7.1,2.4-13.5,7.7-15,15.3c-1.4,7.1,2.1,13.9,7.1,18.7
	c6,5.8,14,9.6,21.6,12.8c8.3,3.6,17,6.3,25.8,8c12.5,2.4,30.4,5.2,39.9-5.8C411.9,353.9,411.7,344.9,407.7,337.8z"/>
<path class="st3" d="M518.5,411.5c-8.8-8.9-22.2-9.8-33.7-6.9c-15.1,3.8-29.6,11.8-43.8,17.9c-0.8,0.6-1.7,1-2.6,1.4
	c-3.8,2.4-8.6,2.9-12.9,1.2c-0.6-0.2-1.2-0.3-1.8-0.3c-11.2-3.5-23.2-6.1-34.2-0.9c-9.8,4.6-16,14.7-13.3,25.6
	c2.7,11.1,12.5,19.2,21.7,25c31.8,19.9,72.7,17.9,102.4-5.2C516,457.3,537,430.2,518.5,411.5z M497.8,413.1c-2,6-4.9,12.5-11.1,14.5
	c-6.6,2-12.9-2-18-6.2c2.6-1.1,5.3-2.3,8-3.4C483.4,415.2,490.6,412.7,497.8,413.1L497.8,413.1z M443.4,432.5c0.4-0.3,0.8-0.6,1.1-1
	c0.5-0.1,1-0.2,1.5-0.4c4-1.7,7.9-3.5,11.9-5.2c0.8,7.1,1.3,16.1-4.9,20.6c-7.9,5.6-14.5-4.4-17.4-10.9
	C438.4,435,441,434,443.4,432.5z M423.9,435.3c0.5,0.2,1,0.2,1.5,0.2c0,0.1,0,0.1,0,0.2c-0.8,6.2-7.4,11.5-13.6,10.6
	c-6.6-1-10.6-7.7-10.2-14c0-0.5,0-0.9-0.1-1.4C408.9,430.3,417,433.1,423.9,435.3L423.9,435.3z M514.6,434.6
	c-2.4,9.1-8.7,16.5-15.5,22.8c-28.3,26-75.9,28.5-104.9,1.9c-7.2-6.6-13.2-17.7-3.2-24.8c0.1-0.1,0.3-0.2,0.5-0.3
	c0.2,11,9,21.2,20.2,22.1c7.6,0.5,14.9-3,19.2-9.3c5.5,7.9,13.5,13.7,23.7,9.9s13.3-13.9,13.6-23.9c6.4,4,13.6,6.4,21.2,4.1
	c10.1-3,14.8-12.3,18.1-21.5C514.2,419.4,516.7,426.8,514.6,434.6L514.6,434.6z"/>
<path class="st4" d="M406.5,185.6h-18.9c-6.4,0-6.5,10,0,10h18.9C412.9,195.6,412.9,185.6,406.5,185.6z"/>
<path class="st3" d="M584.8,43.2c-22-3.2-44.5,0-64.8,9.3c-5.8,2.7-0.8,11.3,5,8.6c17.8-8.1,37.6-11,57.1-8.3
	C588.4,53.8,591.1,44.1,584.8,43.2z"/>
<path class="st3" d="M609.8,44.5h-8.7c-2.8,0-5,2.2-5,5s2.2,5,5,5h8.7c2.8,0,5-2.2,5-5S612.5,44.5,609.8,44.5z"/>
<path class="st3" d="M878.6,129.7c-18.9-10.1-42.4-9.1-60.1,3.1c-5.3,3.6-0.3,12.3,5,8.6c14.8-10.3,34.1-11.5,50-3.1
	C879.2,141.3,884.3,132.7,878.6,129.7z"/>
<path class="st4" d="M594.2,217.7l-19.5-6.8c-6.1-2.1-8.7,7.5-2.7,9.6l19.5,6.8C597.7,229.5,600.3,219.8,594.2,217.7z"/>
<path class="st3" d="M109.8,548.9c-9.8-3.7-22.5-6.7-33.4-4.4c-4.6,0-9.5,1.8-12.4,4.5c-0.1,0.1-0.2,0.2-0.2,0.3
	c-0.5,0.4-1,1-1.3,1.7c-7.2,15.1-14.9,34.2-3.9,49.6c8.2,11.4,21.1,12.3,32.9,8.5c1.8-0.3,3.5-0.8,5.2-1.4c6.9-2.6,12.8-7,18.3-11.8
	c5.2-4.5,10.3-9.7,12.8-16.3C133,565.4,122.2,553.6,109.8,548.9z"/>
<path class="st3" d="M129.9,526.7c-2.4-5.6-9.3-8.9-14.9-5.8c-3,1.8-4.8,5.2-4.6,8.7c0,0.2,0,0.4-0.1,0.6l0,0c0,0.1,0,0.1,0,0.2
	c-0.2,2.2,0.2,4.3,1.1,6.3c0.6,1.5,1.5,2.7,2.8,3.7c0.5,0.5,1,1,1.6,1.5c1.3,1.1,2.9,1.6,4.6,1.3c1.7,0.4,3.4,0.2,5-0.5
	C131.2,540,132.2,532,129.9,526.7z"/>
<path class="st3" d="M74.8,502.9c-0.3-0.6-0.7-1.1-1.3-1.5c-0.9-1.5-2.5-2.3-4.2-2.3c-1.8,0.1-3.5,1.1-4.4,2.7
	c-2.6,1.5-4.5,3.9-5.4,6.8c-1.3,4.2,0.7,8.7,4.7,10.6c4,1.8,8.3-0.3,10.5-3.9C77,511.3,76.6,506.7,74.8,502.9z"/>
<path class="st3" d="M44.1,523.3c-1.9-2.2-5.1-2.9-7.8-1.8c-1.8,0.8-3.2,2.3-3.9,4.2c-0.7,0.9-1.1,1.9-1.1,3.1v0.8
	c-0.2,0.6-0.4,1.2-0.4,1.9c-0.1,0.9,0,1.9,0.2,2.8c0,0.2,0,0.4-0.1,0.7c-0.3,2.7,2.5,5,5,5c0.3,0,0.5,0,0.8-0.1
	c2,0.3,4.1-0.2,5.7-1.5c2.2-1.7,3.1-4.2,3.5-6.9C46.3,528.6,46.2,525.6,44.1,523.3z"/>
<path class="st3" d="M35.2,557.3c0-2.5-1.4-4.7-3.6-5.9c-2.3-1.1-5-1-7.2,0.4c-1.8,1.1-3.1,3-3.5,5.1c-1.8,3-0.9,6.8,2,8.8
	c1.2,1.4,3.1,2,4.9,1.4c0.7-0.2,1.3-0.6,1.9-1.1C32.9,564.3,35,561,35.2,557.3z"/>
<path class="st3" d="M751.3,656v159.1c0,6.4,10,6.5,10,0V656C761.3,649.6,751.3,649.6,751.3,656z"/>
<path class="st3" d="M760.2,581.4c-6.4,0-6.5,10,0,10S766.7,581.4,760.2,581.4z"/>
<path class="st3" d="M331.6,544.2c-11.9,25-19.2,52-21.7,79.5c-0.6,6.4,9.4,6.4,10,0c2.4-25.8,9.3-51.1,20.4-74.5
	C342.9,543.4,334.3,538.3,331.6,544.2z"/>
<path class="st3" d="M302.8,701.7c-6.4,0-6.5,10,0,10S309.2,701.7,302.8,701.7z"/>
<path class="st3" d="M313.1,638.2c-2.4-0.7-5.7,0.8-6.1,3.5l-1.6,10.2c-0.4,2.7,0.7,5.4,3.5,6.2c2.4,0.7,5.7-0.8,6.1-3.5
	c0.5-3.4,1-6.8,1.6-10.2C317,641.7,316,639,313.1,638.2z"/>
</svg>
