<svg xmlns="http://www.w3.org/2000/svg" viewBox="0 0 2650 2300"><defs><style>.cls-1{fill:#aee0fc;}.cls-2{fill:#e0e0e0;}.cls-3{fill:#8acefd;}.cls-4{isolation:isolate;}.cls-5{fill:#fff;}.cls-6{fill:#9a5ff9;}.cls-7{fill:#367bc6;}.cls-8{fill:#34c84a;}.cls-9{fill:#fdbc40;}.cls-10{fill:#fb635e;}</style></defs><title>screen2</title><g id="Layer_5" data-name="Layer 5"><polygon class="cls-1" points="1049.69 168.97 1051.99 274.54 963.79 251.44 961.48 145.87 1049.69 168.97"/><polygon class="cls-2" points="1280.62 296.62 1281.12 319.47 1089.57 269.3 1089.07 246.45 1280.62 296.62"/><polygon class="cls-2" points="1116.86 324.33 1117.58 356.86 965.25 316.97 964.54 284.44 1116.86 324.33"/><polygon class="cls-3" points="1133.19 396.1 1135.2 487.88 978.68 446.88 978.21 446.76 976.2 354.99 1133.19 396.1"/><g class="cls-4"><polygon class="cls-2" points="1093.28 658.65 1093.53 670.14 990.23 643.09 989.98 631.6 1093.28 658.65"/><path class="cls-5" d="M982.35,619.16l156.35,41,1,44.31L983.32,663.47Zm111.18,51-.26-11.49L990,631.6l.25,11.49,103.3,27m-15.79,9.78-.18-8-40.68-10.65.17,8,40.69,10.65M1031,667.82l-.17-8-40.32-10.56.18,8L1031,667.82"/><polygon class="cls-6" points="1027.15 487.56 1027.33 495.54 987.02 484.98 986.85 477 1027.15 487.56"/><polygon class="cls-7" points="1073.89 499.66 1074.06 507.64 1033.38 496.98 1033.21 489 1073.89 499.66"/><polygon class="cls-2" points="1089.6 486.36 1089.85 497.86 986.56 470.81 986.31 459.31 1089.6 486.36"/><polygon class="cls-8" points="1342.85 622.34 1344.85 714.1 1188.34 673.11 1187.86 672.98 1185.86 581.22 1342.85 622.34"/><path class="cls-2" d="M1181.53,574.85l165.72,43.41,3.15,144,.07,2.9L1184.75,721.8Zm163.16,139.21-1.85-91.72-157-41.12,2,91.76.48.13,1,44.31,156.35,41-1-44.31"/><polygon class="cls-9" points="1283.55 725.89 1283.72 733.87 1243.04 723.21 1242.86 715.24 1283.55 725.89"/><path class="cls-2" d="M1180.46,572.62l168.84,44.22,3.2,146,.1,4.68-168.84-44.22ZM1350.4,762.4l-3.15-144.14-165.72-43.41,3.22,146.95,165.72,43.41-.07-2.81"/><path class="cls-2" d="M1176.26,400.29l168.84,44.22,3.2,146,.1,4.69L1179.56,551Zm170.49,189.94-3.16-144.15-165.71-43.4,3.21,147L1346.81,593l-.06-2.81"/><path class="cls-2" d="M1177.88,402.68l165.71,43.4,3.15,144,.07,2.92-165.72-43.4ZM1341,541.89l-1.85-91.73-157-41.11,2,91.77.48.12,1,44.31,156.36,41-1-44.31"/><path class="cls-5" d="M1184.68,500.94,1341,541.89l1,44.31-156.36-41Zm111.17,51-.25-11.5-103.29-27,.25,11.49,103.29,27.06m-15.79,9.78-.17-8-40.68-10.66.18,8,40.67,10.66m-46.73-12.1-.18-8-40.31-10.56.17,8,40.32,10.56"/><polygon class="cls-2" points="1279.4 236.34 1280.39 281.8 1088.84 231.63 1087.84 186.17 1279.4 236.34"/><path class="cls-10" d="M949.46,52.18c5.54,1.45,10.16,8,10.3,14.67s-4.23,10.86-9.77,9.41-10.16-8-10.31-14.67S943.92,50.73,949.46,52.18Z"/><path class="cls-9" d="M987.43,62.13c5.54,1.45,10.15,8,10.3,14.67S993.5,87.66,988,86.21s-10.15-8-10.3-14.67S981.88,60.67,987.43,62.13Z"/><path class="cls-8" d="M1025.39,72.07c5.55,1.45,10.16,8,10.31,14.67s-4.24,10.86-9.78,9.41-10.16-8-10.3-14.67S1019.85,70.62,1025.39,72.07Z"/><path class="cls-5" d="M922.62,27l457.21,119.74,1.28,58.71L923.9,85.64ZM950,76.26c5.54,1.45,9.92-2.75,9.77-9.41S955,53.63,949.46,52.18s-9.92,2.77-9.78,9.41S944.44,74.81,950,76.26m38,9.94c5.54,1.46,9.92-2.75,9.78-9.41S993,63.58,987.42,62.12s-9.92,2.77-9.77,9.41S982.41,84.75,988,86.2m38,10c5.54,1.45,9.92-2.76,9.77-9.41s-4.75-13.22-10.3-14.67-9.92,2.76-9.77,9.41,4.76,13.22,10.3,14.67"/><path class="cls-2" d="M1399.21,820.63l-14.83-678.27L917.81,20.16,932.7,701.24l466.57,122.19ZM937.26,696.85,924,91.25l-3.68-1-.12-5.61,3.68,1L922.62,27l457.2,119.74,2.18,58.94-.77,5.39,13.24,605.51L937.26,696.85"/><polygon class="cls-10" points="1077.57 671.94 1077.74 679.92 1037.05 669.27 1036.88 661.29 1077.57 671.94"/><polygon class="cls-7" points="1136.86 568.39 1138.87 660.15 982.35 619.16 981.88 619.04 979.87 527.27 1136.86 568.39"/><path class="cls-2" d="M975.55,520.91l165.72,43.4,3.15,144.05.06,2.9-165.72-43.4Zm163.15,139.2-1.84-91.72-157-41.12,2,91.77.47.12,1,44.31,156.35,40.95-1-44.31"/><path class="cls-2" d="M1146.61,713.59l-.1-4.68-3.19-146L974.48,518.67l3.29,150.7Zm-5.34-149.28,3.15,144.14.06,2.81-165.72-43.4-3.21-147,165.72,43.4"/><polygon class="cls-8" points="990.69 657.27 1031 667.83 1030.83 659.84 990.51 649.28 990.69 657.27"/><polygon class="cls-6" points="1236.81 713.78 1236.99 721.77 1196.67 711.21 1196.5 703.23 1236.81 713.78"/><path class="cls-2" d="M971.88,348.62,1137.59,392l3.15,144.15.07,2.8-165.72-43.4ZM1135,487.83l-1.85-91.73L976.2,355l2,91.77.47.12,1,44.3L1136,532.13l-1-44.3"/><path class="cls-5" d="M978.68,446.88,1135,487.83l1,44.3L979.65,491.19Zm111.17,51-.25-11.5L986.31,459.31l.25,11.49,103.29,27.06m-15.79,9.78-.17-8L1033.21,489l.17,8,40.68,10.66m-46.73-12.1-.18-8L986.84,477l.18,8,40.31,10.56"/><path class="cls-5" d="M1188.34,673.11l156.35,40.95,1,44.31-156.35-41Zm111.17,51-.25-11.49L1196,685.54l.25,11.5,103.29,27.05m-15.79,9.78-.17-8-40.69-10.65.18,8,40.68,10.66M1237,721.77l-.18-8-40.31-10.55.17,8L1237,721.77"/><polygon class="cls-2" points="1299.26 712.6 1299.51 724.09 1196.22 697.04 1195.96 685.54 1299.26 712.6"/><polygon class="cls-7" points="1233.15 541.62 1233.33 549.6 1193.01 539.04 1192.84 531.06 1233.15 541.62"/><polygon class="cls-10" points="1279.89 553.72 1280.07 561.7 1239.39 551.04 1239.21 543.06 1279.89 553.72"/><polygon class="cls-2" points="1295.6 540.42 1295.85 551.92 1192.56 524.86 1192.31 513.37 1295.6 540.42"/><polygon class="cls-9" points="1339.19 450.16 1341.19 541.93 1184.68 500.94 1184.2 500.82 1182.2 409.05 1339.19 450.16"/><path class="cls-5" d="M937.26,696.85,924,91.25l457.21,119.83,13.24,605.51Zm411-106.33-3.19-146-168.84-44.22,3.3,150.7,168.84,44.22-.11-4.69M1146.51,708.91l-3.19-146L974.48,518.67l3.29,150.7,168.84,44.22-.1-4.68m206,53.94-3.19-146-168.84-44.22,3.3,150.7,168.84,44.22-.11-4.69M1137.59,392l-165.71-43.4,3.21,147L1140.8,539l-.06-2.8L1137.59,392M961.48,145.86l2.31,105.58,88.2,23.1L1049.69,169l-88.21-23.11m126.36,40.31,1,45.46,191.56,50.17-1-45.46-191.56-50.17m29.73,170.69-.71-32.53L964.54,284.44l.71,32.53,152.32,39.89m-28.5-110.41.5,22.85,191.55,50.16-.5-22.85-191.55-50.16"/><polygon class="cls-2" points="920.22 84.68 923.9 85.64 1381.11 205.46 1382.12 211.31 924.02 91.25 920.34 90.29 920.22 84.68"/></g></g></svg>