<svg width="23" height="22" viewBox="0 0 23 22" fill="none" xmlns="http://www.w3.org/2000/svg">
<path d="M11.1816 21C16.7045 21 21.1817 16.5229 21.1817 11C21.1817 5.47715 16.7045 1 11.1816 1C5.6588 1 1.18164 5.47715 1.18164 11C1.18164 16.5229 5.6588 21 11.1816 21Z" stroke="#8D8D8D" stroke-width="2"/>
<path fill-rule="evenodd" clip-rule="evenodd" d="M11.0162 8.47999C11.1959 8.74452 11.2863 9.05958 11.2863 9.42755C11.2863 9.80622 11.1959 10.1112 11.014 10.3412C10.9112 10.4702 10.7615 10.5885 10.5632 10.6949C10.8643 10.8108 11.0908 10.9933 11.245 11.243C11.3981 11.4921 11.4744 11.7959 11.4744 12.1525C11.4744 12.5199 11.3874 12.8504 11.2117 13.1417C11.1004 13.3349 10.9609 13.4984 10.7942 13.6303C10.6061 13.7819 10.3846 13.8854 10.1282 13.9418C9.87167 13.9983 9.59428 14.0257 9.29429 14.0257H6.63623V7.81836H9.48694C10.2067 7.83025 10.7157 8.0502 11.0162 8.47999ZM7.81244 8.8967V10.2663H9.24684C9.50219 10.2663 9.71066 10.2146 9.8711 10.1118C10.0299 10.0095 10.1106 9.82762 10.1106 9.56725C10.1106 9.27775 10.005 9.08693 9.7937 8.9936C9.61123 8.9294 9.37904 8.8967 9.09656 8.8967H7.81244ZM7.81244 11.2929V12.9479H9.24458C9.5005 12.9479 9.69992 12.9116 9.84229 12.8391C10.101 12.7036 10.2298 12.4456 10.2298 12.0646C10.2298 11.7406 10.1056 11.5194 9.85472 11.3982C9.71405 11.331 9.51745 11.2953 9.26492 11.2929H7.81244ZM15.0409 9.5292C15.346 9.67246 15.5968 9.89895 15.794 10.2081C15.9742 10.4809 16.09 10.7972 16.1426 11.1568C16.1731 11.3678 16.1861 11.6716 16.1804 12.0681H13.0026C13.0212 12.5288 13.1721 12.8516 13.4591 13.0365C13.6336 13.1518 13.8432 13.2089 14.0884 13.2089C14.3472 13.2089 14.559 13.1393 14.7212 12.999C14.8104 12.9229 14.8884 12.8177 14.9562 12.6828H16.1205C16.09 12.955 15.9488 13.2315 15.6979 13.5132C15.3076 13.9591 14.7601 14.182 14.0573 14.182C13.4766 14.182 12.9636 13.9942 12.5213 13.6173C12.0761 13.241 11.8552 12.6281 11.8552 11.7804C11.8552 10.9844 12.0552 10.3751 12.4552 9.95007C12.8563 9.52682 13.376 9.31401 14.015 9.31401C14.3946 9.31401 14.737 9.38534 15.0409 9.5292ZM13.3348 10.5659C13.1738 10.7407 13.0721 10.9779 13.0308 11.2763H14.9963C14.9759 10.9577 14.8737 10.7163 14.6929 10.5511C14.5099 10.3864 14.2844 10.3038 14.0155 10.3038C13.7235 10.3038 13.4958 10.3912 13.3348 10.5659ZM12.7359 8.88065H15.2635V8.10845H12.7359V8.88065Z" fill="#8D8D8D"/>
</svg>
