<svg width="22" height="22" viewBox="0 0 22 22" fill="none" xmlns="http://www.w3.org/2000/svg">
<path fill-rule="evenodd" clip-rule="evenodd" d="M6.95955 9.60555C7.08606 9.68816 7.46736 9.93358 8.10352 10.3416C8.73969 10.7496 9.22702 11.0639 9.56558 11.2842C9.60277 11.3083 9.68181 11.3608 9.8027 11.4417C9.92359 11.5227 10.0241 11.5882 10.104 11.6381C10.184 11.6879 10.2807 11.7439 10.3942 11.8059C10.5077 11.8678 10.6147 11.9143 10.7151 11.9452C10.8156 11.9763 10.9086 11.9917 10.9941 11.9917H10.9998H11.0054C11.0909 11.9917 11.1839 11.9763 11.2844 11.9452C11.3848 11.9143 11.4919 11.8677 11.6053 11.8059C11.7187 11.7439 11.8154 11.6879 11.8954 11.6381C11.9754 11.5882 12.0759 11.5227 12.1967 11.4417C12.3176 11.3607 12.3967 11.3083 12.4339 11.2842C12.7761 11.0638 13.6467 10.5042 15.0455 9.60542C15.3171 9.42987 15.5439 9.21806 15.7263 8.97011C15.9087 8.72228 15.9998 8.46228 15.9998 8.19024C15.9998 7.96295 15.9113 7.76838 15.7346 7.60652C15.5579 7.44467 15.3486 7.36377 15.1069 7.36377H6.89256C6.60613 7.36377 6.38572 7.45329 6.23133 7.63233C6.07695 7.81143 5.99976 8.03529 5.99976 8.30385C5.99976 8.5208 6.10208 8.75588 6.30667 9.00897C6.51126 9.26206 6.72893 9.46094 6.95955 9.60555ZM15.4417 10.1582C14.2215 10.9226 13.2951 11.5166 12.6628 11.9402C12.4507 12.0848 12.2787 12.1977 12.1465 12.2785C12.0145 12.3595 11.8387 12.4421 11.6192 12.5265C11.3998 12.6108 11.1952 12.653 11.0054 12.653H10.9998H10.9941C10.8044 12.653 10.5998 12.6108 10.3803 12.5265C10.1609 12.4421 9.98503 12.3595 9.85298 12.2785C9.72092 12.1977 9.54887 12.0848 9.33681 11.9402C8.83455 11.5993 7.9101 11.0053 6.56339 10.1582C6.35133 10.0274 6.16345 9.87753 5.99976 9.70883V13.81C5.99976 14.0373 6.08715 14.2318 6.26202 14.3937C6.43688 14.5556 6.64708 14.6365 6.89263 14.6365H15.107C15.3524 14.6365 15.5626 14.5556 15.7375 14.3937C15.9124 14.2318 15.9998 14.0373 15.9998 13.81V9.70883C15.8398 9.87405 15.6538 10.0239 15.4417 10.1582Z" fill="#8D8D8D"/>
<path d="M11 21C16.5229 21 21 16.5229 21 11C21 5.47715 16.5229 1 11 1C5.47715 1 1 5.47715 1 11C1 16.5229 5.47715 21 11 21Z" stroke="#8D8D8D" stroke-width="2"/>
</svg>
