<svg width="23" height="22" viewBox="0 0 23 22" fill="none" xmlns="http://www.w3.org/2000/svg">
<path d="M14.2726 7.81799H8.81803C8.31595 7.81799 7.90894 8.22501 7.90894 8.72708V14.1816C7.90894 14.6837 8.31595 15.0907 8.81803 15.0907H14.2726C14.7747 15.0907 15.1817 14.6837 15.1817 14.1816V8.72708C15.1817 8.22501 14.7747 7.81799 14.2726 7.81799Z" stroke="#8D8D8D" stroke-width="1.5" stroke-linecap="round" stroke-linejoin="round"/>
<path d="M13.3635 6.90894V8.72712" stroke="#8D8D8D" stroke-width="1.5" stroke-linecap="round" stroke-linejoin="round"/>
<path d="M9.72729 6.90894V8.72712" stroke="#8D8D8D" stroke-width="1.5" stroke-linecap="round" stroke-linejoin="round"/>
<path d="M7.90894 10.5453H15.1817" stroke="#8D8D8D" stroke-width="1.5" stroke-linecap="round" stroke-linejoin="round"/>
<path d="M10.6364 12.3635H9.72729V13.2726H10.6364V12.3635Z" stroke="#8D8D8D" stroke-width="1.5" stroke-linecap="round" stroke-linejoin="round"/>
<path d="M11.5454 21C17.0683 21 21.5454 16.5229 21.5454 11C21.5454 5.47715 17.0683 1 11.5454 1C6.02256 1 1.54541 5.47715 1.54541 11C1.54541 16.5229 6.02256 21 11.5454 21Z" stroke="#8D8D8D" stroke-width="2"/>
</svg>
