<svg width="23" height="22" viewBox="0 0 23 22" fill="none" xmlns="http://www.w3.org/2000/svg">
<path d="M11.8184 21C17.3412 21 21.8184 16.5229 21.8184 11C21.8184 5.47715 17.3412 1 11.8184 1C6.29551 1 1.81836 5.47715 1.81836 11C1.81836 16.5229 6.29551 21 11.8184 21Z" stroke="#8D8D8D" stroke-width="2"/>
<path fill-rule="evenodd" clip-rule="evenodd" d="M11.8181 6.90068C13.1532 6.90068 13.3113 6.90576 13.8385 6.92981C14.326 6.95206 14.5908 7.03352 14.767 7.10197C15.0003 7.19267 15.1669 7.30104 15.3419 7.476C15.5168 7.65095 15.6252 7.81753 15.7159 8.0509C15.7844 8.22711 15.8658 8.49185 15.8881 8.97933C15.9121 9.50658 15.9172 9.6647 15.9172 10.9998C15.9172 12.3348 15.9121 12.493 15.8881 13.0202C15.8658 13.5077 15.7844 13.7724 15.7159 13.9486C15.6252 14.182 15.5168 14.3486 15.3419 14.5235C15.1669 14.6985 15.0003 14.8069 14.767 14.8975C14.5908 14.966 14.326 15.0475 13.8385 15.0697C13.3114 15.0938 13.1533 15.0989 11.8181 15.0989C10.483 15.0989 10.3248 15.0938 9.79769 15.0697C9.31019 15.0475 9.04545 14.966 8.86926 14.8975C8.63587 14.8069 8.46929 14.6985 8.29434 14.5235C8.11938 14.3486 8.01101 14.182 7.92033 13.9486C7.85185 13.7724 7.7704 13.5077 7.74815 13.0202C7.7241 12.493 7.71901 12.3348 7.71901 10.9998C7.71901 9.6647 7.7241 9.50658 7.74815 8.97935C7.7704 8.49185 7.85185 8.22711 7.92033 8.0509C8.01101 7.81753 8.11938 7.65095 8.29434 7.476C8.46929 7.30104 8.63587 7.19267 8.86926 7.10197C9.04545 7.03352 9.31019 6.95206 9.79767 6.92981C10.3249 6.90576 10.483 6.90068 11.8181 6.90068ZM11.8181 5.99976C10.4602 5.99976 10.2899 6.00551 9.75662 6.02984C9.22441 6.05414 8.86096 6.13865 8.54291 6.26226C8.21411 6.39004 7.93527 6.561 7.65731 6.83897C7.37934 7.11693 7.20838 7.39577 7.0806 7.72457C6.95699 8.04262 6.87248 8.40607 6.84818 8.93828C6.82385 9.47157 6.81812 9.64184 6.81812 10.9998C6.81812 12.3577 6.82385 12.528 6.84818 13.0613C6.87248 13.5935 6.95699 13.9569 7.0806 14.275C7.20838 14.6037 7.37934 14.8826 7.65731 15.1606C7.93527 15.4385 8.21411 15.6095 8.54291 15.7373C8.86096 15.8609 9.22441 15.9454 9.75662 15.9697C10.2899 15.994 10.4602 15.9998 11.8181 15.9998C13.176 15.9998 13.3463 15.994 13.8796 15.9697C14.4118 15.9454 14.7753 15.8609 15.0933 15.7373C15.4221 15.6095 15.7009 15.4385 15.9789 15.1606C16.2569 14.8826 16.4278 14.6038 16.5556 14.275C16.6792 13.9569 16.7637 13.5935 16.788 13.0613C16.8124 12.528 16.8181 12.3577 16.8181 10.9998C16.8181 9.64184 16.8124 9.47157 16.788 8.93828C16.7637 8.40607 16.6792 8.04262 16.5556 7.72457C16.4278 7.39577 16.2569 7.11693 15.9789 6.83897C15.7009 6.561 15.4221 6.39004 15.0933 6.26226C14.7753 6.13865 14.4118 6.05414 13.8796 6.02984C13.3463 6.00551 13.176 5.99976 11.8181 5.99976ZM11.828 8.44023C10.409 8.44023 9.25859 9.59062 9.25859 11.0097C9.25859 12.4287 10.409 13.5791 11.828 13.5791C13.2471 13.5791 14.3975 12.4287 14.3975 11.0097C14.3975 9.59062 13.2471 8.44023 11.828 8.44023ZM11.828 12.6776C10.9069 12.6776 10.1601 11.9308 10.1601 11.0097C10.1601 10.0885 10.9069 9.34179 11.828 9.34179C12.7492 9.34179 13.4959 10.0885 13.4959 11.0097C13.4959 11.9308 12.7492 12.6776 11.828 12.6776ZM15.0721 8.32118C15.0721 8.64992 14.8056 8.91642 14.4769 8.91642C14.1481 8.91642 13.8816 8.64992 13.8816 8.32118C13.8816 7.99243 14.1481 7.72595 14.4769 7.72595C14.8056 7.72595 15.0721 7.99243 15.0721 8.32118Z" fill="#8D8D8D"/>
</svg>
