<svg width="23" height="22" viewBox="0 0 23 22" fill="none" xmlns="http://www.w3.org/2000/svg">
<path d="M11.3635 21C16.8864 21 21.3635 16.5229 21.3635 11C21.3635 5.47715 16.8864 1 11.3635 1C5.84068 1 1.36353 5.47715 1.36353 11C1.36353 16.5229 5.84068 21 11.3635 21Z" stroke="#8D8D8D" stroke-width="2"/>
<path fill-rule="evenodd" clip-rule="evenodd" d="M7.04742 9.36964H8.81931V15.5449H7.04742V9.36964ZM7.8882 8.59722H7.87537C7.23396 8.59722 6.81812 8.12516 6.81812 7.52736C6.81812 6.91734 7.24626 6.45459 7.90049 6.45459C8.5542 6.45459 8.95615 6.91618 8.96898 7.52562C8.96898 8.12341 8.5542 8.59722 7.8882 8.59722ZM15.909 15.5455H13.8998V12.3493C13.8998 11.5129 13.5855 10.9424 12.8944 10.9424C12.3658 10.9424 12.0718 11.3272 11.935 11.6991C11.8836 11.8318 11.8917 12.0175 11.8917 12.2038V15.5455H9.90116C9.90116 15.5455 9.92681 9.8842 9.90116 9.36964H11.8917V10.3388C12.0093 9.91505 12.6453 9.31027 13.6604 9.31027C14.9197 9.31027 15.909 10.1991 15.909 12.1112V15.5455Z" fill="#8D8D8D"/>
</svg>
