<svg width="23" height="22" viewBox="0 0 23 22" fill="none" xmlns="http://www.w3.org/2000/svg">
<path d="M11.2727 21C16.7956 21 21.2727 16.5229 21.2727 11C21.2727 5.47715 16.7956 1 11.2727 1C5.74986 1 1.27271 5.47715 1.27271 11C1.27271 16.5229 5.74986 21 11.2727 21Z" stroke="#8D8D8D" stroke-width="2"/>
<path fill-rule="evenodd" clip-rule="evenodd" d="M15.1483 8.65728C15.5528 8.40201 15.8632 7.99723 16.0089 7.51504C15.6301 7.752 15.2116 7.92337 14.765 8.01614C14.4087 7.61432 13.8994 7.36377 13.3358 7.36377C12.2544 7.36377 11.3782 8.28855 11.3782 9.42902C11.3782 9.59093 11.3944 9.74871 11.428 9.89939C9.80098 9.81312 8.35826 8.99174 7.39178 7.74136C7.22314 8.04746 7.12677 8.40201 7.12677 8.78019C7.12677 9.49639 7.47247 10.1287 7.99801 10.4998C7.67697 10.4891 7.37498 10.3952 7.11053 10.2415V10.2669C7.11053 11.268 7.7851 12.1029 8.68211 12.292C8.51738 12.3405 8.34482 12.3647 8.16553 12.3647C8.03947 12.3647 7.91621 12.3523 7.79743 12.3281C8.04619 13.1482 8.76951 13.7463 9.62673 13.7622C8.95608 14.3165 8.11174 14.6462 7.19457 14.6462C7.03657 14.6462 6.88025 14.6374 6.72729 14.6179C7.59405 15.2035 8.62328 15.5456 9.72927 15.5456C13.3319 15.5456 15.3007 12.3984 15.3007 9.66893C15.3007 9.57911 15.2996 9.48988 15.2956 9.40184C15.6783 9.11052 16.0111 8.74651 16.2728 8.33228C15.9215 8.49656 15.5438 8.60765 15.1483 8.65728Z" fill="#8D8D8D"/>
</svg>
