<svg width="23" height="23" viewBox="0 0 23 23" fill="none" xmlns="http://www.w3.org/2000/svg">
<path d="M11.4546 21.1819C16.9774 21.1819 21.4546 16.7047 21.4546 11.1819C21.4546 5.65904 16.9774 1.18188 11.4546 1.18188C5.93174 1.18188 1.45459 5.65904 1.45459 11.1819C1.45459 16.7047 5.93174 21.1819 11.4546 21.1819Z" stroke="#CDEAFF" stroke-width="2"/>
<path d="M11.4547 16.2955C14.2789 16.2955 16.5683 14.0061 16.5683 11.1819C16.5683 8.35769 14.2789 6.06824 11.4547 6.06824C8.63052 6.06824 6.34106 8.35769 6.34106 11.1819C6.34106 14.0061 8.63052 16.2955 11.4547 16.2955Z" stroke="#CDEAFF" stroke-width="1.5" stroke-linecap="round" stroke-linejoin="round"/>
<path d="M6.68188 9.47729H16.2273" stroke="#CDEAFF" stroke-width="1.5" stroke-linecap="round" stroke-linejoin="round"/>
<path d="M6.68188 12.8864H16.2273" stroke="#CDEAFF" stroke-width="1.5" stroke-linecap="round" stroke-linejoin="round"/>
<path d="M11.1705 6.06824C10.2133 7.60211 9.70581 9.37384 9.70581 11.1819C9.70581 12.9899 10.2133 14.7616 11.1705 16.2955" stroke="#CDEAFF" stroke-width="1.5" stroke-linecap="round" stroke-linejoin="round"/>
<path d="M11.7388 6.06824C12.696 7.60211 13.2034 9.37384 13.2034 11.1819C13.2034 12.9899 12.696 14.7616 11.7388 16.2955" stroke="#CDEAFF" stroke-width="1.5" stroke-linecap="round" stroke-linejoin="round"/>
</svg>
