<svg width="23" height="22" viewBox="0 0 23 22" fill="none" xmlns="http://www.w3.org/2000/svg">
<path d="M11.0911 21C16.6139 21 21.0911 16.5229 21.0911 11C21.0911 5.47715 16.6139 1 11.0911 1C5.56822 1 1.09106 5.47715 1.09106 11C1.09106 16.5229 5.56822 21 11.0911 21Z" stroke="#8D8D8D" stroke-width="2"/>
<path fill-rule="evenodd" clip-rule="evenodd" d="M15.6366 12.6203V9.3801C15.6366 9.3801 15.6366 7.81836 14.0699 7.81836H8.11176C8.11176 7.81836 6.54565 7.81836 6.54565 9.3801V12.6203C6.54565 12.6203 6.54565 14.182 8.11176 14.182H14.0699C14.0699 14.182 15.6366 14.182 15.6366 12.6203ZM12.8561 11.0047L9.87992 12.7471V9.26181L12.8561 11.0047Z" fill="#8D8D8D"/>
</svg>
