<svg xmlns="http://www.w3.org/2000/svg" viewBox="0 0 2650 2300"><defs><style>.cls-1{fill:#e0e0e0;}.cls-2{fill:#fff;}.cls-3{fill:#33536d;}.cls-4{fill:#34c84a;}.cls-5{isolation:isolate;}.cls-6{fill:#1c344c;}.cls-7{fill:#a9e4fc;}.cls-8{fill:#fb635e;}.cls-9{fill:#c0ecff;opacity:0.3;}.cls-10{fill:#fdbc40;}</style></defs><title>screen3</title><g id="Layer_5" data-name="Layer 5"><path class="cls-1" d="M2582.82,700.69l.77-5.39-1.87-63.48L1760.28,382.09l1,63.22-3.51-1.07.09,5.65,3.51,1.07L1770,988.52c-3.27-1-4.22,0-4.2,1.53a3.79,3.79,0,0,0,2.22,3.49l3.81,108.78L2593.28,1352l-1.73-108.14,2.3.7a1.57,1.57,0,0,0,2-1.22l1.81,112.81-830.1-249.56-11.75-731.51L2586,627.49l9.86,613.92a3.55,3.55,0,0,0-2.08-2.46l-2.31-.7Z"/><path class="cls-2" d="M2169.8,862.64c.43-.86.83-1.75,1.22-2.66h.11A11.1,11.1,0,0,1,2169.8,862.64Z"/><path class="cls-2" d="M2146.24,845.44a.2.2,0,0,0,0-.08l.05,0S2146.24,845.41,2146.24,845.44Z"/><path class="cls-3" d="M2097.25,762a45.74,45.74,0,0,1,5.15,2,58.05,58.05,0,0,1,12,7.26,4,4,0,0,1,1.38,2.12c.59.65,1.17,1.32,1.74,2,3.63,3.16,7.41,6.69,9.47,11.88,1.82,4.59,2,9.78-.37,12.68s-5.79,2.78-9.4,1.69a44.3,44.3,0,0,1-8.13-3.72,69.18,69.18,0,0,1-11.48-8,48.65,48.65,0,0,1-9.63-10.23c-2.24-3.44-3.87-7.79-3.31-11.65.61-4.16,3.37-6.35,6.49-6.75A14.8,14.8,0,0,1,2097.25,762Z"/><polygon class="cls-1" points="2582.73 695.04 2583.69 700.96 1761.39 450.97 1757.88 449.9 1757.79 444.25 1761.3 445.32 2582.73 695.04"/><path class="cls-4" d="M1864.28,432.51c5.6,1.71,10.24,9,10.36,16.23s-4.34,11.76-9.94,10.06-10.24-9-10.36-16.23S1858.68,430.81,1864.28,432.51Z"/><path class="cls-4" d="M2202.46,1147.31c4.79,1.46,8.8,7.74,8.9,14l.53,33.41c.1,6.22-3.74,10.11-8.53,8.65l-42.12-12.8c-4.79-1.46-8.8-7.74-8.9-14l-.54-33.41c-.1-6.21,3.75-10.1,8.54-8.64Z"/><g class="cls-5"><path class="cls-1" d="M1832.8,1038.9c3.68,1.11,7,6,7.34,11.27l.32,20.06c-.48,4.51-3.36,7.12-6.78,6.25l-.25-.07c-3.52-1.07-6.68-5.54-7.33-10.55l-.33-20c.2-4.91,3.17-7.9,6.76-7Z"/><path class="cls-1" d="M1847.08,1066c2.55,1,4.48,4.28,4.4,7.56-.35,13-8.23,20.89-17.93,18l-.13,0c-10-3-18.21-16-18.83-29.57-.15-3.37,1.74-5.51,4.31-4.85l.18.05c2.52.77,4.65,3.92,4.8,7.29.31,6.76,4.52,13.43,9.35,14.9s8.78-2.57,9-9.09c.09-3.25,2.08-5.13,4.58-4.37Z"/></g><path class="cls-1" d="M1971.4,1089l.6,37.72q-6-6.13-12-12.26l-.36-22.8Z"/><path class="cls-1" d="M1945,1081c4.8,1.46,8.8,7.74,8.9,14l.24,15.12c.1,6.22-3.74,10.11-8.54,8.65l-20.05-6.09c-4.79-1.46-8.81-7.74-8.91-14l-.24-15.12c-.1-6.22,3.75-10.1,8.54-8.65Z"/><path class="cls-2" d="M2071.18,1143.33c2.08,4.71,2.9,9.26,2.31,13.06a12.31,12.31,0,0,1-1.39,4.18c-2.31,4.1-6.73,5.24-10.44,5.38a40.47,40.47,0,0,1-12.45-1.83l-.8-.25c-6.41-2.1-21.58-8.48-24-22.37a17.51,17.51,0,0,1,3.11-13.62,19.21,19.21,0,0,1,13.74-7.43,13.5,13.5,0,0,0,7.16,6.12,6.54,6.54,0,0,0,7.1-1.88,47,47,0,0,1,14.37,16C2070.36,1141.6,2070.79,1142.47,2071.18,1143.33Zm-22.12,11.38c6.07,1.84,16.42,3.17,17.29-2.43.9-5.78-8.36-18.74-17.69-21.59s-18.26,4.63-17.16,11,12.1,11.24,16.89,12.81l.67.21"/><path class="cls-1" d="M2073,1143.79c10.17,3.09,19.79,15.87,19,19.71-.58,2.71-6.44,1.16-16.07-1.77q-1.38-.4-2.85-.87l-1-.29a12.47,12.47,0,0,0,1.38-4.17c.59-3.81-.23-8.36-2.31-13.06A15.89,15.89,0,0,1,2073,1143.79Z"/><path class="cls-1" d="M2385.22,1204c11.57,3.52,21.14,18.52,21.39,33.51s-9,24.3-20.52,20.78-21.15-18.52-21.39-33.52S2373.65,1200.49,2385.22,1204Zm.54,33.58c2.73.83,4.92-1.38,4.86-4.93s-2.33-7.11-5.07-7.94-4.92,1.38-4.86,4.92,2.33,7.12,5.07,7.95"/><polygon class="cls-1" points="2287.28 1196.98 2287.75 1226.14 2278.2 1223.23 2277.73 1194.08 2287.28 1196.98"/><polygon class="cls-1" points="2311.51 1192.97 2312.16 1233.56 2302.61 1230.66 2301.96 1190.07 2311.51 1192.97"/><g class="cls-5"><path class="cls-1" d="M2048.66,1130.69c9.34,2.85,18.59,15.82,17.69,21.6-.87,5.59-11.22,4.27-17.29,2.42l-.67-.21c-4.79-1.57-15.79-6.46-16.89-12.81S2039.31,1127.86,2048.66,1130.69Z"/><path class="cls-3" d="M1966,842.46a4.44,4.44,0,0,1,2.31,2,7.72,7.72,0,0,1,.86,4.94,4.81,4.81,0,0,1-1.46,3.45,2.23,2.23,0,0,1-2,.3,3.26,3.26,0,0,1-.48-.2,1.12,1.12,0,0,1-.35-.06,3.87,3.87,0,0,1-2.25-3.53c0-.11,0-.24,0-.36a7,7,0,0,1-.11-1.63,6.18,6.18,0,0,1,.18-1v-.48a4.72,4.72,0,0,1,2.15-3.49A2,2,0,0,1,1966,842.46Z"/><path class="cls-3" d="M2001.63,852.55c1.91.58,3.78,2.78,4.6,5.37,1.07,3.38.66,7.79-1.86,8.57a2.35,2.35,0,0,1-1.39,0,3.83,3.83,0,0,1-.8-.37,2.66,2.66,0,0,1-.37-.07,3.61,3.61,0,0,1-1.66-1.3,9.12,9.12,0,0,1-.7-1,7.83,7.83,0,0,1-1.27-2.49,10.88,10.88,0,0,1-.55-3.8v-.12c0-.1,0-.21,0-.31-.12-2,.57-3.77,1.94-4.35A3,3,0,0,1,2001.63,852.55Z"/><path class="cls-2" d="M2124.55,851.49c-.33-.6-.64-1.21-.92-1.84.33.54.69,1.07,1.06,1.57A2.29,2.29,0,0,0,2124.55,851.49Z"/><path class="cls-2" d="M2126,839.82c3.05.93,6.27,3.3,9.05,5.3a2.23,2.23,0,0,0,.67.34l0,.1c-.26,3.18-2.7,5.24-5.26,4.46a4.51,4.51,0,0,1-.66-.26c-2.94-1.47-4.77-5.81-4.61-9.35a4.25,4.25,0,0,0,0-.81C2125.4,839.66,2125.69,839.73,2126,839.82Z"/><path class="cls-2" d="M2155.14,873.56l.21-.18.43.11Z"/><path class="cls-2" d="M2150,844.34c.41,4.18.73,9.39-2,11.11a2.35,2.35,0,0,1-2,.32c-2.54-.77-4.66-5.63-5.73-8.89a7.06,7.06,0,0,0,3.39-.74,1.47,1.47,0,0,0,.5-.39,1.44,1.44,0,0,0,.65,0l1.4-.36a.2.2,0,0,1,0,.08s0-.06,0-.1Z"/><path class="cls-3" d="M2115,734.87c2.4.73,4.74,3.32,5.81,6.53,1.36,4.09,0,7.94-2.67,8.91a4.49,4.49,0,0,1-2.83,0,8.37,8.37,0,0,1-4.88-4.92c-1.54-3.59-1.27-7.77.73-9.73a1.38,1.38,0,0,1,1.12-.43,1.4,1.4,0,0,1,1.07-.57A4.27,4.27,0,0,1,2115,734.87Z"/><path class="cls-2" d="M2166.84,842.13l.44.14.14.25c-.83,3.09-2.05,6.33-4.72,6.59a4.05,4.05,0,0,1-1.58-.17c-2.33-.71-4.55-3.29-6.41-5.82,1.16-.28,2.32-.57,3.49-.83A16.5,16.5,0,0,1,2166.84,842.13Z"/><path class="cls-2" d="M2156.73,852.8c-.1-.37-.19-.75-.28-1.12.25.23.51.45.77.66A2.13,2.13,0,0,0,2156.73,852.8Z"/><path class="cls-3" d="M2176.59,844.21c8.34,13.17-.71,25.82-7.49,30.63s-15.33,6-24,3.39a36.61,36.61,0,0,1-5.37-2.11A52.63,52.63,0,0,1,2124,864.05c-4.11-4.54-8.54-10.5-9.82-17.19s1.36-11.54,5.64-12.88a10.26,10.26,0,0,1,6.05.17,33.79,33.79,0,0,1,9.06,5,2.44,2.44,0,0,1,.78.41,7.49,7.49,0,0,0,2.37,1.28,4.27,4.27,0,0,0,3.29-.26,1.63,1.63,0,0,1,.62-.16,1.51,1.51,0,0,1,.54-.26c6.22-1.6,12.54-4.2,19.15-4.36a16.19,16.19,0,0,1,5.07.7A17.79,17.79,0,0,1,2176.59,844.21Zm-1.51,12.7a13.24,13.24,0,0,0-3.33-11.81,21,21,0,0,1-3.3,7.36,7.2,7.2,0,0,1-.75.81A6,6,0,0,1,2164,855a7,7,0,0,1-2.65-.3,12.18,12.18,0,0,1-4.08-2.33c-.26-.21-.52-.43-.77-.66a24.23,24.23,0,0,1-1.89-1.9c0,5.68-1.24,11-5.77,11.84a5.82,5.82,0,0,1-2.76-.17c-3.21-1-5.84-4.59-7.79-8.7a6.49,6.49,0,0,1-7.66,3c-.23-.07-.47-.15-.71-.25a12.66,12.66,0,0,1-5.18-4.26c-.37-.5-.73-1-1.06-1.57a20.1,20.1,0,0,1-2.88-9.34c-4.53,2.7-1.78,9.87,1.44,14.58,6.25,9.14,14.3,15,22.35,17.47a28.27,28.27,0,0,0,10.6,1.2l.65-.07a22.4,22.4,0,0,0,12.65-5.65,19.71,19.71,0,0,0,6.64-10.93m-31.43-10.77a7.06,7.06,0,0,1-3.39.74c1.07,3.26,3.19,8.12,5.73,8.89a2.35,2.35,0,0,0,2-.32c2.71-1.72,2.39-6.93,2-11.11l-3.76,1-.05,0-1.4.36a1.44,1.44,0,0,1-.65,0,1.47,1.47,0,0,1-.5.39m14.55-3.85c-1.17.26-2.33.55-3.49.83,1.86,2.53,4.08,5.11,6.41,5.82a4.05,4.05,0,0,0,1.58.17c2.67-.26,3.89-3.5,4.72-6.59a1.21,1.21,0,0,0,0-.18l-.19-.07-.44-.14a16.5,16.5,0,0,0-8.64.16M2126,839.82c-.3-.09-.59-.16-.88-.22a4.25,4.25,0,0,1,0,.81c-.16,3.54,1.67,7.88,4.61,9.35a4.51,4.51,0,0,0,.66.26c2.56.78,5-1.28,5.26-4.46l0-.1a2.23,2.23,0,0,1-.67-.34c-2.78-2-6-4.37-9.05-5.3"/><path class="cls-3" d="M2125.09,700.09c2.84.86,2.93,6.57.09,5.71l-8.33-2.53c-2.84-.87-2.93-6.58-.09-5.71Z"/><path class="cls-3" d="M2198.77,735.47a2.12,2.12,0,0,1,.61.34l8.68,6.49a3.54,3.54,0,0,1,1.2,3.62c-.2.69-.66,1.29-1.43,1.06a2.19,2.19,0,0,1-.63-.34l-8.67-6.49a3.5,3.5,0,0,1-1.2-3.62C2197.52,735.83,2198,735.24,2198.77,735.47Z"/><path class="cls-6" d="M2208.28,741.48a4.89,4.89,0,0,1,1.67,5c-.28,1-1,1.8-2.11,1.48a2.89,2.89,0,0,1-.87-.47L2198.3,741a4.9,4.9,0,0,1-1.67-5c.29-1,1-1.79,2.12-1.46a2.8,2.8,0,0,1,.86.46Zm1,4.44a3.54,3.54,0,0,0-1.2-3.62l-8.68-6.49a2.12,2.12,0,0,0-.61-.34c-.77-.23-1.25.36-1.44,1.06a3.5,3.5,0,0,0,1.2,3.62l8.67,6.49a2.19,2.19,0,0,0,.63.34c.77.23,1.23-.37,1.43-1.06"/><path class="cls-2" d="M2349.3,814.78q-6.39-27.21-13.6-53c8.78-15.42,5.07-40.35-7.51-56.32-5.36-6.81-11.8-11.3-18.25-13.26-10.07-3.06-20.17.05-26.26,10.14a151.75,151.75,0,0,0-23.13-26.51c-13.4-12-25.49-17.91-33.26-20.89-6.69-14.56-17.68-25.39-29.19-28.88-.82-.25-1.64-.46-2.46-.64-18.79-4-27.35,14.33-27.84,15.44-10.68,1.62-30.82,6.82-48.72,26.73-22.57,25.09-28.27,58.75-30,72.81-23.88,1.59-40.58,23.24-41.7,53.32-1.29,34.76,18.48,74.24,47.15,91.66a100.55,100.55,0,0,1-67.46-18.2c-18.11-12.63-29.89-28.44-42.52-32.28a18.11,18.11,0,0,0-5.27-.84c.73.22,1.39,1,2.36,2.89.86,2.47,1.07,5.15.09,7a2.74,2.74,0,0,1-3.27,1.59,3.78,3.78,0,0,1-1.34-.77,7.33,7.33,0,0,1-2.17-6.69,4.62,4.62,0,0,1,2.34-3.13,1.67,1.67,0,0,1,1-.94c-.61,0-1.22.07-1.84.15-10.91,1.48-18.58,12.49-21.11,24.32-6.44,30.17,19.93,69.09,26.31,78.5,22.77,33.62,51.81,48.24,73,54.67a121.83,121.83,0,0,0,26.33,5.05,353.31,353.31,0,0,0,1.09,43.51,393.36,393.36,0,0,0,6.59,45.21L2383.31,1175C2387.89,1074.22,2381.56,952,2349.3,814.78Zm-386.94,52.16a1.66,1.66,0,0,1-.82.35,1.34,1.34,0,0,1-.6,0,3,3,0,0,1-1.57-1.42,5.46,5.46,0,0,1-1.09-2,4.47,4.47,0,0,1,.12-3.32,3,3,0,0,1,1.49-2.43,2.37,2.37,0,0,1,1.76-.12,3.4,3.4,0,0,1,1.4.86,5.85,5.85,0,0,1,1.64,3.87c0,1.95-1,3.76-2.33,4.23m6.82-17.5a4.78,4.78,0,0,1-1.47,3.45,2.23,2.23,0,0,1-2,.3,3.26,3.26,0,0,1-.48-.2,1.51,1.51,0,0,1-.35-.06,3.85,3.85,0,0,1-2.25-3.53c0-.11,0-.24,0-.36a7,7,0,0,1-.11-1.63,6.18,6.18,0,0,1,.18-1v-.48a2.54,2.54,0,0,1,.47-1.6,2.48,2.48,0,0,1,1.69-1.89,2,2,0,0,1,1.13,0,4.42,4.42,0,0,1,2.32,2,7.72,7.72,0,0,1,.86,4.94m36.6,38.39a15.3,15.3,0,0,1-5.48,7.61c-2.41,2-5,3.7-8,4.28a9,9,0,0,1-2.27.13,13.14,13.14,0,0,1-5.3-.47c-3.49-1.06-6.84-3.74-9.31-8.79-5-10.29-1.8-20.15,1.25-27.82.36-.93,1-1.16,1.64-1a.92.92,0,0,1,.23.09c2.24-1.28,4.94-1.2,7.75-.35,3.86,1.18,7.91,3.81,11.21,6.4,5.55,4.36,10.41,12.51,8.26,19.88m-1.42-21.34a2.32,2.32,0,0,1-1.38,0,3.83,3.83,0,0,1-.8-.37,1.63,1.63,0,0,1-.37-.08,3.52,3.52,0,0,1-1.66-1.29,10.73,10.73,0,0,1-.71-1,8,8,0,0,1-1.26-2.49,10.9,10.9,0,0,1-.55-3.81v-.1c0-.11,0-.22,0-.32-.11-2,.58-3.77,1.95-4.35a3,3,0,0,1,2-.07c1.91.58,3.78,2.78,4.59,5.37,1.07,3.38.67,7.79-1.86,8.57m112.4-168.93,8.33,2.53c2.83.86,2.93,6.57.09,5.71l-8.33-2.53c-2.84-.87-2.93-6.58-.09-5.71m-5.65,38.12a1.42,1.42,0,0,1,1.12-.44,1.45,1.45,0,0,1,1.07-.56,4.39,4.39,0,0,1,1.64.19c2.41.73,4.75,3.32,5.82,6.53,1.36,4.09,0,7.94-2.67,8.91a4.49,4.49,0,0,1-2.83,0,8.32,8.32,0,0,1-4.88-4.92c-1.54-3.59-1.27-7.77.73-9.73M2102.68,900c-11.6,26.57-17.46,58.37-17.09,92.38,0,1.84-1.06,2.42-2.16,2.09a3.52,3.52,0,0,1-2.24-3.43c-.4-35,5.69-67.72,17.64-95.08a1.32,1.32,0,0,1,1.69-.92,4.06,4.06,0,0,1,2.16,5m-5-110.14a48.65,48.65,0,0,1-9.63-10.23c-2.24-3.44-3.88-7.79-3.31-11.66.61-4.15,3.37-6.34,6.49-6.74a14.8,14.8,0,0,1,6.07.74,46.44,46.44,0,0,1,5.15,2,58.55,58.55,0,0,1,12,7.27,4,4,0,0,1,1.38,2.12c.59.64,1.17,1.32,1.78,2,3.59,3.13,7.36,6.66,9.43,11.85,1.82,4.59,2,9.78-.37,12.68s-5.8,2.78-9.4,1.69a44.7,44.7,0,0,1-8.14-3.72,69.52,69.52,0,0,1-11.47-8m71.47,85c-6.84,4.85-15.34,6-24,3.39a36.61,36.61,0,0,1-5.37-2.11A52.63,52.63,0,0,1,2124,864.05c-4.11-4.54-8.54-10.5-9.82-17.19s1.35-11.54,5.64-12.88a10.26,10.26,0,0,1,6.05.17,34.36,34.36,0,0,1,9.1,5,2.59,2.59,0,0,1,.74.4,7.29,7.29,0,0,0,2.37,1.28,4.27,4.27,0,0,0,3.29-.26,1.63,1.63,0,0,1,.62-.16,1.51,1.51,0,0,1,.54-.26c6.21-1.6,12.54-4.2,19.15-4.37a16.51,16.51,0,0,1,5.07.71,17.83,17.83,0,0,1,9.87,7.76c8.34,13.17-.71,25.82-7.49,30.63m28.69-77.44a2,2,0,0,1-.65-.08,2.11,2.11,0,0,1-.77-.43,1.49,1.49,0,0,1-.83,0,2.13,2.13,0,0,1-.52-.23c-3-1.74-5.14-6.27-5-10.11.1-4.1,2.77-6.27,5.91-5.39l.13,0c3.18,1,5.92,4.69,6.25,9,.3,4-1.63,7.09-4.48,7.29m12.16-51c-.28,1-1,1.8-2.11,1.48a2.89,2.89,0,0,1-.87-.47L2198.3,741a4.9,4.9,0,0,1-1.67-5c.29-1,1-1.79,2.12-1.47a3.48,3.48,0,0,1,.86.46l8.67,6.49a4.89,4.89,0,0,1,1.67,5m75.26,363.11a3.54,3.54,0,0,1-2.25-3.43l-1.46-90.94c0-1.84,1.06-2.43,2.16-2.09a3.54,3.54,0,0,1,2.25,3.43l1.46,91c0,1.83-1.06,2.42-2.16,2.08"/><path class="cls-3" d="M1961.66,858a3.48,3.48,0,0,1,1.39.86,5.91,5.91,0,0,1,1.65,3.87c0,1.95-1,3.76-2.34,4.23a1.66,1.66,0,0,1-.82.35,1.34,1.34,0,0,1-.6,0,3,3,0,0,1-1.57-1.42,5.77,5.77,0,0,1-1.09-2,4.47,4.47,0,0,1,.12-3.32,3,3,0,0,1,1.49-2.43A2.39,2.39,0,0,1,1961.66,858Z"/><path class="cls-1" d="M2048,1101.29c5.39,1.64,9.86,8.63,10,15.61a11.3,11.3,0,0,1-2.46,7.79,6.52,6.52,0,0,1-7.1,1.88,13.47,13.47,0,0,1-7.16-6.11,19.18,19.18,0,0,1-2.8-9.49C2038.36,1104,2042.63,1099.65,2048,1101.29Z"/><path class="cls-1" d="M2072.71,1114.55c5.39,1.64,9.85,8.63,10,15.61s-4.16,11.32-9.55,9.68-9.85-8.63-10-15.61S2067.32,1112.92,2072.71,1114.55Z"/><path class="cls-3" d="M1979.3,834a3.31,3.31,0,0,1,1.79,1.86,3.44,3.44,0,0,1,.58,1c.86,2.47,1.06,5.15.08,7a2.73,2.73,0,0,1-3.27,1.59,3.78,3.78,0,0,1-1.34-.77,7.33,7.33,0,0,1-2.17-6.69,4.62,4.62,0,0,1,2.34-3.13,1.67,1.67,0,0,1,1-.94,1.7,1.7,0,0,1,.84,0Z"/><path class="cls-3" d="M1986.32,861.56c3.85,1.17,7.9,3.8,11.2,6.39,5.55,4.36,10.42,12.51,8.26,19.88a15.3,15.3,0,0,1-5.48,7.61c-2.41,2-5,3.7-8,4.28a8.62,8.62,0,0,1-2.28.13,13.14,13.14,0,0,1-5.3-.47c-3.49-1.06-6.84-3.74-9.3-8.79-5-10.29-1.81-20.15,1.24-27.82.37-.92,1-1.16,1.64-1l.24.09C1980.8,860.62,1983.5,860.7,1986.32,861.56Z"/><path class="cls-3" d="M2100.52,895a4.05,4.05,0,0,1,2.16,5c-11.6,26.58-17.46,58.38-17.08,92.39,0,1.84-1.07,2.42-2.17,2.09a3.51,3.51,0,0,1-2.24-3.43c-.39-35,5.69-67.72,17.64-95.08A1.32,1.32,0,0,1,2100.52,895Z"/><path class="cls-2" d="M2120.65,840.21l.09-.05a.76.76,0,0,1,0,.15Z"/><path class="cls-2" d="M2168.38,852.9l-.68.36a7.27,7.27,0,0,0,.75-.81C2168.43,852.6,2168.41,852.75,2168.38,852.9Z"/><path class="cls-2" d="M2167.42,842.52l-.14-.25.19.07A1.21,1.21,0,0,1,2167.42,842.52Z"/><path class="cls-7" d="M2171.75,845.1a13.23,13.23,0,0,1,3.33,11.81,19.71,19.71,0,0,1-6.64,10.93,22.4,22.4,0,0,1-12.66,5.65l-.43-.11-.21.18a28.27,28.27,0,0,1-10.6-1.2c-8.05-2.45-16.1-8.33-22.35-17.47-3.22-4.71-6-11.88-1.65-14.62a23.16,23.16,0,0,0,3.09,9.38c.28.63.59,1.24.92,1.84a2.29,2.29,0,0,1,.14-.27,12.74,12.74,0,0,0,5.18,4.26c.24.09.47.18.71.25a6.51,6.51,0,0,0,7.66-3c1.94,4.11,4.58,7.72,7.79,8.7a5.82,5.82,0,0,0,2.76.17c4.53-.81,5.74-6.16,5.77-11.84a24.23,24.23,0,0,0,1.89,1.9c.09.37.18.75.28,1.12a2.13,2.13,0,0,1,.49-.46,12.08,12.08,0,0,0,4.08,2.33,7,7,0,0,0,2.65.3,6,6,0,0,0,3.75-1.71l.68-.36c0-.15,0-.3.07-.45A20.87,20.87,0,0,0,2171.75,845.1Zm-1.95,17.54a11.1,11.1,0,0,0,1.33-2.67H2171c-.39.91-.79,1.8-1.22,2.66"/><polygon class="cls-1" points="2298.95 1177.79 2299.78 1229.8 2290.23 1226.89 2289.39 1174.88 2298.95 1177.79"/><path class="cls-3" d="M2283.66,1013.09a3.53,3.53,0,0,1,2.25,3.43l1.46,91c0,1.83-1.06,2.42-2.16,2.08a3.54,3.54,0,0,1-2.25-3.43l-1.46-90.94C2281.47,1013.34,2282.56,1012.75,2283.66,1013.09Z"/><path class="cls-3" d="M2196,781.16c3.18,1,5.92,4.69,6.25,9,.3,4-1.63,7.09-4.48,7.29a2,2,0,0,1-.65-.08,2,2,0,0,1-.76-.43,1.52,1.52,0,0,1-.84,0,2.13,2.13,0,0,1-.52-.23c-3-1.74-5.14-6.27-5-10.11.1-4.1,2.77-6.27,5.92-5.39Z"/><path class="cls-8" d="M2549.3,1260.15c4.8,1.45,8.8,7.73,8.9,13.95l.29,18c.1,6.21-3.74,10.1-8.54,8.65l-73.87-22.46c-4.8-1.46-8.8-7.74-8.9-14l-.29-18c-.1-6.22,3.74-10.11,8.54-8.65Z"/><path class="cls-1" d="M2593.76,1239a3.55,3.55,0,0,1,2.08,2.46c-.26,3-1.05,3.48-2,3.2l-2.31-.71L1770.11,994.18l-2.06-.63a3.79,3.79,0,0,1-2.23-3.49c0-1.56.93-2.53,2.14-2.16l2.06.63,318.67,96.88L2383.32,1175l208.07,63.25Z"/><path class="cls-9" d="M2582.76,700.68l8.63,537.55L2383.32,1175c4.57-100.76-1.76-223-34-360.2q-6.39-27.21-13.6-53c8.78-15.42,5.07-40.35-7.51-56.32-5.36-6.81-11.8-11.3-18.24-13.26-10.08-3.06-20.18.05-26.27,10.13a152.1,152.1,0,0,0-23.13-26.5c-13.39-12-25.48-17.91-33.26-20.89-6.68-14.56-17.68-25.38-29.19-28.88-.82-.25-1.64-.46-2.45-.64-18.8-4-27.36,14.33-27.84,15.44-10.68,1.62-30.83,6.83-48.72,26.73-22.58,25.09-28.28,58.75-30,72.81-23.89,1.59-40.59,23.24-41.7,53.32-1.3,34.76,18.47,74.24,47.14,91.66a100.5,100.5,0,0,1-67.45-18.2c-18.12-12.63-29.9-28.44-42.53-32.28a19,19,0,0,0-5.37-.86c-13.59,1.63-21.26,12.64-23.79,24.47-6.44,30.17,19.93,69.09,26.31,78.5,22.77,33.62,51.81,48.24,73,54.67a121.93,121.93,0,0,0,26.33,5.05,353.31,353.31,0,0,0,1.09,43.51,393.36,393.36,0,0,0,6.59,45.21L1770,988.53,1761.39,451Z"/></g><path class="cls-8" d="M1787.52,409.18c5.61,1.7,10.25,9,10.36,16.23s-4.33,11.76-9.94,10-10.24-9-10.35-16.22S1781.92,407.48,1787.52,409.18Z"/><path class="cls-10" d="M1825.9,420.84c5.6,1.71,10.24,9,10.36,16.23s-4.34,11.76-9.94,10.06-10.24-9-10.35-16.23S1820.3,419.14,1825.9,420.84Z"/></g></svg>