<svg xmlns="http://www.w3.org/2000/svg" viewBox="0 0 2650 2300"><defs><style>.cls-1{fill:#f3fbff;}.cls-2{fill:#c7e8f9;}.cls-3{fill:#aee0fc;}.cls-4{fill:#8acefd;}.cls-5{fill:#68b5e0;}.cls-6{fill:#e1f4ff;}.cls-7{fill:#33536d;}.cls-8{fill:#7fa854;}.cls-9{fill:#90ba6a;}.cls-10{fill:#fff;}.cls-11{fill:#2b2b2b;}.cls-12{fill:#fb635e;}.cls-13{fill:#367bc6;}.cls-14{fill:#fdbc40;}</style></defs><title>sather</title><g id="Layer_5" data-name="Layer 5"><path class="cls-1" d="M422.77,1444.32l240.47,74.88,78.42-65-238-75.83Z"/><path class="cls-2" d="M664.45,1555l77-63.15q-.24-18.66-.49-37.31l-77.7,64.94Z"/><path class="cls-2" d="M585.05,1493.9l76.27-64.17-8.67-354.56,4.23-3.77q0-10.89,0-21.77L580.69,1116q0,10.53,0,21l-5.87-2Q579.91,1314.48,585.05,1493.9Z"/><path class="cls-3" d="M587.21,1158.06l255.13,79.48,69.59-69-247.76-76.09Z"/><path class="cls-3" d="M587.25,1194.68l255.12,79.48,69.59-69L664.2,1129Z"/><path class="cls-1" d="M1895.24,1901l240.46,74.88,78.43-65-238-75.83Z"/><path class="cls-1" d="M786.37,1556.58l240.46,74.87,78.43-65-238-75.83Z"/><path class="cls-2" d="M1028,1667.3l77-63.16q-.25-18.66-.5-37.31l-77.7,65Z"/><path class="cls-2" d="M949.39,1606.85l76.28-64.17L1017,1188.12l4.23-3.77q0-10.89,0-21.77L945,1228.92q0,10.53,0,21l-5.87-2Z"/><path class="cls-4" d="M588.26,1188.5l255.1,78.76-1-29.73-255.12-79.47Z"/><path class="cls-1" d="M1531.92,1788l240.47,74.87,78.42-65-238-75.83Z"/><path class="cls-4" d="M1554.69,1795.12l44.72,13.78q-4.68-165.66-9.37-331.32c-72.5-68.11-289.82-254.16-551.38-218.57a495.45,495.45,0,0,0-87.87,20.29l7.92,331.37,46.16,13.73q-4.38-156.6-8.77-313.2c15.43-3.48,30.59-6.12,45.45-8,214.12-27.4,399.84,93.37,504.37,178.74Q1550.3,1638.52,1554.69,1795.12Z"/><path class="cls-5" d="M1004.87,1624.4l77.68-65.67q-3.85-129.4-7.72-258.81c-12.44.84-25.74,2.18-39.78,4.2s-26.9,4.42-38.95,7.08Q1000.48,1467.8,1004.87,1624.4Z"/><path class="cls-2" d="M1694.26,1837.84l76.28-64.17-8.67-354.57,4.23-3.76q0-10.89,0-21.78l-76.21,66.35q0,10.53,0,21l-5.87-2Z"/><path class="cls-3" d="M1696.3,1501.49,1951.43,1581q34.78-34.53,69.59-69l-247.76-76.09Z"/><path class="cls-3" d="M1696.34,1538.1l255.12,79.48,69.59-69-247.76-76.09Z"/><path class="cls-4" d="M1697.35,1531.93l255.1,78.75-1-29.72-255.12-79.48Z"/><path class="cls-5" d="M1750.69,1855.47l77.68-65.66-5-166.62-79.19-25Q1747.41,1726.83,1750.69,1855.47Z"/><path class="cls-5" d="M1960.8,1920.28l76.74-72.17-5.61-305.32-80.3,74.46Q1956.22,1768.77,1960.8,1920.28Z"/><path class="cls-5" d="M1952.14,1610.7l98.51-94.65q-.15-11.86-.29-23.75L1951.17,1581Z"/><path class="cls-4" d="M1705.63,1841.1l44.74,14.5q-3.12-128.7-6.23-257.41l164.22,51.25,8.4,257.33,44,13.81q-4.57-151.51-9.16-303l-255.13-79.48Q1701.05,1689.59,1705.63,1841.1Z"/><path class="cls-5" d="M851.66,1577.15,928.41,1505q-2.82-152.65-5.62-305.32l-80.29,74.46Q847.08,1425.64,851.66,1577.15Z"/><path class="cls-5" d="M1599.41,1808.9l78.91-65-8.91-324.79L1590,1477.58Q1594.74,1643.24,1599.41,1808.9Z"/><path class="cls-6" d="M1974,1925.12l-78.44-24.29,1.16,35.52,240.46,74.87L2136,1975.7l-77.74-25L2048,1591.8l5.87,2q0-10.52,0-21l-96-30.25.68,21,5.15,2Z"/><path class="cls-6" d="M1610.41,1812.47,1532,1788.18l1.16,35.52,240.46,74.88-1.16-35.52-77.73-25q-5.15-179.44-10.27-358.87l5.87,2q0-10.52,0-21l-96-30.25.69,21,5.14,2Z"/><path class="cls-5" d="M843,1267.58l98.5-94.65q-.13-11.88-.29-23.76L842,1237.85Z"/><path class="cls-6" d="M864.85,1580.82l-78.44-24.29,1.16,35.52L1028,1666.93l-1.16-35.52-77.74-25L938.87,1247.5l5.87,2q0-10.51,0-21l-96-30.25.68,21,5.15,2Z"/><path class="cls-6" d="M501.25,1468.45l-78.44-24.29,1.16,35.52,240.46,74.88L663.27,1519l-77.74-25-10.26-358.87,5.87,2q0-10.53,0-21l-96-30.24.68,21,5.15,2Z"/><path class="cls-5" d="M641.6,1512.05l77.68-65.67-5-166.62-79.19-25Q638.32,1383.41,641.6,1512.05Z"/><path class="cls-1" d="M1957.9,1542.49l96,30.25,76.2-66.35-95.93-26.62Z"/><path class="cls-2" d="M2058.3,1950.67l76.28-64.18-8.67-354.56,4.23-3.77q0-10.89,0-21.77l-76.2,66.35q0,10.52,0,21l-5.87-2Z"/><path class="cls-4" d="M596.54,1497.68l44.74,14.5q-3.12-128.7-6.23-257.41L799.27,1306l8.4,257.34,44,13.8q-4.57-151.51-9.16-303l-255.13-79.47Q592,1346.17,596.54,1497.68Z"/><path class="cls-1" d="M848.68,1198.37l96.05,30.24,76.21-66.34L925,1135.65Q886.83,1167,848.68,1198.37Z"/><path class="cls-1" d="M484.79,1085.67l96.05,30.24,76.2-66.34L561.11,1023Z"/><path class="cls-1" d="M1594.07,1429.65l96,30.24,76.21-66.34-95.93-26.62Z"/><path class="cls-2" d="M1773.6,1898.69l77-63.16q-.24-18.65-.49-37.31l-77.7,65Z"/><path class="cls-2" d="M2137.21,2011.41l77-63.15q-.24-18.66-.49-37.31l-77.7,64.94Z"/><path class="cls-3" d="M950.81,1279.81c77.77-19.62,197.17-35.77,325.22,3.89,76.83,23.8,138.51,62,171.79,82.93a870.94,870.94,0,0,1,142.24,111.46l10.62-8.12-.57-17.39-5.14-2-.69-21,48.76-40.06c-87-74-306.63-238.93-552-191.91a464.81,464.81,0,0,0-64.74,17.35Z"/><path class="cls-3" d="M1302.17,1239.52l153.57,80.62,77-64.2a639.87,639.87,0,0,0-153.55-79.89c1.83-7.74,5-26.4-3.69-46.32-2.93-6.7-13.47-31-35.23-34.41a36.25,36.25,0,0,0-18.07,2q-17.45,14.7-35.32,29.45-10.64,8.76-21.21,17.38a498.9,498.9,0,0,0-61.9-6.69c-16.59-.75-32.13-.62-46.44.07l-77,64.92,151.47,16.1q5.27-27.39,10.55-54.77l21.65-3.61a279.08,279.08,0,0,1,38.15,79.3Z"/><path class="cls-4" d="M1455.73,1320a685.2,685.2,0,0,0-153.33-80.44,79.87,79.87,0,0,0-3.79-42.14c-3.09-8-12.81-33.37-34.59-37.33-2.92-.53-12.91-1.93-21.66,3.6-13.76,8.72-19.06,31.2-10.52,54.82-12.85-3.1-26.51-5.87-40.93-8.14a528.59,528.59,0,0,0-109.76-5.73q.33,21,.64,41.94a525.36,525.36,0,0,1,80.61,1.73c12.25,1.2,60.19,6.37,122.8,27.19,42.2,14,103.35,39.28,170.43,85.87Q1455.68,1340.69,1455.73,1320Z"/><path class="cls-5" d="M1455.63,1361.51l77.68-65.67-.57-39.9-77,64.2Q1455.68,1340.83,1455.63,1361.51Z"/><path class="cls-1" d="M640.87,1764l106.55,32.94,78.42-65-103-32.53Q681.86,1731.69,640.87,1764Z"/><path class="cls-2" d="M748.17,1821.55l77.64-66.3-.64-23-77.7,65Q747.82,1809.39,748.17,1821.55Z"/><path class="cls-6" d="M748.17,1821.55l-105.56-34L640.87,1764l106.43,33.15Z"/><path class="cls-1" d="M438,1940.24l106.55,32.94,78.43-65-103-32.53Z"/><path class="cls-2" d="M545.29,1997.81l77.65-66.3-.64-23-77.71,64.94Q545,1985.67,545.29,1997.81Z"/><path class="cls-6" d="M545.29,1997.81l-105.55-34q-.87-11.77-1.75-23.55l106.43,33.15Z"/><path class="cls-1" d="M1493.59,2041.07,1600.14,2074l78.43-65-103-32.53Z"/><path class="cls-2" d="M1600.9,2098.64l77.64-66.3-.64-22.95-77.7,64.94Q1600.55,2086.5,1600.9,2098.64Z"/><path class="cls-6" d="M1600.9,2098.64l-105.56-34q-.87-11.77-1.75-23.55L1600,2074.22Q1600.46,2086.43,1600.9,2098.64Z"/><path class="cls-1" d="M1291.59,2226.93l106.55,32.94,78.43-65-103-32.53Z"/><path class="cls-2" d="M1398.89,2284.5l77.64-66.3-.63-22.95-77.71,64.94Q1398.55,2272.36,1398.89,2284.5Z"/><path class="cls-6" d="M1398.89,2284.5l-105.55-34q-.88-11.78-1.75-23.55L1398,2260.08Z"/><path class="cls-7" d="M540.54,1934.29a13.07,13.07,0,0,1-8.15,4.23,14,14,0,0,1-11.91-4.23v-76.1h20.06Z"/><path class="cls-8" d="M577.8,1842.78l6.36,9.3c-.08,3.73-.17,7.47-.26,11.2a18,18,0,0,1-.61,10.61c-2.75,7-10.29,11.77-19.19,12.21a36.05,36.05,0,0,1-41.26-1,24.6,24.6,0,0,1-24.17,1,21.26,21.26,0,0,1-9.86-2.75c-10.29-5.95-11.58-19.22-11.95-22.55a34.5,34.5,0,0,1,.87-12.21l8.47-5.81c5.76-2.37,12.21-6,12.47-10.76.3-5.53-7.88-8.2-8.11-14.1-.14-3.51,2.51-8.46,14.82-14.78.52-.73,10-13.45,26.18-12.26,16.4,1.2,23.91,15.53,24.27,16.25,17,5.91,20.85,11.28,21.09,15.15.22,3.46-2.35,6.83-1.48,13.23A21.88,21.88,0,0,0,577.8,1842.78Z"/><path class="cls-9" d="M578.05,1835.07a19,19,0,0,1,7,11.78,18,18,0,0,1-.87,8.72,17.14,17.14,0,0,1,0,7.85,17.38,17.38,0,0,1-23.55,12.22,28.53,28.53,0,0,1-8.73,4.36c-9.7,2.87-18.11-.47-20.93-1.75-4.73,3.45-10.69,3.19-14,0-3-2.87-2.68-7.12-2.62-7.85-2.07,1.45-13.2,8.91-25.3,5.24-2.37-.72-7.25-2.21-10.47-7-4.49-6.69-2.13-14.49-1.74-15.71a14.59,14.59,0,0,1,0-7.85c2-7,8.69-9.68,9.6-10a39.06,39.06,0,0,1,4.36-24.86,38.55,38.55,0,0,1,14.82-14.78c.52-.73,10-13.45,26.18-12.27,16.4,1.21,23.91,15.54,24.27,16.26,1.11.15,15.06,2.36,21.09,15.15A27.5,27.5,0,0,1,578.05,1835.07Z"/><path class="cls-7" d="M229.11,2188.82c-.2.52-1.65,4.14-5.24,5.23s-8.27-.93-10.47-5.23V2050.11h15.71Z"/><path class="cls-7" d="M360.83,2092c-.2.53-1.64,4.15-5.23,5.24s-8.28-.93-10.47-5.24v-138.7h15.7Z"/><path class="cls-7" d="M68.59,2138.22c-.2.52-1.65,4.14-5.24,5.23s-8.27-.92-10.46-5.23V1999.51h15.7Z"/><path class="cls-3" d="M360.83,1953.27,229.11,2058.84q-12.66-96-25.31-191.92Z"/><path class="cls-4" d="M229.11,2058.83,52.89,1999.51l150.92-132.6Q216.46,1962.88,229.11,2058.83Z"/><path class="cls-7" d="M743.81,1752a13.14,13.14,0,0,1-8.16,4.23,14,14,0,0,1-11.91-4.23v-76.1h20.07Z"/><path class="cls-8" d="M781.06,1660.46l6.36,9.29c-.08,3.74-.17,7.47-.25,11.21a18.08,18.08,0,0,1-.62,10.6c-2.74,7-10.28,11.77-19.19,12.22a36.43,36.43,0,0,1-18.58,6,36.85,36.85,0,0,1-22.68-7,24.66,24.66,0,0,1-24.17,1,21.15,21.15,0,0,1-9.85-2.76c-10.29-6-11.59-19.21-12-22.54a34.18,34.18,0,0,1,.88-12.21l8.46-5.81c5.76-2.38,12.21-6,12.47-10.77.3-5.52-7.87-8.19-8.11-14.1-.14-3.5,2.51-8.46,14.82-14.78.52-.72,10-13.45,26.18-12.26,16.4,1.2,23.92,15.54,24.28,16.25,17,5.92,20.85,11.29,21.09,15.15.21,3.46-2.36,6.83-1.49,13.23A22.19,22.19,0,0,0,781.06,1660.46Z"/><path class="cls-9" d="M781.32,1652.74a19,19,0,0,1,7,11.78,18,18,0,0,1-.88,8.72,17.19,17.19,0,0,1,0,7.86,17.91,17.91,0,0,1-13.08,13.08,17.71,17.71,0,0,1-10.47-.87,28.14,28.14,0,0,1-8.72,4.36c-9.71,2.87-18.12-.47-20.94-1.74-4.73,3.44-10.68,3.19-14,0-3-2.88-2.67-7.12-2.62-7.86-2.07,1.45-13.19,8.91-25.29,5.24-2.37-.72-7.26-2.2-10.47-7-4.5-6.68-2.14-14.49-1.75-15.7a14.81,14.81,0,0,1,0-7.85c2-7,8.7-9.69,9.6-10a39.06,39.06,0,0,1,4.36-24.86,38.62,38.62,0,0,1,14.82-14.78c.52-.73,10-13.45,26.18-12.26,16.4,1.2,23.92,15.54,24.27,16.25,1.11.16,15.06,2.36,21.1,15.15A27.6,27.6,0,0,1,781.32,1652.74Z"/><path class="cls-7" d="M1393.72,2216.07a13.13,13.13,0,0,1-8.15,4.22,14,14,0,0,1-11.91-4.22V2140h20.06Z"/><path class="cls-8" d="M1431,2124.56l6.36,9.3c-.08,3.73-.17,7.47-.26,11.2a18,18,0,0,1-.61,10.61c-2.75,7-10.28,11.76-19.19,12.21a36.42,36.42,0,0,1-18.58,6,36.91,36.91,0,0,1-22.68-7,24.6,24.6,0,0,1-24.17,1,21.15,21.15,0,0,1-9.85-2.76c-10.29-5.94-11.59-19.21-12-22.54a34.5,34.5,0,0,1,.87-12.21l8.47-5.81c5.76-2.38,12.21-6,12.47-10.77.3-5.52-7.87-8.19-8.11-14.09-.14-3.51,2.51-8.46,14.82-14.79.52-.72,10-13.44,26.18-12.26,16.4,1.2,23.92,15.54,24.27,16.26,17,5.91,20.86,11.28,21.1,15.15.21,3.45-2.36,6.83-1.49,13.22A21.87,21.87,0,0,0,1431,2124.56Z"/><path class="cls-9" d="M1431.24,2116.85a19,19,0,0,1,7,11.77,18.19,18.19,0,0,1-.88,8.73,17.14,17.14,0,0,1,0,7.85,17.91,17.91,0,0,1-13.08,13.08,17.71,17.71,0,0,1-10.47-.87,28.14,28.14,0,0,1-8.72,4.36c-9.71,2.87-18.12-.47-20.94-1.74-4.73,3.45-10.69,3.19-14,0-3-2.88-2.68-7.12-2.62-7.85-2.07,1.44-13.2,8.91-25.3,5.23-2.36-.72-7.25-2.2-10.46-7-4.5-6.68-2.14-14.48-1.75-15.7a14.69,14.69,0,0,1,0-7.85c2-7,8.7-9.68,9.6-10A39.09,39.09,0,0,1,1344,2092a38.7,38.7,0,0,1,14.82-14.78c.52-.72,10-13.45,26.18-12.26,16.4,1.2,23.91,15.54,24.27,16.25,1.11.16,15.06,2.36,21.09,15.16A27.57,27.57,0,0,1,1431.24,2116.85Z"/><path class="cls-7" d="M1596.12,2030.25a13.14,13.14,0,0,1-8.16,4.23,14,14,0,0,1-11.91-4.23v-76.1h20.07Z"/><path class="cls-8" d="M1633.37,1938.74l6.36,9.3c-.08,3.74-.17,7.47-.25,11.2a18.11,18.11,0,0,1-.62,10.61c-2.75,7-10.28,11.77-19.19,12.21a36.32,36.32,0,0,1-18.58,6,36.77,36.77,0,0,1-22.68-7,24.6,24.6,0,0,1-24.17,1,21,21,0,0,1-9.85-2.75c-10.29-6-11.59-19.22-12-22.54a34.54,34.54,0,0,1,.87-12.22q4.25-2.9,8.47-5.81c5.76-2.37,12.21-6,12.47-10.76.3-5.53-7.87-8.2-8.11-14.1-.14-3.51,2.51-8.46,14.82-14.78.52-.73,10-13.45,26.18-12.26,16.4,1.2,23.92,15.54,24.28,16.25,17,5.91,20.85,11.28,21.09,15.15.21,3.46-2.36,6.83-1.49,13.23A21.88,21.88,0,0,0,1633.37,1938.74Z"/><path class="cls-9" d="M1633.63,1931a19.07,19.07,0,0,1,7,11.78,18.13,18.13,0,0,1-.88,8.72,17.15,17.15,0,0,1,0,7.85,17.38,17.38,0,0,1-23.55,12.22,28.36,28.36,0,0,1-8.72,4.36c-9.71,2.87-18.12-.47-20.94-1.75-4.73,3.45-10.69,3.2-14,0-3-2.87-2.68-7.11-2.62-7.85-2.07,1.45-13.2,8.91-25.29,5.24-2.37-.72-7.26-2.21-10.47-7-4.5-6.69-2.14-14.49-1.75-15.71a14.69,14.69,0,0,1,0-7.85c2-7,8.7-9.68,9.6-10a39.06,39.06,0,0,1,4.36-24.86,38.62,38.62,0,0,1,14.82-14.78c.52-.73,10-13.45,26.18-12.27,16.4,1.21,23.92,15.54,24.27,16.26,1.11.15,15.06,2.36,21.1,15.15A27.6,27.6,0,0,1,1633.63,1931Z"/><path class="cls-5" d="M632.49,2067.16c.82,10.22,12.38,16.59,16.5,18.94,26.55,15.17,427.93,150,466.25,162.88a57,57,0,0,0,41.16-10.69l316.31-293.06a34.59,34.59,0,0,0,5.63-17.46,31.84,31.84,0,0,0-.29-5.41l-10.45-13-457.73-158.1c-6.06-2.58-25.28-9.84-44.26-1.44a49.09,49.09,0,0,0-9.72,5.85c-21.76,17.11-259,241.45-320.23,299.37A20.24,20.24,0,0,0,632.49,2067.16Z"/><path class="cls-4" d="M632.63,2066.92c.82,10.22,12.38,16.6,16.5,18.95,26.55,15.16,428.05,150.24,466.31,163.1a30,30,0,0,0,15.37-.29l6-453.9c-60.3-21.9-106.18-36.86-126.81-43.8,0,0-27-9.07-44.25-1.43a48.79,48.79,0,0,0-9.72,5.85c-21.76,17.11-259,241.45-320.23,299.37A20.12,20.12,0,0,0,632.63,2066.92Z"/><rect class="cls-5" x="1465.67" y="1901.11" width="12.39" height="24.29" transform="translate(2979.43 3798.51) rotate(178.92)"/><rect class="cls-4" x="632.39" y="2043.72" width="12.39" height="22.81" transform="translate(1315.68 4097.88) rotate(178.92)"/><text/><path class="cls-3" d="M632.24,2044.13c.83,10.21,12.38,16.59,16.5,18.94,26.55,15.17,427.93,150,466.25,162.88a50.25,50.25,0,0,0,18.89-.73,51.22,51.22,0,0,0,24.47-13.76c33.05-30,300.38-272.71,314.5-293.9,6.8-10.2,5-18.24,5-18.24a20.45,20.45,0,0,0-10.45-13l-457.73-158.1c-6.06-2.58-25.28-9.84-44.26-1.44a49.09,49.09,0,0,0-9.72,5.85c-21.76,17.11-259,241.45-320.23,299.37A20.22,20.22,0,0,0,632.24,2044.13Z"/><path class="cls-10" d="M1027,1953.09c8.68-3.15,20.53-2.95,30.1,1.07,12.76,5.34,16.65,15.42,8.7,22.5a22.93,22.93,0,0,1-7.39,4.23c-8.68,3.15-20.53,2.94-30.11-1.08-12.75-5.34-16.64-15.42-8.69-22.5A22.62,22.62,0,0,1,1027,1953.09Z"/><path class="cls-10" d="M1139.93,1974.47c16.28-5.89,34.81-8.58,54.61-7.83a192.75,192.75,0,0,1,62.23,13.3,175.52,175.52,0,0,1,24.38,11.69c3.37,2,6.34,3.88,8.88,5.66.7.49,1.36,1,2,1.44l-9.12,4.65c-7.19-5.51-17.64-11.49-32.47-17.27a153.58,153.58,0,0,0-25-7.39,139,139,0,0,0-36.55-2.59,117.47,117.47,0,0,0-32.36,6.61A87.76,87.76,0,0,0,1125,2002c-10.14,9.85-15,20.19-14.85,30.27a32.49,32.49,0,0,0,4,14.75,49.53,49.53,0,0,0,11,13.54c7.45,6.6,17.46,12.41,29.52,17.11a188.66,188.66,0,0,0,29.87,8.93c4,.85,7.86,1.53,11.44,2.08l-3.41,6.37c-.74-.1-1.5-.22-2.28-.35-6-1-13.48-2.49-21.75-4.68a253.17,253.17,0,0,1-26.69-8.71c-15.83-6.17-28-13.32-36.75-21a54.67,54.67,0,0,1-12.27-15,33.93,33.93,0,0,1-3.3-24.33c2-8.36,7.16-16.9,15.79-25.31C1114.74,1986.36,1126.57,1979.32,1139.93,1974.47Z"/><path class="cls-10" d="M1304.83,1990.19a89.81,89.81,0,0,1,7.69,6c.39.36.78.7,1.14,1,2.69,2.51,2.1,5.63-1.4,7.42l-23.92,12.22a10.13,10.13,0,0,1-1.16.5,15.37,15.37,0,0,1-7.11.64,12.41,12.41,0,0,1-7.24-3.22c-.72-.76-1.54-1.56-2.48-2.39-5.33-4.72-14.45-10.61-29.85-16.62a118.44,118.44,0,0,0-29.6-7.45,99.79,99.79,0,0,0-26.73.48,87.27,87.27,0,0,0-16.15,4.13,71.92,71.92,0,0,0-25.72,15.77c-6.46,6.28-10.16,12.53-11.56,18.53a24,24,0,0,0,2.36,17.13,37.23,37.23,0,0,0,8.33,10.24c5.68,5,13.42,9.56,23.15,13.36a160.21,160.21,0,0,0,25.15,7.53c7.47,1.58,14.11,2.44,20.28,3.15a12.91,12.91,0,0,1,7.27,3c1.65,1.56,2.09,3.38,1.21,5l-9.27,17.29a6.7,6.7,0,0,1-3.79,2.88,14.93,14.93,0,0,1-6.15.75q-5.43-.41-12.62-1.55c-4.79-.77-10.14-1.8-15.94-3.13a282,282,0,0,1-38.82-12c-18.07-7-32.59-15.45-43.13-24.79a66.69,66.69,0,0,1-15-18.36,42.55,42.55,0,0,1-5.2-19.59c-.15-13.28,6.36-26.72,19.39-39.39,10.75-10.45,24.5-18.74,40.43-24.51,19.37-7,41.92-10.32,65.64-9.4a224.84,224.84,0,0,1,72.64,15.4,205,205,0,0,1,21.72,10A155.21,155.21,0,0,1,1304.83,1990.19Zm-21.93,13.19,9.12-4.65c-.63-.47-1.29-1-2-1.44-2.54-1.78-5.51-3.7-8.88-5.66a175.52,175.52,0,0,0-24.38-11.69,192.75,192.75,0,0,0-62.23-13.3c-19.8-.75-38.33,1.94-54.61,7.83-13.36,4.85-25.19,11.89-34.63,21.07-8.63,8.41-13.8,17-15.79,25.31a33.93,33.93,0,0,0,3.3,24.33,54.67,54.67,0,0,0,12.27,15c8.72,7.72,20.92,14.87,36.75,21a253.17,253.17,0,0,0,26.69,8.71c8.27,2.19,15.72,3.72,21.75,4.68.78.13,1.54.25,2.28.35l3.41-6.37c-3.58-.55-7.4-1.23-11.44-2.08a188.66,188.66,0,0,1-29.87-8.93c-12.06-4.7-22.07-10.51-29.52-17.11a49.34,49.34,0,0,1-11-13.54,32.49,32.49,0,0,1-4-14.75c-.17-10.08,4.71-20.42,14.85-30.27a87.76,87.76,0,0,1,31.52-19.21,117.47,117.47,0,0,1,32.36-6.61,139,139,0,0,1,36.55,2.59,153.58,153.58,0,0,1,25,7.39c14.83,5.78,25.28,11.76,32.47,17.27"/><path class="cls-10" d="M907.46,1866.4A68.74,68.74,0,0,1,922,1863a100.58,100.58,0,0,1,26.43.31A140.58,140.58,0,0,1,999,1881a92.55,92.55,0,0,1,13.27,9.38l-8.5,3.93a90,90,0,0,0-12.07-8.74,118.3,118.3,0,0,0-18.81-9.23,89.54,89.54,0,0,0-26.9-6.1,68.3,68.3,0,0,0-12.55.36,50.7,50.7,0,0,0-11,2.57,31.49,31.49,0,0,0-11.31,6.76,17.43,17.43,0,0,0-4.73,7.19,12.12,12.12,0,0,0-.32,5.83,21,21,0,0,0,4.31,8.69,65.66,65.66,0,0,0,8.51,8.78c3.27,2.9,7.07,6,11.37,9.27q4.46,3.45,8.09,6.65a73.32,73.32,0,0,1,10.75,11.43,30.08,30.08,0,0,1,4.18,7.6,16.18,16.18,0,0,1,.42,10.37c-1,3.37-3.19,6.77-6.87,10.34a44.18,44.18,0,0,1-16,9.76,65.94,65.94,0,0,1-15.1,3.43,105,105,0,0,1-28.12-.94,166.31,166.31,0,0,1-34.15-9.5,168.24,168.24,0,0,1-23-10.91A102.54,102.54,0,0,1,814,1946.4l9.23-4.4.8.72A113.34,113.34,0,0,0,839.23,1954,123.33,123.33,0,0,0,875,1969a89.59,89.59,0,0,0,21.94,2.65,57.71,57.71,0,0,0,18.64-3.12,34.11,34.11,0,0,0,12.24-7.37,21.31,21.31,0,0,0,5.29-7.58,13.46,13.46,0,0,0,.83-6.21,20.46,20.46,0,0,0-4-9.62,60.61,60.61,0,0,0-9.31-9.94c-2.78-2.46-6-5-9.54-7.74-3.4-2.51-6.36-4.89-9-7.21a68.86,68.86,0,0,1-10.59-11.43c-3.77-5.34-5.34-10.07-5.16-14.28a14.88,14.88,0,0,1,1.56-6,20.48,20.48,0,0,1,4.15-5.53A42.8,42.8,0,0,1,907.46,1866.4Z"/><path class="cls-10" d="M1012.46,1873a108.69,108.69,0,0,1,16.67,11.93,64.5,64.5,0,0,1,4.84,4.73c2.33,2.54,1.45,5.55-2.11,7.2l-23.79,11a7.43,7.43,0,0,1-.82.34,15.43,15.43,0,0,1-7.57.58,11.79,11.79,0,0,1-7-3.39,49.21,49.21,0,0,0-4.65-4.67,71.18,71.18,0,0,0-10.1-7.4,95.41,95.41,0,0,0-15-7.36,61.48,61.48,0,0,0-13.44-3.64,38.73,38.73,0,0,0-10.33-.22,23.89,23.89,0,0,0-5.26,1.23,15.18,15.18,0,0,0-5.5,3.31,9.39,9.39,0,0,0-2.22,3,5.06,5.06,0,0,0-.35,2.77,7.93,7.93,0,0,0,.69,2.15,17.8,17.8,0,0,0,2.4,3.62,58.32,58.32,0,0,0,6.23,6.27c2.86,2.53,6.39,5.37,10.52,8.56,3.23,2.49,6.21,4.93,8.94,7.36a81.45,81.45,0,0,1,13.86,15.19c3.35,5,5.36,10,5.74,15a22.65,22.65,0,0,1-1.42,9.79,34.81,34.81,0,0,1-8.69,12.45A60.5,60.5,0,0,1,942.26,1986a93.8,93.8,0,0,1-21.18,4.82,128.79,128.79,0,0,1-24.22.34c-16.89-1.26-34.94-5.51-53.42-12.71A194.54,194.54,0,0,1,817.12,1966a121.44,121.44,0,0,1-19.7-13.85q-2.8-2.49-5.1-5c-2.33-2.52-1.5-5.5,2-7.17l24.49-11.67c.3-.14.61-.27.92-.39a15.48,15.48,0,0,1,7.58-.57,11.66,11.66,0,0,1,7.07,3.48,56.29,56.29,0,0,0,5.91,6,96.44,96.44,0,0,0,12.81,9.47,100.27,100.27,0,0,0,16.21,8.15,84,84,0,0,0,16.89,4.78,43.9,43.9,0,0,0,12,.47,25.25,25.25,0,0,0,5.86-1.32,17.89,17.89,0,0,0,6.4-3.91,11.43,11.43,0,0,0,3.27-4.84,7.13,7.13,0,0,0-.33-4.79,17,17,0,0,0-2.41-4.07,50.91,50.91,0,0,0-6.75-7q-3.54-3.13-8.48-6.87-5.53-4.1-10-8.08c-7.87-7-13.4-13.72-16.52-20.25s-3.74-12.86-1.76-18.72a27.82,27.82,0,0,1,7.24-10.94c5.41-5.27,12.63-9.59,21.22-12.7,12.25-4.44,27.14-6.41,43.11-5.56a161.9,161.9,0,0,1,50,11.06A160.26,160.26,0,0,1,1012.46,1873Zm-8.72,21.26,8.5-3.93A92.55,92.55,0,0,0,999,1881a140.58,140.58,0,0,0-50.55-17.7A100.58,100.58,0,0,0,922,1863a68.74,68.74,0,0,0-14.53,3.44,42.8,42.8,0,0,0-15.42,9.24,20.48,20.48,0,0,0-4.15,5.53,14.88,14.88,0,0,0-1.56,6c-.18,4.21,1.39,8.94,5.16,14.28a69.18,69.18,0,0,0,10.58,11.43c2.62,2.32,5.58,4.7,8.91,7.16,3.65,2.77,6.83,5.33,9.61,7.79a60.61,60.61,0,0,1,9.31,9.94,20.46,20.46,0,0,1,4,9.62,13.46,13.46,0,0,1-.83,6.21,21.31,21.31,0,0,1-5.29,7.58,34,34,0,0,1-12.2,7.35,57.59,57.59,0,0,1-18.68,3.14A89.11,89.11,0,0,1,875,1969a123.33,123.33,0,0,1-35.76-15A113.34,113.34,0,0,1,824,1942.72l-.8-.72-9.23,4.4a102.54,102.54,0,0,0,16.45,11.49,168.24,168.24,0,0,0,23,10.91,166.31,166.31,0,0,0,34.15,9.5,105,105,0,0,0,28.12.94,65.94,65.94,0,0,0,15.1-3.43,44.18,44.18,0,0,0,16-9.76c3.68-3.57,5.86-7,6.87-10.34a16.18,16.18,0,0,0-.42-10.37,30.08,30.08,0,0,0-4.18-7.6,73.32,73.32,0,0,0-10.75-11.43q-3.63-3.21-8.09-6.65c-4.3-3.31-8.1-6.37-11.37-9.27a65.66,65.66,0,0,1-8.51-8.78,21,21,0,0,1-4.31-8.69,12.12,12.12,0,0,1,.32-5.83,17.43,17.43,0,0,1,4.73-7.19,31.38,31.38,0,0,1,11.26-6.74,50.68,50.68,0,0,1,11.07-2.59,68.3,68.3,0,0,1,12.55-.36,89.54,89.54,0,0,1,26.9,6.1,118.3,118.3,0,0,1,18.81,9.23,90,90,0,0,1,12.07,8.74"/><path class="cls-7" d="M626.76,2100.14a7.86,7.86,0,0,1,5,6.87,8,8,0,0,1-7,7.85c.26,13.14-3.81,24-10.47,26.17-2.6.86-6,.53-11.34,0s-8.15-.82-9.6-2.61c-1.84-2.28-.54-4.78-.87-12.22a60.49,60.49,0,0,0-.87-7.85l-7.85-.87a28.27,28.27,0,0,1,.87,8.72c-.21,3.67-.54,9.31-4.36,12.22-1.79,1.36-4.42,1.5-9.6,1.74-7.56.35-11.34.52-13.08-.87-3.42-2.74-1.88-8-1.75-21.81.06-6.5-.21-11.76-.44-15-3.75-.21-5.8-1.45-7-2.61-5.8-5.73-2.48-21.09,9-38.11a13.86,13.86,0,0,1-.76-27,29.82,29.82,0,0,1,19.63-23.29,8.87,8.87,0,0,1,6.86-4.51,8.44,8.44,0,0,1,7.62,3.75,22.49,22.49,0,0,1,8,2,22.21,22.21,0,0,1,5.55,3.67,7.48,7.48,0,1,1,12.48,8.23q1.65,4.46,3.11,9.22A177.43,177.43,0,0,1,626.76,2100.14Z"/><path class="cls-10" d="M567.69,2033.45c0-.13,0-.26-.06-.38a.07.07,0,0,0,0,0s0,0,0,0-.09-.23-.14-.34l-.05-.08-.22-.29,0,0a3.38,3.38,0,0,0-.33-.26l-.07,0a2.71,2.71,0,0,0-.39-.17l-.1,0a3.18,3.18,0,0,0-.43-.06h-.16l-.38,0a.29.29,0,0,0-.1,0,2.78,2.78,0,0,0-.4.16,1.49,1.49,0,0,0-.2.15,1.24,1.24,0,0,0-.21.18,1,1,0,0,0-.22.31.87.87,0,0,0-.08.1c-.05.13-.12.26-.16.39a.09.09,0,0,1,0,0c0,.12,0,.26,0,.38v.1a3.18,3.18,0,0,0,.06.43l0,.09a2.83,2.83,0,0,0,.17.4.35.35,0,0,0,0,.08,2.69,2.69,0,0,0,.26.33l.06.06.3.23,0,0a1.68,1.68,0,0,0,.48.2h0l.38,0,.27,0a1.27,1.27,0,0,0,.26,0h0l.35-.15.08,0,.29-.22,0,0,.07-.06a2.7,2.7,0,0,0,.25-.34.35.35,0,0,0,.05-.08,2.78,2.78,0,0,0,.16-.4l0-.09c0-.12,0-.25.05-.38v-.14Z"/><path class="cls-10" d="M588.51,2037a2.31,2.31,0,0,0-.15-.38l0-.08a1.85,1.85,0,0,0-.31-.37,1.6,1.6,0,0,0-.4-.28,2.54,2.54,0,0,0-.38-.16,1.17,1.17,0,0,0-.26,0,1.15,1.15,0,0,0-.26,0,3.15,3.15,0,0,0-.43,0,1.64,1.64,0,0,0-.48.18l-.07,0-.29.23,0,0a.84.84,0,0,0-.18.24l-.08.09a1.86,1.86,0,0,0-.19.46c0,.14,0,.28-.06.41v.09l0,.21,0,.21s0,.06,0,.08a1.92,1.92,0,0,0,.21.46,3.81,3.81,0,0,0,.24.32l.07.06.28.23,0,0,.07,0a3,3,0,0,0,.38.15,2,2,0,0,0,.42.06h.09l.38,0h.05a2.54,2.54,0,0,0,.38-.16l.09,0a2.88,2.88,0,0,0,.39-.32l.22-.29,0,0,.05-.08a3.52,3.52,0,0,0,.16-.39,3.68,3.68,0,0,0,.06-.43v-.08A2,2,0,0,0,588.51,2037Z"/><path class="cls-10" d="M564.05,2040.86a1.3,1.3,0,0,0-.78-.6l-3.16-.53a1.39,1.39,0,0,0-1,.13,1.54,1.54,0,0,0-.29.23,1.31,1.31,0,0,0,.46,2.54l3.64.2a1.29,1.29,0,0,0,1.28-1.13A1.24,1.24,0,0,0,564.05,2040.86Z"/><path class="cls-10" d="M576.46,2047.6a1.33,1.33,0,0,0-1.79.47c-.1.18-.2.35-.31.52l-.17.24,0,0,0,0a8.5,8.5,0,0,1-.84.86l-.18.15c.17-.15,0,0-.07.05s-.33.23-.5.34l-.53.29-.27.13-.06,0h0a7.7,7.7,0,0,1-1.09.35c-.19,0-.39.08-.59.12h-.07l-.29,0a9.58,9.58,0,0,1-1.2,0h0l-.26,0c-.22,0-.43-.1-.64-.16a1.31,1.31,0,1,0-.7,2.52,9,9,0,0,0,10.16-4.17A1.33,1.33,0,0,0,576.46,2047.6Z"/><path class="cls-10" d="M604.16,2065.43c-4.6.86-8.91-1.51-12.83-3.59-3.38-1.8-7.36-4.06-11.34-3.32-3.6.68-5.22,4.1-5,7.5a15.19,15.19,0,0,0,4.48,9.23,16.76,16.76,0,0,0,10.4,4.94c1.12.1,1.11-1.64,0-1.74-6.2-.57-12.21-5.61-13.08-11.93a6.66,6.66,0,0,1,.75-4.51,4.69,4.69,0,0,1,4.44-1.86c3.79.23,7.26,2.62,10.54,4.31,3.74,1.93,7.8,3.45,12.07,2.66C605.73,2066.91,605.26,2065.23,604.16,2065.43Z"/><path class="cls-6" d="M389.34,2126.11a7.87,7.87,0,0,0-4.95,6.88,8,8,0,0,0,7,7.85c-.26,13.14,3.8,24,10.47,26.17,2.59.85,6,.52,11.34,0s8.14-.83,9.59-2.62c1.85-2.28.55-4.78.87-12.21a58.24,58.24,0,0,1,.88-7.85l7.85-.88a28,28,0,0,0-.87,8.73c.21,3.66.54,9.3,4.36,12.21,1.78,1.36,4.41,1.51,9.59,1.75,7.57.34,11.35.52,13.09-.88,3.52-2.82,2-8.43,1.74-21.81-.11-7.19.21-13.09.51-17a49.24,49.24,0,0,0,1.61-8.79,50.07,50.07,0,0,0,.1-8.15c2.65.47,15.38,2.45,24-5.57,1.52-1.41,7.82-7.24,6.12-13.3a8.7,8.7,0,0,0-5.25-5.8c-3.93-1.33-6.94,1.7-12.23,3.32-3.59,1.1-8.95,1.78-16.42-.43a13.86,13.86,0,0,0,.76-27,29.88,29.88,0,0,0-19.62-23.29,8.94,8.94,0,0,0-6.87-4.51,8.48,8.48,0,0,0-7.62,3.75,22.37,22.37,0,0,0-13.59,5.71,7.48,7.48,0,1,0-12.48,8.23c-1.11,2.89-2.16,6-3.12,9.23a122.64,122.64,0,0,0-4.84,29.58,35.06,35.06,0,0,1-5.24.87c-7.52.65-10.35-1.66-13.08,0-3.09,1.87-3.91,7.49-2.62,11.34,2,6,9.85,10,19.19,8.72a43.49,43.49,0,0,0-.87,9.6A42.56,42.56,0,0,0,389.34,2126.11Z"/><path class="cls-7" d="M429,2064c0-.08,0-.17,0-.26s0-.06,0-.08a2.62,2.62,0,0,0-.19-.46l0,0a3.27,3.27,0,0,0-.28-.37l-.06-.06-.36-.27,0,0a3.19,3.19,0,0,0-.46-.2l-.08,0a2.35,2.35,0,0,0-.6-.06l-.46.06h-.05l-.08,0-.43.17,0,0-.08.05a4,4,0,0,0-.39.3l-.08.06-.07.08-.28.36,0,0a2.78,2.78,0,0,0-.24.56s0,0,0,0a3.78,3.78,0,0,0-.06.47.27.27,0,0,0,0,.09,3.7,3.7,0,0,0,.06.48.43.43,0,0,1,0,0,4.89,4.89,0,0,0,.2.48,1.21,1.21,0,0,0,.42.45l0,0a1.57,1.57,0,0,0,.44.41c.16.06.31.14.47.19a2.24,2.24,0,0,0,.51.07s.06,0,.08,0a2.73,2.73,0,0,0,.51-.07l.09,0c.13-.05.28-.11.42-.18l0,0a2.61,2.61,0,0,0,.47-.35l.06-.06,0,0,.28-.36.09-.16.18-.42v0l0-.1c0-.16.05-.33.07-.5v-.09C429,2064.18,429,2064.09,429,2064Z"/><path class="cls-7" d="M454.86,2059.33c0-.15,0-.3-.06-.45l0-.13c0-.13-.11-.27-.17-.4l0-.06-.07-.11a2.38,2.38,0,0,0-.74-.72.57.57,0,0,0-.13-.08,3.26,3.26,0,0,0-.48-.2,2.62,2.62,0,0,0-.53-.08h-.14a3.62,3.62,0,0,0-.46.06H452l-.07,0-.42.18h0l-.11.07a2.79,2.79,0,0,0-.38.3,2,2,0,0,0-.36.5,2.2,2.2,0,0,0-.23.57,2.73,2.73,0,0,0-.06.64,4.53,4.53,0,0,0,.06.5l0,.12a2.2,2.2,0,0,0,.26.56,2.13,2.13,0,0,0,.69.69l.11.06.39.17.07,0H452a3.32,3.32,0,0,0,.44.06h.13l.51-.06.13,0a3.57,3.57,0,0,0,.45-.19.35.35,0,0,0,.12-.07,2,2,0,0,0,.48-.4,3.57,3.57,0,0,0,.3-.38,2.67,2.67,0,0,0,.2-.46,1.94,1.94,0,0,0,.11-.63Z"/><path class="cls-7" d="M456.74,2067.81s0-.06,0-.09a1.34,1.34,0,0,0-1.31-1.31l-2.22,0c-.71,0-1.43-.06-2.13,0a2.69,2.69,0,0,0-2.33,1.33,2.11,2.11,0,0,0,.76,2.76,3.83,3.83,0,0,0,2.38.44l2.2-.06a3,3,0,0,0,2.38-.92A2.05,2.05,0,0,0,456.74,2067.81Z"/><path class="cls-7" d="M484.9,2092.75a2.68,2.68,0,0,0-2.41-1.25,3,3,0,0,0-2.41-.3,3.09,3.09,0,0,0-2,1.94,3.45,3.45,0,0,0,.25,2.72,3.58,3.58,0,0,0,2.13,1.7,3.87,3.87,0,0,0,4.67-2A3,3,0,0,0,484.9,2092.75Z"/><path class="cls-11" d="M483.26,2087.62a1,1,0,0,0-.23-.44.93.93,0,0,0-.37-.34l-.31-.13a.5.5,0,0,0-.17,0s0-.06-.07-.08a1,1,0,0,0-.44-.23.93.93,0,0,0-.52,0,1,1,0,0,0-.49.16l-.27.2a1.35,1.35,0,0,0-.33.58c0,.12,0,.23-.05.35a1.26,1.26,0,0,0,.18.66l.41.86a1.31,1.31,0,0,0,1.13.65,1.31,1.31,0,0,0,.66-.18,1.41,1.41,0,0,0,.47-.47l.27-.53a1,1,0,0,0,.16-.49A.93.93,0,0,0,483.26,2087.62Z"/><path class="cls-11" d="M490.16,2089a1,1,0,0,0-.16-.48l-.2-.27a1.29,1.29,0,0,0-.5-.3l0,0a1.26,1.26,0,0,0-.66-.18l-.35.05a1.26,1.26,0,0,0-.57.33l-.58.57a1.12,1.12,0,0,0-.27.43.94.94,0,0,0-.11.5c0,.12,0,.23,0,.35a1,1,0,0,0,.23.44.69.69,0,0,0,.24.24,1,1,0,0,0,.44.23l.35,0a1.26,1.26,0,0,0,.66-.18l.83-.45a1.1,1.1,0,0,0,.37-.34,1,1,0,0,0,.23-.45A.92.92,0,0,0,490.16,2089Z"/><path class="cls-11" d="M490.81,2092l-.21-.26a1.26,1.26,0,0,0-.58-.34l-.84-.15a.93.93,0,0,0-.52,0,.94.94,0,0,0-.49.15,1.09,1.09,0,0,0-.37.34,1,1,0,0,0-.23.44c0,.12,0,.23-.05.35a1.26,1.26,0,0,0,.18.66l.21.27a1.26,1.26,0,0,0,.57.33l.85.16a1,1,0,0,0,.52,0,1,1,0,0,0,.49-.16,1,1,0,0,0,.36-.33,1,1,0,0,0,.24-.45c0-.11,0-.23.05-.35A1.42,1.42,0,0,0,490.81,2092Z"/><path class="cls-12" d="M447.43,2077.84l-11-1.27c-1.87-.21-3.49,1.76-3.49,3.49a3.22,3.22,0,0,0,.89,2.27,3.34,3.34,0,0,0,1.58,2.47c4.61,3,10.27,2.31,14.47-1C452.57,2081.68,450,2078.13,447.43,2077.84Z"/><path class="cls-10" d="M450.36,2079.51l-1-.82a.91.91,0,0,0-1.06-.07,7.67,7.67,0,0,0-2.86-.65,5.12,5.12,0,0,0-1.23.22,4.87,4.87,0,0,0-1.07-.31c-.19-.17-.36-.31-.43-.36a6.33,6.33,0,0,0-1.74-.77,6.15,6.15,0,0,0-3.77.16,1,1,0,0,0-.27.16,1.67,1.67,0,1,0-1.85,2.77,2.15,2.15,0,0,0,1.93-.07c.67-.34,1.07-1,1.69-1.4,0,0,0,0,0,0a4.37,4.37,0,0,1,1.65.08.77.77,0,0,0,0,.84,2.73,2.73,0,0,0,3.05,1,1.44,1.44,0,0,0,1.52-.13.93.93,0,0,0,.27-.29,3.5,3.5,0,0,1,1.51.17c.94.29,1.86.67,2.78,1S451,2080.05,450.36,2079.51Z"/><path class="cls-7" d="M452.33,2079.79a.91.91,0,0,0-.18-.45.78.78,0,0,0-.56-1.1c-4-.87-8-1.88-12-2.6a7.07,7.07,0,0,0-4.92.48,5.29,5.29,0,0,0-2.28,3,6.44,6.44,0,0,0,2.92,7.22c2.92,1.91,6.59,1.68,9.79.69S452.72,2084,452.33,2079.79ZM450,2080h0l-.15.09-.16.09-.08,0,.08,0s-.3.09-.34.1-.05,0-.1,0h-.38l-.27-.07h0l-.13-.07-.15-.1h0a3.57,3.57,0,0,1-.27-.28h0a1.08,1.08,0,0,1-.11-.18l-.09-.15h0l-.06-.23,2.54.56Zm-4.61-1.29a2.45,2.45,0,0,1-.86.77,2.22,2.22,0,0,1-1.74.1,3.2,3.2,0,0,1-1.73-1.82Zm-9.45-1.21a5,5,0,0,1,2.82-.21,3.29,3.29,0,0,1-.66,1.24,2.38,2.38,0,0,1-1.38.82l-.16,0H436l-.36-.1-.09,0-.18-.1-.13-.09-.09-.07-.17-.18,0,0h0a2.5,2.5,0,0,1-.21-.35A3,3,0,0,1,435.91,2077.46Zm9.36,7.73c-2.64.9-5.67,1.42-8.28.14a5,5,0,0,1-3-5.17,3.38,3.38,0,0,0,.46.37,3.49,3.49,0,0,0,2.56.49,4.15,4.15,0,0,0,2.82-2,4.43,4.43,0,0,0,2.71,2.24,3.91,3.91,0,0,0,3.74-1,3.2,3.2,0,0,0,1.8,1.62,3,3,0,0,0,2.18-.08C449.35,2083.56,447.11,2084.56,445.27,2085.19Z"/><path class="cls-7" d="M377.41,2097.21a2.71,2.71,0,0,1,2.42-1.24,2.92,2.92,0,0,1,2.41-.31,3.14,3.14,0,0,1,2,1.94,3.49,3.49,0,0,1-.25,2.72,3.6,3.6,0,0,1-2.14,1.7,3.85,3.85,0,0,1-4.66-2A3,3,0,0,1,377.41,2097.21Z"/><path class="cls-11" d="M379.05,2092.08a1,1,0,0,1,.24-.44,1,1,0,0,1,.36-.34l.32-.13.16,0s0-.06.07-.08a1.07,1.07,0,0,1,.45-.23.92.92,0,0,1,.52,0,.91.91,0,0,1,.48.15l.27.21a1.38,1.38,0,0,1,.34.57c0,.12,0,.24,0,.35a1.26,1.26,0,0,1-.18.66c-.13.29-.27.57-.4.86a1.41,1.41,0,0,1-.47.47,1.31,1.31,0,0,1-.66.18,1.31,1.31,0,0,1-1.13-.65l-.28-.53a1,1,0,0,1-.15-.48A1.06,1.06,0,0,1,379.05,2092.08Z"/><path class="cls-11" d="M372.16,2093.46a1,1,0,0,1,.15-.49l.21-.27a1.34,1.34,0,0,1,.5-.3l0,0a1.31,1.31,0,0,1,.66-.18l.35.05a1.28,1.28,0,0,1,.58.34l.57.57a1.43,1.43,0,0,1,.38.92c0,.12,0,.23,0,.35a.91.91,0,0,1-.24.44.59.59,0,0,1-.23.24,1.07,1.07,0,0,1-.45.23l-.34,0a1.26,1.26,0,0,1-.66-.18l-.84-.45a1,1,0,0,1-.36-.34.91.91,0,0,1-.24-.44A1,1,0,0,1,372.16,2093.46Z"/><path class="cls-11" d="M371.51,2096.49l.2-.27a1.48,1.48,0,0,1,.58-.34l.85-.15a1,1,0,0,1,.52,0,1,1,0,0,1,.48.15,1,1,0,0,1,.37.34.94.94,0,0,1,.24.45c0,.11,0,.23,0,.34a1.26,1.26,0,0,1-.18.66l-.2.27a1.29,1.29,0,0,1-.58.33l-.84.16a1.06,1.06,0,0,1-.53,0,1,1,0,0,1-.48-.15,1.1,1.1,0,0,1-.37-.34,1,1,0,0,1-.23-.45c0-.11,0-.23-.05-.34A1.26,1.26,0,0,1,371.51,2096.49Z"/><rect class="cls-13" x="483.31" y="2077.65" width="25.55" height="19.19" transform="translate(-919.95 475.55) rotate(-27.93)"/><rect class="cls-12" x="475.82" y="2071.45" width="25.55" height="19.19" transform="translate(-1481.51 1251.51) rotate(-53.95)"/><rect class="cls-14" x="358.28" y="2079.34" width="25.55" height="19.19" transform="translate(-843.67 3828.42) rotate(-135)"/><path class="cls-4" d="M1246.77,1768.76c3.86,2.76,4.27,7.7,4.36,8.72.67,8-8.27,17.46-18.32,20.07-14,3.63-25.27-7.22-26-7.91l-7.85-.87a29.12,29.12,0,0,0-8.06,11.39c-2.83,7.53-.33,11.47-3.49,14.84-4.28,4.56-15.62,4.48-20.93-1.75-3.25-3.81-2.94-8.72-2.62-14a42.08,42.08,0,0,1,6.11-19.19,33.89,33.89,0,0,1-1-17.15,31,31,0,0,1,1-3.79,12.57,12.57,0,0,1-9.6,2.62c-4.31-.74-7.88-4-8.72-7-1.69-6,6.4-15.26,20.93-21.78a13.86,13.86,0,0,1-.77-27,29.91,29.91,0,0,1,19.63-23.29,8.94,8.94,0,0,1,6.86-4.51,8.47,8.47,0,0,1,7.62,3.76,22.21,22.21,0,0,1,13.6,5.71,7.47,7.47,0,1,1,12.48,8.22c1.08,2.92,2.13,6,3.12,9.23a169.16,169.16,0,0,1,4.33,17.46A103.37,103.37,0,0,1,1252,1733c7,6.8,7.64,9.37,7.85,10.47,1.24,6.29-2.65,15.06-8.72,15.7-4.37.47-8-3.47-8.73-4.36a20.58,20.58,0,0,1,.88,5.24,21,21,0,0,1-1,7A9.76,9.76,0,0,1,1246.77,1768.76Z"/><path class="cls-11" d="M1182,1705.8v0l0-.08c0-.11-.09-.23-.14-.34l0,0a1.78,1.78,0,0,0-.25-.33,1.66,1.66,0,0,0-.38-.31,1.54,1.54,0,0,0-.46-.19h0l-.37,0h-.14l-.38,0-.1,0,0,0-.34.14-.09,0a2.69,2.69,0,0,0-.33.26,2.33,2.33,0,0,0-.26.33l0,.07a2.78,2.78,0,0,0-.16.4,1,1,0,0,0-.05.3s0,.1,0,.16a.28.28,0,0,0,0,.09,2.32,2.32,0,0,0,0,.38s0,0,0,0l0,0a3.45,3.45,0,0,0,.14.34.41.41,0,0,0,0,.09l.22.28,0,0,.08.06a2.06,2.06,0,0,0,.41.3c.1,0,.26.12.39.16s.29,0,.43.06h.08l.22,0a.83.83,0,0,0,.22,0,2.74,2.74,0,0,0,.38-.15l.08,0,.16-.13.16-.12.06-.07a2.28,2.28,0,0,0,.28-.39,2.41,2.41,0,0,0,.18-.47,2.76,2.76,0,0,0,0-.51C1182,1706.05,1182,1705.92,1182,1705.8Z"/><path class="cls-11" d="M1202.86,1710.2a2.35,2.35,0,0,0,0-.37v-.07h0c0-.1-.09-.22-.14-.32l0,0a.67.67,0,0,0-.12-.16l-.12-.16,0,0-.28-.22,0,0,0,0h0l-.33-.15h-.1l-.37,0h-.1l-.37,0a1.82,1.82,0,0,0-.43.16l0,0-.15.12-.16.12s0,0-.05,0a2.92,2.92,0,0,0-.21.28l0,0,0,.05c0,.11-.1.23-.14.34v0s0,0,0,.07,0,.25-.05.37v.11c0,.13,0,.26.05.38v0a.14.14,0,0,0,0,.07c0,.12.09.23.14.34l0,0a2.67,2.67,0,0,0,.24.32l.06,0a.85.85,0,0,0,.42.27.79.79,0,0,0,.27.1,1.37,1.37,0,0,0,.53.12h0l.37,0,.08,0,.33-.14h0l.06,0,.28-.22,0,0,0,0,.22-.29,0,0,0-.06c0-.11.1-.22.14-.33l0,0s0,0,0-.08,0-.25,0-.37v0A.17.17,0,0,0,1202.86,1710.2Z"/><path class="cls-11" d="M1179.13,1713a2.42,2.42,0,0,0-1.79-.59h-3.7a1.65,1.65,0,0,0-2,.75,1.76,1.76,0,0,0,.37,2.2,2.79,2.79,0,0,0,1.9.58l1.78,0c1.1,0,2.57.27,3.43-.61A1.69,1.69,0,0,0,1179.13,1713Z"/><path class="cls-11" d="M1193.28,1720.94a5.64,5.64,0,0,1-8.94,1.08,1.31,1.31,0,0,0-1.85,1.85,8.3,8.3,0,0,0,13-1.61A1.31,1.31,0,0,0,1193.28,1720.94Z"/><path class="cls-7" d="M459.58,2091.67a.87.87,0,0,0-1.5.88,23.68,23.68,0,0,1,3.19,11.87.88.88,0,0,0,1.75,0A25.61,25.61,0,0,0,459.58,2091.67Z"/><path class="cls-7" d="M453,2131.86a23.37,23.37,0,0,1-15.1,9.38c-1.1.19-.64,1.87.46,1.69a25.11,25.11,0,0,0,16.14-10.19C455.15,2131.82,453.63,2131,453,2131.86Z"/><path class="cls-7" d="M1239,1750l-10.29-5.93a.87.87,0,0,0-.88,1.51l10.29,5.93A.87.87,0,0,0,1239,1750Z"/><path class="cls-7" d="M1172.78,1734.86a26.28,26.28,0,0,0-4.07,19.51c.2,1.1,1.88.64,1.68-.46a24.51,24.51,0,0,1,3.9-18.17C1174.92,1734.81,1173.41,1733.94,1172.78,1734.86Z"/><path class="cls-10" d="M557.83,2066.18q-.45,8.12-.91,16.23c-.06,1.12,1.69,1.12,1.75,0l.9-16.23C559.64,2065.06,557.89,2065.06,557.83,2066.18Z"/><path class="cls-10" d="M572.94,2111a12.26,12.26,0,0,1-9.51-7.69.87.87,0,1,0-1.68.47,14,14,0,0,0,10.73,8.9.89.89,0,0,0,1.07-.61A.87.87,0,0,0,572.94,2111Z"/><path class="cls-7" d="M1240.14,1772.36a27,27,0,0,1-13.84,14.17c-1,.46-.14,2,.88,1.5a28.65,28.65,0,0,0,14.64-15.21C1242.25,1771.79,1240.56,1771.33,1240.14,1772.36Z"/></g></svg>