<svg width="23" height="23" viewBox="0 0 23 23" fill="none" xmlns="http://www.w3.org/2000/svg">
<path d="M11.1816 21.1819C16.7045 21.1819 21.1817 16.7047 21.1817 11.1819C21.1817 5.65904 16.7045 1.18188 11.1816 1.18188C5.6588 1.18188 1.18164 5.65904 1.18164 11.1819C1.18164 16.7047 5.6588 21.1819 11.1816 21.1819Z" stroke="#CDEAFF" stroke-width="2"/>
<path fill-rule="evenodd" clip-rule="evenodd" d="M11.0162 8.66187C11.1959 8.9264 11.2863 9.24147 11.2863 9.60943C11.2863 9.9881 11.1959 10.2931 11.014 10.5231C10.9112 10.6521 10.7615 10.7704 10.5632 10.8768C10.8643 10.9927 11.0908 11.1752 11.245 11.4249C11.3981 11.674 11.4744 11.9777 11.4744 12.3344C11.4744 12.7018 11.3874 13.0323 11.2117 13.3236C11.1004 13.5168 10.9609 13.6803 10.7942 13.8122C10.6061 13.9638 10.3846 14.0673 10.1282 14.1237C9.87167 14.1802 9.59428 14.2075 9.29429 14.2075H6.63623V8.00024H9.48694C10.2067 8.01213 10.7157 8.23208 11.0162 8.66187ZM7.81244 9.07859V10.4482H9.24684C9.50219 10.4482 9.71066 10.3965 9.8711 10.2937C10.0299 10.1914 10.1106 10.0095 10.1106 9.74913C10.1106 9.45963 10.005 9.26881 9.7937 9.17548C9.61123 9.11128 9.37904 9.07859 9.09656 9.07859H7.81244ZM7.81244 11.4748V13.1298H9.24458C9.5005 13.1298 9.69992 13.0935 9.84229 13.021C10.101 12.8855 10.2298 12.6275 10.2298 12.2464C10.2298 11.9225 10.1056 11.7013 9.85472 11.5801C9.71405 11.5129 9.51745 11.4772 9.26492 11.4748H7.81244ZM15.0409 9.71109C15.346 9.85435 15.5968 10.0808 15.794 10.39C15.9742 10.6628 16.09 10.9791 16.1426 11.3387C16.1731 11.5497 16.1861 11.8535 16.1804 12.25H13.0026C13.0212 12.7107 13.1721 13.0335 13.4591 13.2184C13.6336 13.3337 13.8432 13.3908 14.0884 13.3908C14.3472 13.3908 14.559 13.3212 14.7212 13.1809C14.8104 13.1048 14.8884 12.9996 14.9562 12.8647H16.1205C16.09 13.1369 15.9488 13.4134 15.6979 13.6951C15.3076 14.141 14.7601 14.3639 14.0573 14.3639C13.4766 14.3639 12.9636 14.176 12.5213 13.7992C12.0761 13.4229 11.8552 12.81 11.8552 11.9623C11.8552 11.1663 12.0552 10.557 12.4552 10.132C12.8563 9.70871 13.376 9.49589 14.015 9.49589C14.3946 9.49589 14.737 9.56723 15.0409 9.71109ZM13.3348 10.7478C13.1738 10.9226 13.0721 11.1598 13.0308 11.4582H14.9963C14.9759 11.1396 14.8737 10.8982 14.6929 10.733C14.5099 10.5683 14.2844 10.4857 14.0155 10.4857C13.7235 10.4857 13.4958 10.573 13.3348 10.7478ZM12.7359 9.06253H15.2635V8.29034H12.7359V9.06253Z" fill="#CDEAFF"/>
</svg>
