<svg width="22" height="23" viewBox="0 0 22 23" fill="none" xmlns="http://www.w3.org/2000/svg">
<path fill-rule="evenodd" clip-rule="evenodd" d="M6.95955 9.78744C7.08606 9.87004 7.46736 10.1155 8.10352 10.5235C8.73969 10.9315 9.22702 11.2457 9.56558 11.466C9.60277 11.4902 9.68181 11.5427 9.8027 11.6236C9.92359 11.7046 10.0241 11.77 10.104 11.8199C10.184 11.8698 10.2807 11.9258 10.3942 11.9878C10.5077 12.0497 10.6147 12.0962 10.7151 12.1271C10.8156 12.1582 10.9086 12.1736 10.9941 12.1736H10.9998H11.0054C11.0909 12.1736 11.1839 12.1582 11.2844 12.1271C11.3848 12.0962 11.4919 12.0496 11.6053 11.9878C11.7187 11.9258 11.8154 11.8698 11.8954 11.8199C11.9754 11.77 12.0759 11.7046 12.1967 11.6236C12.3176 11.5426 12.3967 11.4902 12.4339 11.466C12.7761 11.2457 13.6467 10.6861 15.0455 9.78731C15.3171 9.61176 15.5439 9.39994 15.7263 9.15199C15.9087 8.90416 15.9998 8.64417 15.9998 8.37212C15.9998 8.14484 15.9113 7.95027 15.7346 7.78841C15.5579 7.62655 15.3486 7.54565 15.1069 7.54565H6.89256C6.60613 7.54565 6.38572 7.63517 6.23133 7.81421C6.07695 7.99331 5.99976 8.21717 5.99976 8.48573C5.99976 8.70268 6.10208 8.93777 6.30667 9.19085C6.51126 9.44394 6.72893 9.64282 6.95955 9.78744ZM15.4417 10.3401C14.2215 11.1045 13.2951 11.6985 12.6628 12.1221C12.4507 12.2667 12.2787 12.3796 12.1465 12.4604C12.0145 12.5414 11.8387 12.624 11.6192 12.7083C11.3998 12.7927 11.1952 12.8349 11.0054 12.8349H10.9998H10.9941C10.8044 12.8349 10.5998 12.7927 10.3803 12.7083C10.1609 12.624 9.98503 12.5414 9.85298 12.4604C9.72092 12.3796 9.54887 12.2667 9.33681 12.1221C8.83455 11.7812 7.9101 11.1872 6.56339 10.3401C6.35133 10.2093 6.16345 10.0594 5.99976 9.89071V13.9919C5.99976 14.2192 6.08715 14.4137 6.26202 14.5756C6.43688 14.7375 6.64708 14.8184 6.89263 14.8184H15.107C15.3524 14.8184 15.5626 14.7375 15.7375 14.5756C15.9124 14.4136 15.9998 14.2192 15.9998 13.9919V9.89071C15.8398 10.0559 15.6538 10.2058 15.4417 10.3401Z" fill="#CDEAFF"/>
<path d="M11 21.1819C16.5229 21.1819 21 16.7047 21 11.1819C21 5.65904 16.5229 1.18188 11 1.18188C5.47715 1.18188 1 5.65904 1 11.1819C1 16.7047 5.47715 21.1819 11 21.1819Z" stroke="#CDEAFF" stroke-width="2"/>
</svg>
