<svg width="23" height="22" viewBox="0 0 23 22" fill="none" xmlns="http://www.w3.org/2000/svg">
<path d="M11.7273 21C17.2501 21 21.7273 16.5229 21.7273 11C21.7273 5.47715 17.2501 1 11.7273 1C6.20445 1 1.72729 5.47715 1.72729 11C1.72729 16.5229 6.20445 21 11.7273 21Z" stroke="#8D8D8D" stroke-width="2"/>
<path fill-rule="evenodd" clip-rule="evenodd" d="M6.27271 11.1382C6.27271 13.6089 7.83545 15.7053 10.0029 16.4448C10.2758 16.4963 10.3753 16.3236 10.3753 16.1753C10.3753 16.0424 10.3706 15.6908 10.3679 15.2242C8.85072 15.5621 8.5306 14.4744 8.5306 14.4744C8.28248 13.8282 7.92486 13.6562 7.92486 13.6562C7.42961 13.3091 7.96236 13.3163 7.96236 13.3163C8.50984 13.3558 8.79781 13.8928 8.79781 13.8928C9.28469 14.7474 10.0746 14.5005 10.3853 14.3573C10.4349 13.9958 10.5759 13.7496 10.7316 13.6095C9.52042 13.4684 8.24698 12.9888 8.24698 10.8457C8.24698 10.2349 8.45961 9.73569 8.80853 9.34463C8.75261 9.20318 8.56543 8.63462 8.8621 7.86486C8.8621 7.86486 9.32018 7.71413 10.3619 8.43789C10.7972 8.31394 11.2637 8.2518 11.7274 8.24974C12.1909 8.2518 12.6573 8.31394 13.0933 8.43789C14.1343 7.71413 14.5917 7.86486 14.5917 7.86486C14.8891 8.63462 14.7019 9.20318 14.646 9.34463C14.9956 9.73569 15.2065 10.2349 15.2065 10.8457C15.2065 12.9939 13.9314 13.4667 12.7162 13.6054C12.9121 13.7781 13.0862 14.1194 13.0862 14.6409C13.0862 15.3887 13.0799 15.9919 13.0799 16.1753C13.0799 16.325 13.178 16.4987 13.4549 16.4441C15.6204 15.7032 17.1818 13.6085 17.1818 11.1382C17.1818 8.04923 14.7394 5.54529 11.7268 5.54529C8.71511 5.54529 6.27271 8.04923 6.27271 11.1382Z" fill="#8D8D8D"/>
</svg>
