<svg width="23" height="23" viewBox="0 0 23 23" fill="none" xmlns="http://www.w3.org/2000/svg">
<path d="M11.7273 21.1819C17.2501 21.1819 21.7273 16.7047 21.7273 11.1819C21.7273 5.65904 17.2501 1.18188 11.7273 1.18188C6.20445 1.18188 1.72729 5.65904 1.72729 11.1819C1.72729 16.7047 6.20445 21.1819 11.7273 21.1819Z" stroke="#CDEAFF" stroke-width="2"/>
<path fill-rule="evenodd" clip-rule="evenodd" d="M6.27271 11.3201C6.27271 13.7907 7.83545 15.8871 10.0029 16.6267C10.2758 16.6782 10.3753 16.5055 10.3753 16.3572C10.3753 16.2243 10.3706 15.8727 10.3679 15.4061C8.85072 15.744 8.5306 14.6563 8.5306 14.6563C8.28248 14.0101 7.92486 13.8381 7.92486 13.8381C7.42961 13.491 7.96236 13.4982 7.96236 13.4982C8.50984 13.5377 8.79781 14.0747 8.79781 14.0747C9.28469 14.9292 10.0746 14.6824 10.3853 14.5392C10.4349 14.1777 10.5759 13.9315 10.7316 13.7914C9.52042 13.6503 8.24698 13.1707 8.24698 11.0276C8.24698 10.4168 8.45961 9.91758 8.80853 9.52652C8.75261 9.38506 8.56543 8.8165 8.8621 8.04674C8.8621 8.04674 9.32018 7.89602 10.3619 8.61977C10.7972 8.49583 11.2637 8.43368 11.7274 8.43162C12.1909 8.43368 12.6573 8.49583 13.0933 8.61977C14.1343 7.89602 14.5917 8.04674 14.5917 8.04674C14.8891 8.8165 14.7019 9.38506 14.646 9.52652C14.9956 9.91758 15.2065 10.4168 15.2065 11.0276C15.2065 13.1758 13.9314 13.6486 12.7162 13.7873C12.9121 13.96 13.0862 14.3013 13.0862 14.8228C13.0862 15.5706 13.0799 16.1738 13.0799 16.3572C13.0799 16.5069 13.178 16.6806 13.4549 16.626C15.6204 15.8851 17.1818 13.7904 17.1818 11.3201C17.1818 8.23111 14.7394 5.72717 11.7268 5.72717C8.71511 5.72717 6.27271 8.23111 6.27271 11.3201Z" fill="#CDEAFF"/>
</svg>
