<svg width="23" height="23" viewBox="0 0 23 23" fill="none" xmlns="http://www.w3.org/2000/svg">
<path d="M11.8184 21.1819C17.3412 21.1819 21.8184 16.7047 21.8184 11.1819C21.8184 5.65904 17.3412 1.18188 11.8184 1.18188C6.29551 1.18188 1.81836 5.65904 1.81836 11.1819C1.81836 16.7047 6.29551 21.1819 11.8184 21.1819Z" stroke="#CDEAFF" stroke-width="2"/>
<path fill-rule="evenodd" clip-rule="evenodd" d="M11.8181 7.08256C13.1532 7.08256 13.3113 7.08764 13.8385 7.1117C14.326 7.13395 14.5908 7.2154 14.767 7.28385C15.0003 7.37456 15.1669 7.48292 15.3419 7.65788C15.5168 7.83284 15.6252 7.99942 15.7159 8.23278C15.7844 8.40899 15.8658 8.67374 15.8881 9.16121C15.9121 9.68846 15.9172 9.84659 15.9172 11.1817C15.9172 12.5167 15.9121 12.6748 15.8881 13.2021C15.8658 13.6896 15.7844 13.9543 15.7159 14.1305C15.6252 14.3639 15.5168 14.5305 15.3419 14.7054C15.1669 14.8804 15.0003 14.9887 14.767 15.0794C14.5908 15.1479 14.326 15.2294 13.8385 15.2516C13.3114 15.2757 13.1533 15.2807 11.8181 15.2807C10.483 15.2807 10.3248 15.2757 9.79769 15.2516C9.31019 15.2294 9.04545 15.1479 8.86926 15.0794C8.63587 14.9887 8.46929 14.8804 8.29434 14.7054C8.11938 14.5305 8.01101 14.3639 7.92033 14.1305C7.85185 13.9543 7.7704 13.6896 7.74815 13.2021C7.7241 12.6748 7.71901 12.5167 7.71901 11.1817C7.71901 9.84659 7.7241 9.68846 7.74815 9.16123C7.7704 8.67374 7.85185 8.40899 7.92033 8.23278C8.01101 7.99942 8.11938 7.83284 8.29434 7.65788C8.46929 7.48292 8.63587 7.37456 8.86926 7.28385C9.04545 7.2154 9.31019 7.13395 9.79767 7.1117C10.3249 7.08764 10.483 7.08256 11.8181 7.08256ZM11.8181 6.18164C10.4602 6.18164 10.2899 6.1874 9.75662 6.21173C9.22441 6.23602 8.86096 6.32053 8.54291 6.44414C8.21411 6.57192 7.93527 6.74289 7.65731 7.02085C7.37934 7.29882 7.20838 7.57766 7.0806 7.90645C6.95699 8.22451 6.87248 8.58796 6.84818 9.12017C6.82385 9.65345 6.81812 9.82372 6.81812 11.1817C6.81812 12.5396 6.82385 12.7099 6.84818 13.2431C6.87248 13.7753 6.95699 14.1388 7.0806 14.4569C7.20838 14.7856 7.37934 15.0645 7.65731 15.3425C7.93527 15.6204 8.21411 15.7914 8.54291 15.9192C8.86096 16.0428 9.22441 16.1273 9.75662 16.1516C10.2899 16.1759 10.4602 16.1816 11.8181 16.1816C13.176 16.1816 13.3463 16.1759 13.8796 16.1516C14.4118 16.1273 14.7753 16.0428 15.0933 15.9192C15.4221 15.7914 15.7009 15.6204 15.9789 15.3425C16.2569 15.0645 16.4278 14.7856 16.5556 14.4569C16.6792 14.1388 16.7637 13.7753 16.788 13.2431C16.8124 12.7099 16.8181 12.5396 16.8181 11.1817C16.8181 9.82372 16.8124 9.65345 16.788 9.12017C16.7637 8.58796 16.6792 8.22451 16.5556 7.90645C16.4278 7.57766 16.2569 7.29882 15.9789 7.02085C15.7009 6.74289 15.4221 6.57192 15.0933 6.44414C14.7753 6.32053 14.4118 6.23602 13.8796 6.21173C13.3463 6.1874 13.176 6.18164 11.8181 6.18164ZM11.828 8.62212C10.409 8.62212 9.25859 9.7725 9.25859 11.1916C9.25859 12.6106 10.409 13.761 11.828 13.761C13.2471 13.761 14.3975 12.6106 14.3975 11.1916C14.3975 9.7725 13.2471 8.62212 11.828 8.62212ZM11.828 12.8595C10.9069 12.8595 10.1601 12.1127 10.1601 11.1916C10.1601 10.2704 10.9069 9.52367 11.828 9.52367C12.7492 9.52367 13.4959 10.2704 13.4959 11.1916C13.4959 12.1127 12.7492 12.8595 11.828 12.8595ZM15.0721 8.50306C15.0721 8.8318 14.8056 9.09831 14.4769 9.09831C14.1481 9.09831 13.8816 8.8318 13.8816 8.50306C13.8816 8.17432 14.1481 7.90783 14.4769 7.90783C14.8056 7.90783 15.0721 8.17432 15.0721 8.50306Z" fill="#CDEAFF"/>
</svg>
