<svg width="23" height="23" viewBox="0 0 23 23" fill="none" xmlns="http://www.w3.org/2000/svg">
<path d="M11.3635 21.1819C16.8864 21.1819 21.3635 16.7047 21.3635 11.1819C21.3635 5.65904 16.8864 1.18188 11.3635 1.18188C5.84068 1.18188 1.36353 5.65904 1.36353 11.1819C1.36353 16.7047 5.84068 21.1819 11.3635 21.1819Z" stroke="#CDEAFF" stroke-width="2"/>
<path fill-rule="evenodd" clip-rule="evenodd" d="M7.04742 9.55153H8.81931V15.7268H7.04742V9.55153ZM7.8882 8.77911H7.87537C7.23396 8.77911 6.81812 8.30704 6.81812 7.70925C6.81812 7.09923 7.24626 6.63647 7.90049 6.63647C8.5542 6.63647 8.95615 7.09806 8.96898 7.7075C8.96898 8.3053 8.5542 8.77911 7.8882 8.77911ZM15.909 15.7274H13.8998V12.5312C13.8998 11.6947 13.5855 11.1243 12.8944 11.1243C12.3658 11.1243 12.0718 11.5091 11.935 11.881C11.8836 12.0137 11.8917 12.1994 11.8917 12.3857V15.7274H9.90116C9.90116 15.7274 9.92681 10.0661 9.90116 9.55153H11.8917V10.5207C12.0093 10.0969 12.6453 9.49216 13.6604 9.49216C14.9197 9.49216 15.909 10.381 15.909 12.2931V15.7274Z" fill="#CDEAFF"/>
</svg>
