<svg width="23" height="22" viewBox="0 0 23 22" fill="none" xmlns="http://www.w3.org/2000/svg">
<path d="M11.6365 21C17.1593 21 21.6365 16.5229 21.6365 11C21.6365 5.47715 17.1593 1 11.6365 1C6.11363 1 1.63647 5.47715 1.63647 11C1.63647 16.5229 6.11363 21 11.6365 21Z" stroke="#8D8D8D" stroke-width="2"/>
<path fill-rule="evenodd" clip-rule="evenodd" d="M16.6057 8.45793C16.6037 8.4564 16.6022 8.45439 16.5998 8.45325L16.5964 8.45153L13.5798 6.94322C13.5594 6.933 13.538 6.92612 13.5163 6.92058C13.4891 6.9136 13.4613 6.9093 13.4334 6.9093C13.3179 6.9093 13.2029 6.9673 13.1406 7.0684L11.4039 9.89065L13.5834 13.4322L16.6149 8.50609C16.625 8.48965 16.6202 8.4694 16.6057 8.45793ZM10.4474 9.24777V12.4604L13.3029 13.8881L10.4474 9.24777ZM13.7319 14.1026L16.0824 15.2778C16.3883 15.4308 16.6362 15.3237 16.6362 15.0388V9.38307L13.7319 14.1026ZM9.95163 8.46252L7.00545 6.98938C6.95222 6.96281 6.90158 6.9502 6.85572 6.9502C6.72672 6.9502 6.63623 7.05005 6.63623 7.21756V13.5785C6.63623 13.7488 6.76083 13.9504 6.91314 14.0266L9.50808 15.324C9.57458 15.3572 9.63793 15.373 9.69517 15.373C9.85646 15.373 9.9696 15.2482 9.9696 15.0388V8.49147C9.9696 8.47924 9.96262 8.46796 9.95163 8.46252Z" fill="#8D8D8D"/>
</svg>
