<svg width="23" height="23" viewBox="0 0 23 23" fill="none" xmlns="http://www.w3.org/2000/svg">
<path d="M11.6365 21.1819C17.1593 21.1819 21.6365 16.7047 21.6365 11.1819C21.6365 5.65904 17.1593 1.18188 11.6365 1.18188C6.11363 1.18188 1.63647 5.65904 1.63647 11.1819C1.63647 16.7047 6.11363 21.1819 11.6365 21.1819Z" stroke="#CDEAFF" stroke-width="2"/>
<path fill-rule="evenodd" clip-rule="evenodd" d="M16.6057 8.63981C16.6037 8.63828 16.6022 8.63628 16.5998 8.63513L16.5964 8.63341L13.5798 7.12511C13.5594 7.11488 13.538 7.108 13.5163 7.10246C13.4891 7.09549 13.4613 7.09119 13.4334 7.09119C13.3179 7.09119 13.2029 7.14919 13.1406 7.25028L11.4039 10.0725L13.5834 13.6141L16.6149 8.68797C16.625 8.67154 16.6202 8.65128 16.6057 8.63981ZM10.4474 9.42965V12.6422L13.3029 14.07L10.4474 9.42965ZM13.7319 14.2845L16.0824 15.4597C16.3883 15.6127 16.6362 15.5056 16.6362 15.2206V9.56496L13.7319 14.2845ZM9.95163 8.6444L7.00545 7.17126C6.95222 7.1447 6.90158 7.13208 6.85572 7.13208C6.72672 7.13208 6.63623 7.23194 6.63623 7.39944V13.7604C6.63623 13.9307 6.76083 14.1323 6.91314 14.2085L9.50808 15.5059C9.57458 15.5391 9.63793 15.5549 9.69517 15.5549C9.85646 15.5549 9.9696 15.4301 9.9696 15.2206V8.67335C9.9696 8.66112 9.96262 8.64985 9.95163 8.6444Z" fill="#CDEAFF"/>
</svg>
