<svg width="23" height="23" viewBox="0 0 23 23" fill="none" xmlns="http://www.w3.org/2000/svg">
<path d="M11.2727 21.1819C16.7956 21.1819 21.2727 16.7047 21.2727 11.1819C21.2727 5.65904 16.7956 1.18188 11.2727 1.18188C5.74986 1.18188 1.27271 5.65904 1.27271 11.1819C1.27271 16.7047 5.74986 21.1819 11.2727 21.1819Z" stroke="#CDEAFF" stroke-width="2"/>
<path fill-rule="evenodd" clip-rule="evenodd" d="M15.1483 8.83917C15.5528 8.58389 15.8632 8.17912 16.0089 7.69693C15.6301 7.93389 15.2116 8.10525 14.765 8.19803C14.4087 7.7962 13.8994 7.54565 13.3358 7.54565C12.2544 7.54565 11.3782 8.47044 11.3782 9.61091C11.3782 9.77282 11.3944 9.93059 11.428 10.0813C9.80098 9.995 8.35826 9.17363 7.39178 7.92325C7.22314 8.22934 7.12677 8.58389 7.12677 8.96208C7.12677 9.67827 7.47247 10.3106 7.99801 10.6816C7.67697 10.671 7.37498 10.5771 7.11053 10.4234V10.4488C7.11053 11.4498 7.7851 12.2848 8.68211 12.4739C8.51738 12.5223 8.34482 12.5466 8.16553 12.5466C8.03947 12.5466 7.91621 12.5342 7.79743 12.5099C8.04619 13.3301 8.76951 13.9281 9.62673 13.9441C8.95608 14.4984 8.11174 14.8281 7.19457 14.8281C7.03657 14.8281 6.88025 14.8192 6.72729 14.7997C7.59405 15.3853 8.62328 15.7275 9.72927 15.7275C13.3319 15.7275 15.3007 12.5803 15.3007 9.85082C15.3007 9.761 15.2996 9.67177 15.2956 9.58372C15.6783 9.2924 16.0111 8.9284 16.2728 8.51417C15.9215 8.67844 15.5438 8.78953 15.1483 8.83917Z" fill="#CDEAFF"/>
</svg>
