<svg width="23" height="22" viewBox="0 0 23 22" fill="none" xmlns="http://www.w3.org/2000/svg">
<path d="M11.4546 21C16.9774 21 21.4546 16.5229 21.4546 11C21.4546 5.47715 16.9774 1 11.4546 1C5.93174 1 1.45459 5.47715 1.45459 11C1.45459 16.5229 5.93174 21 11.4546 21Z" stroke="#8D8D8D" stroke-width="2"/>
<path d="M11.4547 16.1136C14.2789 16.1136 16.5683 13.8242 16.5683 11C16.5683 8.17581 14.2789 5.88635 11.4547 5.88635C8.63052 5.88635 6.34106 8.17581 6.34106 11C6.34106 13.8242 8.63052 16.1136 11.4547 16.1136Z" stroke="#8D8D8D" stroke-width="1.5" stroke-linecap="round" stroke-linejoin="round"/>
<path d="M6.68188 9.29541H16.2273" stroke="#8D8D8D" stroke-width="1.5" stroke-linecap="round" stroke-linejoin="round"/>
<path d="M6.68188 12.7045H16.2273" stroke="#8D8D8D" stroke-width="1.5" stroke-linecap="round" stroke-linejoin="round"/>
<path d="M11.1705 5.88635C10.2133 7.42022 9.70581 9.19196 9.70581 11C9.70581 12.808 10.2133 14.5798 11.1705 16.1136" stroke="#8D8D8D" stroke-width="1.5" stroke-linecap="round" stroke-linejoin="round"/>
<path d="M11.7388 5.88635C12.696 7.42022 13.2034 9.19196 13.2034 11C13.2034 12.808 12.696 14.5798 11.7388 16.1136" stroke="#8D8D8D" stroke-width="1.5" stroke-linecap="round" stroke-linejoin="round"/>
</svg>
