<svg width="23" height="23" viewBox="0 0 23 23" fill="none" xmlns="http://www.w3.org/2000/svg">
<path d="M11.0911 21.1819C16.6139 21.1819 21.0911 16.7047 21.0911 11.1819C21.0911 5.65904 16.6139 1.18188 11.0911 1.18188C5.56822 1.18188 1.09106 5.65904 1.09106 11.1819C1.09106 16.7047 5.56822 21.1819 11.0911 21.1819Z" stroke="#CDEAFF" stroke-width="2"/>
<path fill-rule="evenodd" clip-rule="evenodd" d="M15.6366 12.8021V9.56198C15.6366 9.56198 15.6366 8.00024 14.0699 8.00024H8.11176C8.11176 8.00024 6.54565 8.00024 6.54565 9.56198V12.8021C6.54565 12.8021 6.54565 14.3639 8.11176 14.3639H14.0699C14.0699 14.3639 15.6366 14.3639 15.6366 12.8021ZM12.8561 11.1866L9.87992 12.929V9.44369L12.8561 11.1866Z" fill="#CDEAFF"/>
</svg>
