<?xml version="1.0" encoding="utf-8"?>
<!-- Generator: Adobe Illustrator 24.0.3, SVG Export Plug-In . SVG Version: 6.00 Build 0)  -->
<svg version="1.1" id="Layer_1" xmlns="http://www.w3.org/2000/svg" xmlns:xlink="http://www.w3.org/1999/xlink" x="0px" y="0px"
	 viewBox="0 0 1920 4400" style="enable-background:new 0 0 1920 4400;" xml:space="preserve">
<style type="text/css">
	.st0{fill:#F0F9FF;}
	.st1{fill:#FFF6E3;}
</style>
<title>background</title>
<path class="st0" d="M538,2913c85.6,118.6,138.7,192.2,135,300c-4.6,134.9-96.3,269.8-226.5,322.1c-127.1,51.1-260.8-6.2-367.1-49.7
	c-33.3-13.6-60.2-27.4-79.4-37.8c0-239.1,0-478.2,0-717.3c39.6-30.5,127.8-88.9,234.2-77.1C364.9,2667.7,442.1,2780.1,538,2913z"/>
<path class="st1" d="M1472.9,1692.6c94.6,61.9,164.6,147.8,162.2,229.8c-3,82.6-79,160.8-150.7,223.6
	c-71.8,62.3-139.8,108.9-226.2,147.8c-85.6,38.4-189.9,69.1-278,49.9c-87.4-19.1-158.6-88.7-218.9-166
	c-60.3-77.2-110.3-162.7-91.7-236.6c18.7-73.8,106.1-136.8,195.9-199.1s182.7-124.3,288.3-136.3
	C1260,1593.3,1378.3,1630.7,1472.9,1692.6z"/>
<path class="st1" d="M1225.5,4400c-24.8-56.7-71.4-187-14.4-301.7c23.5-47.3,108.6-96.1,277.7-191.9
	c181.9-103,244.3-126.4,318.1-112.9c50.4,9.2,88.7,32.5,113.1,50.7c0,185.3,0,370.5,0,555.8C1688.5,4400,1457,4400,1225.5,4400z"/>
<path class="st0" d="M0,0c162.7,0,325.5,0,488.2,0c7.4,34.1,15.8,93.9-0.4,164.4c-19.8,86.6-65.6,141.5-100.5,182.3
	c-58.1,68-111.2,130.1-187.8,134.5c-52.3,3-123.7-20.3-165-33.8C20,442.7,8.1,438.3,0,435.2C0,290.2,0,145.1,0,0z"/>
<path class="st1" d="M1803.5,852.9c-11.7,94.7-223.1,158.4-390.6,142.4c-88.4-8.5-245.9-47.1-261.2-130.6
	c-9.9-54.5,44.5-108.3,89.7-152.9c34.7-34.2,81.4-80.2,156.1-96c103.6-21.7,190.8,29.4,242.8,59.8
	C1690.3,704.7,1813,776.7,1803.5,852.9z"/>
</svg>
