<svg width="21" height="21" viewBox="0 0 21 21" fill="none" xmlns="http://www.w3.org/2000/svg">
<path d="M18.2083 12.6418C17.9518 12.6418 17.744 12.8497 17.744 13.1062V17.2291C17.7431 17.9982 17.12 18.6214 16.3509 18.6222H3.32175C2.55267 18.6214 1.92961 17.9982 1.9287 17.2291V5.12863C1.92961 4.35973 2.55267 3.73649 3.32175 3.73558H7.44466C7.70114 3.73558 7.90901 3.52771 7.90901 3.27123C7.90901 3.01494 7.70114 2.80688 7.44466 2.80688H3.32175C2.04007 2.80834 1.00145 3.84695 1 5.12863V17.2293C1.00145 18.511 2.04007 19.5496 3.32175 19.551H16.3509C17.6326 19.5496 18.6712 18.511 18.6727 17.2293V13.1062C18.6727 12.8497 18.4648 12.6418 18.2083 12.6418Z" fill="#8D8D8D" stroke="#8D8D8D"/>
<path d="M18.4889 1.61204C17.6728 0.795986 16.3498 0.795986 15.5337 1.61204L7.24945 9.89633C7.19267 9.9531 7.15168 10.0235 7.13028 10.1007L6.04087 14.0338C5.99607 14.195 6.0416 14.3677 6.15986 14.4861C6.27831 14.6044 6.45099 14.6499 6.61224 14.6053L10.5452 13.5157C10.6225 13.4943 10.6929 13.4533 10.7497 13.3965L19.0338 5.11208C19.8486 4.29547 19.8486 2.97353 19.0338 2.15693L18.4889 1.61204ZM8.26122 10.1982L15.0413 3.41793L17.2279 5.60454L10.4477 12.3848L8.26122 10.1982ZM7.82444 11.0746L9.57138 12.8217L7.15495 13.4912L7.82444 11.0746ZM18.3771 4.45546L17.8847 4.94792L15.6979 2.76113L16.1905 2.26866C16.6438 1.81538 17.3788 1.81538 17.8321 2.26866L18.3771 2.81355C18.8297 3.26738 18.8297 4.00181 18.3771 4.45546Z" fill="#8D8D8D" stroke="#8D8D8D"/>
</svg>
