<svg id="Layer_1" data-name="Layer 1" xmlns="http://www.w3.org/2000/svg" viewBox="0 0 1843 1843"><defs><style>.cls-1{fill:#ff2d2d;}.cls-2{fill:none;stroke:#ff2d2d;stroke-linecap:round;stroke-linejoin:round;stroke-width:200px;}</style></defs><title>error</title><path class="cls-1" d="M1000,278.5a717.31,717.31,0,0,1,403.26,123.1,724.1,724.1,0,0,1,261.62,317.62,720.34,720.34,0,0,1-66.48,684,724.1,724.1,0,0,1-317.62,261.62,720.34,720.34,0,0,1-684-66.48,724.1,724.1,0,0,1-261.62-317.62,720.34,720.34,0,0,1,66.48-684A724.1,724.1,0,0,1,719.22,335.12,716.77,716.77,0,0,1,1000,278.5m0-200C491.07,78.5,78.5,491.07,78.5,1000s412.57,921.5,921.5,921.5,921.5-412.57,921.5-921.5S1508.93,78.5,1000,78.5Z" transform="translate(-78.5 -78.5)"/><line class="cls-2" x1="921.5" y1="479" x2="921.5" y2="979"/><circle class="cls-1" cx="921" cy="1327" r="98.5"/></svg>