<svg width="13" height="13" viewBox="0 0 13 13" fill="none" xmlns="http://www.w3.org/2000/svg">
<path d="M6.5 12.8C2.91015 12.8 0 9.93462 0 6.4C0 2.86538 2.91015 0 6.5 0C10.0899 0 13 2.86538 13 6.4C13 9.93462 10.0899 12.8 6.5 12.8ZM6.5 11.7333C9.49154 11.7333 11.9167 9.34552 11.9167 6.4C11.9167 3.45448 9.49154 1.06667 6.5 1.06667C3.50846 1.06667 1.08333 3.45448 1.08333 6.4C1.08333 9.34552 3.50846 11.7333 6.5 11.7333ZM3.30435 8.23877C3.15048 7.98617 3.23371 7.65858 3.49026 7.50707C3.74681 7.35557 4.07953 7.43753 4.2334 7.69014C4.67911 8.42185 5.60044 8.9297 6.5 8.9297C7.38911 8.9297 8.30075 8.4334 8.75225 7.71335C8.90941 7.46271 9.24318 7.38498 9.49772 7.53971C9.75227 7.69445 9.83123 8.02307 9.67407 8.2737C9.02442 9.30977 7.76321 9.99637 6.5 9.99637C5.22184 9.99637 3.94687 9.29359 3.30435 8.23877ZM4.44737 5.60504C3.88055 5.60504 3.42106 5.15261 3.42106 4.59451C3.42106 4.03641 3.88055 3.58398 4.44737 3.58398C5.01419 3.58398 5.47369 4.03641 5.47369 4.59451C5.47369 5.15261 5.01419 5.60504 4.44737 5.60504ZM8.55263 5.60504C7.98581 5.60504 7.52631 5.15261 7.52631 4.59451C7.52631 4.03641 7.98581 3.58398 8.55263 3.58398C9.11945 3.58398 9.57894 4.03641 9.57894 4.59451C9.57894 5.15261 9.11945 5.60504 8.55263 5.60504Z" fill="#767676"/>
</svg>
