<svg width="20" height="20" viewBox="0 0 20 20" fill="none" xmlns="http://www.w3.org/2000/svg">
<path d="M10.3653 17.2142C11.601 17.2142 14.9771 12.7784 14.9771 11.1185C14.9771 10.183 12.893 8.35853 11.8026 8.35853C11.3265 8.35853 10.5686 9.03445 10.0169 9.03445C9.4685 9.03445 8.24154 7.95539 8.24154 7.48451C8.24154 7.21518 8.46693 7.06552 8.73451 7.06552C9.20885 7.06552 9.95078 7.84367 10.7111 7.84367C11.3352 7.84367 11.6601 7.4272 11.6601 6.82059C11.6601 6.47401 11.4744 6.13441 11.2155 5.71193C12.2075 5.22963 14.1773 4.23637 14.8312 2.92305C14.1417 1.79658 12.2239 1.05561 9.96053 1.05561C6.63471 1.05561 3.41135 3.03205 3.17668 4.93475C3.08936 5.93033 3.79239 6.97917 5.12681 8.14107L6.53151 9.36183C6.97857 9.75878 7.23996 9.9444 7.23996 10.1961C7.23996 10.6141 6.7683 10.8959 6.7683 11.4283C6.7683 11.9124 6.9989 12.3252 7.50057 12.693C9.07065 13.8758 9.43595 14.0317 9.43595 14.3882C9.44743 15.0236 9.06982 15.5059 9.06982 16.0948C9.06982 16.6254 9.75722 17.2142 10.3653 17.2142ZM9.99902 20C15.4777 20 20.0008 15.4707 20.0008 10C20.0008 4.52137 15.4697 0 9.99109 0C4.52214 0 -0.000976562 4.52137 -0.000976562 10C-0.000976562 15.4707 4.53008 20 9.99902 20ZM9.99902 18.4499C5.37889 18.4499 1.55086 14.6219 1.55086 10C1.55086 5.37813 5.37096 1.5501 9.99109 1.5501C14.613 1.5501 18.4489 5.37813 18.4489 10C18.4489 14.6219 14.6209 18.4499 9.99902 18.4499Z" fill="black"/>
</svg>
